<svg id="visual" viewBox="0 0 3840 2160" width="3840" height="2160" xmlns="http://www.w3.org/2000/svg" xmlns:xlink="http://www.w3.org/1999/xlink" version="1.1"><rect x="0" y="0" width="3840" height="2160" fill="#11111b"></rect><path d="M0 936L226 1077L452 1023L678 995L904 1067L1129 895L1355 945L1581 1033L1807 917L2033 1008L2259 1007L2485 990L2711 1086L2936 1064L3162 923L3388 1003L3614 906L3840 1081L3840 2161L3614 2161L3388 2161L3162 2161L2936 2161L2711 2161L2485 2161L2259 2161L2033 2161L1807 2161L1581 2161L1355 2161L1129 2161L904 2161L678 2161L452 2161L226 2161L0 2161Z" fill="#88eeff"></path><path d="M0 1053L226 1047L452 1093L678 1088L904 1010L1129 1166L1355 1144L1581 1100L1807 1120L2033 1049L2259 1010L2485 1101L2711 1010L2936 1002L3162 1106L3388 1167L3614 1170L3840 1164L3840 2161L3614 2161L3388 2161L3162 2161L2936 2161L2711 2161L2485 2161L2259 2161L2033 2161L1807 2161L1581 2161L1355 2161L1129 2161L904 2161L678 2161L452 2161L226 2161L0 2161Z" fill="#7bd4ea"></path><path d="M0 1156L226 1181L452 1222L678 1227L904 1137L1129 1180L1355 1215L1581 1109L1807 1174L2033 1111L2259 1173L2485 1123L2711 1104L2936 1226L3162 1155L3388 1236L3614 1209L3840 1229L3840 2161L3614 2161L3388 2161L3162 2161L2936 2161L2711 2161L2485 2161L2259 2161L2033 2161L1807 2161L1581 2161L1355 2161L1129 2161L904 2161L678 2161L452 2161L226 2161L0 2161Z" fill="#6fbbd4"></path><path d="M0 1261L226 1335L452 1333L678 1355L904 1316L1129 1219L1355 1356L1581 1306L1807 1359L2033 1280L2259 1267L2485 1352L2711 1302L2936 1353L3162 1336L3388 1255L3614 1242L3840 1258L3840 2161L3614 2161L3388 2161L3162 2161L2936 2161L2711 2161L2485 2161L2259 2161L2033 2161L1807 2161L1581 2161L1355 2161L1129 2161L904 2161L678 2161L452 2161L226 2161L0 2161Z" fill="#64a3be"></path><path d="M0 1434L226 1393L452 1360L678 1439L904 1417L1129 1428L1355 1378L1581 1328L1807 1409L2033 1337L2259 1359L2485 1446L2711 1406L2936 1396L3162 1365L3388 1413L3614 1331L3840 1325L3840 2161L3614 2161L3388 2161L3162 2161L2936 2161L2711 2161L2485 2161L2259 2161L2033 2161L1807 2161L1581 2161L1355 2161L1129 2161L904 2161L678 2161L452 2161L226 2161L0 2161Z" fill="#5a8ba6"></path><path d="M0 1441L226 1453L452 1437L678 1532L904 1494L1129 1430L1355 1458L1581 1505L1807 1456L2033 1474L2259 1477L2485 1525L2711 1429L2936 1440L3162 1430L3388 1482L3614 1507L3840 1433L3840 2161L3614 2161L3388 2161L3162 2161L2936 2161L2711 2161L2485 2161L2259 2161L2033 2161L1807 2161L1581 2161L1355 2161L1129 2161L904 2161L678 2161L452 2161L226 2161L0 2161Z" fill="#4f748e"></path><path d="M0 1564L226 1534L452 1537L678 1536L904 1569L1129 1587L1355 1624L1581 1598L1807 1562L2033 1573L2259 1601L2485 1586L2711 1605L2936 1600L3162 1567L3388 1576L3614 1616L3840 1567L3840 2161L3614 2161L3388 2161L3162 2161L2936 2161L2711 2161L2485 2161L2259 2161L2033 2161L1807 2161L1581 2161L1355 2161L1129 2161L904 2161L678 2161L452 2161L226 2161L0 2161Z" fill="#445e76"></path><path d="M0 1679L226 1691L452 1684L678 1701L904 1642L1129 1657L1355 1669L1581 1704L1807 1721L2033 1649L2259 1675L2485 1698L2711 1640L2936 1659L3162 1654L3388 1705L3614 1688L3840 1723L3840 2161L3614 2161L3388 2161L3162 2161L2936 2161L2711 2161L2485 2161L2259 2161L2033 2161L1807 2161L1581 2161L1355 2161L1129 2161L904 2161L678 2161L452 2161L226 2161L0 2161Z" fill="#38495e"></path><path d="M0 1801L226 1799L452 1781L678 1756L904 1775L1129 1747L1355 1768L1581 1805L1807 1813L2033 1778L2259 1750L2485 1765L2711 1747L2936 1802L3162 1805L3388 1773L3614 1772L3840 1749L3840 2161L3614 2161L3388 2161L3162 2161L2936 2161L2711 2161L2485 2161L2259 2161L2033 2161L1807 2161L1581 2161L1355 2161L1129 2161L904 2161L678 2161L452 2161L226 2161L0 2161Z" fill="#2c3546"></path><path d="M0 1885L226 1876L452 1873L678 1903L904 1863L1129 1859L1355 1899L1581 1858L1807 1890L2033 1860L2259 1889L2485 1904L2711 1876L2936 1884L3162 1873L3388 1867L3614 1902L3840 1904L3840 2161L3614 2161L3388 2161L3162 2161L2936 2161L2711 2161L2485 2161L2259 2161L2033 2161L1807 2161L1581 2161L1355 2161L1129 2161L904 2161L678 2161L452 2161L226 2161L0 2161Z" fill="#1f2330"></path><path d="M0 1984L226 1991L452 1967L678 1971L904 1968L1129 1996L1355 1982L1581 1978L1807 1969L2033 1963L2259 1992L2485 1994L2711 1969L2936 1993L3162 1981L3388 1977L3614 1985L3840 1965L3840 2161L3614 2161L3388 2161L3162 2161L2936 2161L2711 2161L2485 2161L2259 2161L2033 2161L1807 2161L1581 2161L1355 2161L1129 2161L904 2161L678 2161L452 2161L226 2161L0 2161Z" fill="#11111b"></path></svg>