<svg id="visual" viewBox="0 0 384 216" width="384" height="216" xmlns="http://www.w3.org/2000/svg" xmlns:xlink="http://www.w3.org/1999/xlink" version="1.1"><g stroke-width="1" stroke-linejoin="bevel"><path d="M191 118L180.8 98L183 126Z" fill="#323232" stroke="#323232"></path><path d="M180.8 98L162.8 102L183 126Z" fill="#252525" stroke="#252525"></path><path d="M166.8 132L169.8 133L183 126Z" fill="#2b2b2b" stroke="#2b2b2b"></path><path d="M162.8 102L166.8 132L183 126Z" fill="#111111" stroke="#111111"></path><path d="M191 118L193 88L180.8 98Z" fill="#404040" stroke="#404040"></path><path d="M180.8 98L177.8 80L162.8 102Z" fill="#393939" stroke="#393939"></path><path d="M193 88L177.8 80L180.8 98Z" fill="#393939" stroke="#393939"></path><path d="M212.2 133L210.2 121L191 118Z" fill="#4e4e4e" stroke="#4e4e4e"></path><path d="M191 118L213.2 110L193 88Z" fill="#474747" stroke="#474747"></path><path d="M212.2 133L191 118L183 126Z" fill="#323232" stroke="#323232"></path><path d="M142.6 98L144.6 101L162.8 102Z" fill="#1e1e1e" stroke="#1e1e1e"></path><path d="M162.8 102L136.4 118L166.8 132Z" fill="#2b2b2b" stroke="#2b2b2b"></path><path d="M146.6 136L160.6 144L166.8 132Z" fill="#1e1e1e" stroke="#1e1e1e"></path><path d="M166.8 132L160.6 144L169.8 133Z" fill="#181818" stroke="#181818"></path><path d="M192 154L212.2 133L183 126Z" fill="#474747" stroke="#474747"></path><path d="M210.2 121L213.2 110L191 118Z" fill="#474747" stroke="#474747"></path><path d="M150.6 74L142.6 98L162.8 102Z" fill="#2b2b2b" stroke="#2b2b2b"></path><path d="M144.6 101L139.4 108L162.8 102Z" fill="#252525" stroke="#252525"></path><path d="M142.6 98L139.4 108L144.6 101Z" fill="#181818" stroke="#181818"></path><path d="M136.4 118L146.6 136L166.8 132Z" fill="#181818" stroke="#181818"></path><path d="M181.8 155L183 126L169.8 133Z" fill="#181818" stroke="#181818"></path><path d="M210.2 121L234.4 115L213.2 110Z" fill="#1e1e1e" stroke="#1e1e1e"></path><path d="M193 88L186 72L177.8 80Z" fill="#111111" stroke="#111111"></path><path d="M177.8 80L150.6 74L162.8 102Z" fill="#111111" stroke="#111111"></path><path d="M202.2 77L186 72L193 88Z" fill="#474747" stroke="#474747"></path><path d="M139.4 108L136.4 118L162.8 102Z" fill="#181818" stroke="#181818"></path><path d="M146.6 136L157.6 150L160.6 144Z" fill="#404040" stroke="#404040"></path><path d="M160.6 144L181.8 155L169.8 133Z" fill="#555555" stroke="#555555"></path><path d="M136.4 118L142.4 137L146.6 136Z" fill="#252525" stroke="#252525"></path><path d="M146.6 136L139.4 150L157.6 150Z" fill="#474747" stroke="#474747"></path><path d="M157.6 150L181.8 155L160.6 144Z" fill="#252525" stroke="#252525"></path><path d="M213.2 87L202.2 77L193 88Z" fill="#323232" stroke="#323232"></path><path d="M213.2 110L213.2 87L193 88Z" fill="#555555" stroke="#555555"></path><path d="M181.8 155L192 154L183 126Z" fill="#393939" stroke="#393939"></path><path d="M162.8 48L150.6 74L177.8 80Z" fill="#474747" stroke="#474747"></path><path d="M235.4 100L222.4 91L213.2 110Z" fill="#252525" stroke="#252525"></path><path d="M213.2 110L222.4 91L213.2 87Z" fill="#474747" stroke="#474747"></path><path d="M213.2 87L223.4 47L202.2 77Z" fill="#404040" stroke="#404040"></path><path d="M181.8 155L189 162L192 154Z" fill="#1e1e1e" stroke="#1e1e1e"></path><path d="M211.2 164L229.4 144L212.2 133Z" fill="#1e1e1e" stroke="#1e1e1e"></path><path d="M161.6 169L189 162L181.8 155Z" fill="#393939" stroke="#393939"></path><path d="M142.4 137L139.4 150L146.6 136Z" fill="#555555" stroke="#555555"></path><path d="M157.6 150L161.6 169L181.8 155Z" fill="#2b2b2b" stroke="#2b2b2b"></path><path d="M113.2 140L139.4 150L142.4 137Z" fill="#111111" stroke="#111111"></path><path d="M150.6 74L127.4 86L142.6 98Z" fill="#404040" stroke="#404040"></path><path d="M142.6 98L121.2 94L139.4 108Z" fill="#111111" stroke="#111111"></path><path d="M139.4 108L112.2 108L136.4 118Z" fill="#2b2b2b" stroke="#2b2b2b"></path><path d="M136.4 118L113.2 140L142.4 137Z" fill="#393939" stroke="#393939"></path><path d="M229.4 144L234.4 115L212.2 133Z" fill="#111111" stroke="#111111"></path><path d="M212.2 133L234.4 115L210.2 121Z" fill="#393939" stroke="#393939"></path><path d="M139.4 150L161.6 169L157.6 150Z" fill="#404040" stroke="#404040"></path><path d="M127.4 86L121.2 94L142.6 98Z" fill="#393939" stroke="#393939"></path><path d="M234.4 115L235.4 100L213.2 110Z" fill="#323232" stroke="#323232"></path><path d="M222.4 91L239.4 78L213.2 87Z" fill="#474747" stroke="#474747"></path><path d="M211.2 164L212.2 133L192 154Z" fill="#2b2b2b" stroke="#2b2b2b"></path><path d="M203 188L211.2 164L189 162Z" fill="#1e1e1e" stroke="#1e1e1e"></path><path d="M189 162L211.2 164L192 154Z" fill="#555555" stroke="#555555"></path><path d="M149.6 44L137.4 64L150.6 74Z" fill="#393939" stroke="#393939"></path><path d="M150.6 74L137.4 64L127.4 86Z" fill="#404040" stroke="#404040"></path><path d="M127.4 86L121.2 71L121.2 94Z" fill="#323232" stroke="#323232"></path><path d="M245.6 117L238.6 93L235.4 100Z" fill="#555555" stroke="#555555"></path><path d="M235.4 100L238.6 93L222.4 91Z" fill="#1e1e1e" stroke="#1e1e1e"></path><path d="M245.6 117L235.4 100L234.4 115Z" fill="#1e1e1e" stroke="#1e1e1e"></path><path d="M100 82L112.2 108L121.2 94Z" fill="#323232" stroke="#323232"></path><path d="M121.2 94L112.2 108L139.4 108Z" fill="#474747" stroke="#474747"></path><path d="M182 45L162.8 48L186 72Z" fill="#474747" stroke="#474747"></path><path d="M186 72L162.8 48L177.8 80Z" fill="#1e1e1e" stroke="#1e1e1e"></path><path d="M182 45L186 72L193 44Z" fill="#393939" stroke="#393939"></path><path d="M112.2 108L111.2 125L136.4 118Z" fill="#323232" stroke="#323232"></path><path d="M193 44L186 72L202.2 77Z" fill="#1e1e1e" stroke="#1e1e1e"></path><path d="M252.6 133L245.6 117L234.4 115Z" fill="#252525" stroke="#252525"></path><path d="M127.4 63L121.2 71L137.4 64Z" fill="#252525" stroke="#252525"></path><path d="M137.4 64L121.2 71L127.4 86Z" fill="#404040" stroke="#404040"></path><path d="M111.2 125L113.2 140L136.4 118Z" fill="#181818" stroke="#181818"></path><path d="M139.4 150L129.4 181L161.6 169Z" fill="#111111" stroke="#111111"></path><path d="M210.2 47L193 44L202.2 77Z" fill="#1e1e1e" stroke="#1e1e1e"></path><path d="M126.2 57L127.4 63L137.4 64Z" fill="#393939" stroke="#393939"></path><path d="M255.6 61L266.8 61L265.8 60Z" fill="#404040" stroke="#404040"></path><path d="M238.6 93L239.4 78L222.4 91Z" fill="#404040" stroke="#404040"></path><path d="M112.2 108L107 123L111.2 125Z" fill="#393939" stroke="#393939"></path><path d="M111.2 125L107 123L113.2 140Z" fill="#474747" stroke="#474747"></path><path d="M86 101L107 123L112.2 108Z" fill="#111111" stroke="#111111"></path><path d="M184 190L183.8 185L167.8 201Z" fill="#474747" stroke="#474747"></path><path d="M161.6 169L183.8 185L189 162Z" fill="#323232" stroke="#323232"></path><path d="M214.2 46L210.2 47L202.2 77Z" fill="#181818" stroke="#181818"></path><path d="M150.6 42L149.6 44L162.8 48Z" fill="#323232" stroke="#323232"></path><path d="M162.8 48L149.6 44L150.6 74Z" fill="#393939" stroke="#393939"></path><path d="M150.6 42L162.8 48L160.8 33Z" fill="#181818" stroke="#181818"></path><path d="M160.8 33L162.8 48L182 45Z" fill="#111111" stroke="#111111"></path><path d="M149.6 44L126.2 57L137.4 64Z" fill="#252525" stroke="#252525"></path><path d="M139.4 33L126.2 57L149.6 44Z" fill="#323232" stroke="#323232"></path><path d="M127.4 63L126.2 57L121.2 71Z" fill="#2b2b2b" stroke="#2b2b2b"></path><path d="M212.2 10L203 8L193 44Z" fill="#555555" stroke="#555555"></path><path d="M223.4 47L214.2 46L202.2 77Z" fill="#2b2b2b" stroke="#2b2b2b"></path><path d="M211.2 164L230.4 167L229.4 144Z" fill="#252525" stroke="#252525"></path><path d="M229.4 144L252.6 133L234.4 115Z" fill="#393939" stroke="#393939"></path><path d="M217.2 186L230.4 167L211.2 164Z" fill="#4e4e4e" stroke="#4e4e4e"></path><path d="M230.4 167L243.6 152L229.4 144Z" fill="#4e4e4e" stroke="#4e4e4e"></path><path d="M167.8 201L183.8 185L161.6 169Z" fill="#404040" stroke="#404040"></path><path d="M183.8 185L203 188L189 162Z" fill="#2b2b2b" stroke="#2b2b2b"></path><path d="M243.6 152L252.6 133L229.4 144Z" fill="#1e1e1e" stroke="#1e1e1e"></path><path d="M255.6 61L279.8 89L266.8 61Z" fill="#181818" stroke="#181818"></path><path d="M87 139L110.2 154L113.2 140Z" fill="#252525" stroke="#252525"></path><path d="M113.2 140L110.2 154L139.4 150Z" fill="#4e4e4e" stroke="#4e4e4e"></path><path d="M184 190L203 188L183.8 185Z" fill="#474747" stroke="#474747"></path><path d="M239.4 78L223.4 47L213.2 87Z" fill="#323232" stroke="#323232"></path><path d="M164.6 27L160.8 33L182 45Z" fill="#404040" stroke="#404040"></path><path d="M150.6 42L139.4 33L149.6 44Z" fill="#111111" stroke="#111111"></path><path d="M164.6 27L182 45L171.8 18Z" fill="#111111" stroke="#111111"></path><path d="M182 45L193 44L171.8 18Z" fill="#111111" stroke="#111111"></path><path d="M102 60L100 82L121.2 71Z" fill="#111111" stroke="#111111"></path><path d="M121.2 71L100 82L121.2 94Z" fill="#111111" stroke="#111111"></path><path d="M107 123L87 139L113.2 140Z" fill="#111111" stroke="#111111"></path><path d="M230.4 167L245.6 160L243.6 152Z" fill="#4e4e4e" stroke="#4e4e4e"></path><path d="M261.8 136L258.8 133L252.6 133Z" fill="#4e4e4e" stroke="#4e4e4e"></path><path d="M244.6 189L245.6 160L230.4 167Z" fill="#404040" stroke="#404040"></path><path d="M203 188L217.2 186L211.2 164Z" fill="#111111" stroke="#111111"></path><path d="M110.2 154L129.4 181L139.4 150Z" fill="#555555" stroke="#555555"></path><path d="M261.8 136L252.6 133L243.6 152Z" fill="#4e4e4e" stroke="#4e4e4e"></path><path d="M252.6 133L258.8 133L245.6 117Z" fill="#474747" stroke="#474747"></path><path d="M171.8 18L193 44L203 8Z" fill="#4e4e4e" stroke="#4e4e4e"></path><path d="M160.8 33L139.4 33L150.6 42Z" fill="#111111" stroke="#111111"></path><path d="M245.6 160L261.8 136L243.6 152Z" fill="#393939" stroke="#393939"></path><path d="M276 113L238.6 93L245.6 117Z" fill="#393939" stroke="#393939"></path><path d="M164.6 27L139.4 33L160.8 33Z" fill="#555555" stroke="#555555"></path><path d="M126.2 57L102 60L121.2 71Z" fill="#4e4e4e" stroke="#4e4e4e"></path><path d="M159.6 204L167.8 201L161.6 169Z" fill="#555555" stroke="#555555"></path><path d="M184 190L202.2 207L203 188Z" fill="#252525" stroke="#252525"></path><path d="M203 188L218.4 193L217.2 186Z" fill="#111111" stroke="#111111"></path><path d="M202.2 207L218.4 193L203 188Z" fill="#323232" stroke="#323232"></path><path d="M217.2 186L227.4 188L230.4 167Z" fill="#181818" stroke="#181818"></path><path d="M218.4 193L227.4 188L217.2 186Z" fill="#555555" stroke="#555555"></path><path d="M274.8 159L279 145L261.8 136Z" fill="#323232" stroke="#323232"></path><path d="M119.2 41L102 60L126.2 57Z" fill="#393939" stroke="#393939"></path><path d="M139.4 33L119.2 41L126.2 57Z" fill="#4e4e4e" stroke="#4e4e4e"></path><path d="M80.8 90L86 101L100 82Z" fill="#4e4e4e" stroke="#4e4e4e"></path><path d="M100 82L86 101L112.2 108Z" fill="#252525" stroke="#252525"></path><path d="M129.4 181L159.6 204L161.6 169Z" fill="#111111" stroke="#111111"></path><path d="M199.2 216L202.2 207L184 190Z" fill="#474747" stroke="#474747"></path><path d="M239.4 78L255.6 61L223.4 47Z" fill="#4e4e4e" stroke="#4e4e4e"></path><path d="M276 113L245.6 117L258.8 133Z" fill="#252525" stroke="#252525"></path><path d="M76.8 118L87 139L107 123Z" fill="#393939" stroke="#393939"></path><path d="M120.2 201L130.4 198L129.4 181Z" fill="#181818" stroke="#181818"></path><path d="M231.4 23L214.2 46L223.4 47Z" fill="#4e4e4e" stroke="#4e4e4e"></path><path d="M193 44L210.2 47L212.2 10Z" fill="#1e1e1e" stroke="#1e1e1e"></path><path d="M164.6 27L133.4 8L139.4 33Z" fill="#181818" stroke="#181818"></path><path d="M139.4 33L126.2 28L119.2 41Z" fill="#181818" stroke="#181818"></path><path d="M74.8 134L85.8 141L87 139Z" fill="#404040" stroke="#404040"></path><path d="M87 139L85.8 141L110.2 154Z" fill="#181818" stroke="#181818"></path><path d="M104.2 183L129.4 181L110.2 154Z" fill="#1e1e1e" stroke="#1e1e1e"></path><path d="M129.4 181L130.4 198L159.6 204Z" fill="#111111" stroke="#111111"></path><path d="M199.2 216L184 190L167.8 201Z" fill="#2b2b2b" stroke="#2b2b2b"></path><path d="M227.4 216L240.6 190L227.4 188Z" fill="#404040" stroke="#404040"></path><path d="M279.8 119L276 113L258.8 133Z" fill="#252525" stroke="#252525"></path><path d="M133.4 8L126.2 28L139.4 33Z" fill="#111111" stroke="#111111"></path><path d="M119.2 41L89 52L102 60Z" fill="#252525" stroke="#252525"></path><path d="M76.8 70L80.8 90L100 82Z" fill="#474747" stroke="#474747"></path><path d="M86 101L76.8 118L107 123Z" fill="#404040" stroke="#404040"></path><path d="M227.4 216L227.4 188L218.4 193Z" fill="#1e1e1e" stroke="#1e1e1e"></path><path d="M227.4 188L240.6 190L230.4 167Z" fill="#1e1e1e" stroke="#1e1e1e"></path><path d="M261.8 136L279.8 119L258.8 133Z" fill="#323232" stroke="#323232"></path><path d="M62.6 102L76.8 118L86 101Z" fill="#181818" stroke="#181818"></path><path d="M87 161L104.2 183L110.2 154Z" fill="#474747" stroke="#474747"></path><path d="M240.6 216L244.6 189L240.6 190Z" fill="#555555" stroke="#555555"></path><path d="M240.6 190L244.6 189L230.4 167Z" fill="#4e4e4e" stroke="#4e4e4e"></path><path d="M57.6 150L87 161L85.8 141Z" fill="#252525" stroke="#252525"></path><path d="M85.8 141L87 161L110.2 154Z" fill="#323232" stroke="#323232"></path><path d="M279 145L279.8 119L261.8 136Z" fill="#4e4e4e" stroke="#4e4e4e"></path><path d="M255.6 61L239.4 78L279.8 89Z" fill="#181818" stroke="#181818"></path><path d="M279.8 119L280 116L276 113Z" fill="#111111" stroke="#111111"></path><path d="M239.4 78L238.6 93L279.8 89Z" fill="#404040" stroke="#404040"></path><path d="M240.4 27L231.4 23L223.4 47Z" fill="#404040" stroke="#404040"></path><path d="M279.8 89L238.6 93L276 113Z" fill="#323232" stroke="#323232"></path><path d="M146.6 216L167.8 216L159.6 204Z" fill="#404040" stroke="#404040"></path><path d="M159.6 204L167.8 216L167.8 201Z" fill="#323232" stroke="#323232"></path><path d="M223.4 47L255.6 61L258.6 43Z" fill="#1e1e1e" stroke="#1e1e1e"></path><path d="M240.4 27L223.4 47L258.6 43Z" fill="#404040" stroke="#404040"></path><path d="M76.8 118L74.8 134L87 139Z" fill="#4e4e4e" stroke="#4e4e4e"></path><path d="M293 96L279.8 89L276 113Z" fill="#404040" stroke="#404040"></path><path d="M104.2 183L120.2 201L129.4 181Z" fill="#555555" stroke="#555555"></path><path d="M130.4 198L146.6 216L159.6 204Z" fill="#111111" stroke="#111111"></path><path d="M167.8 216L199.2 216L167.8 201Z" fill="#555555" stroke="#555555"></path><path d="M202.2 207L227.4 216L218.4 193Z" fill="#393939" stroke="#393939"></path><path d="M258.6 43L255.6 61L265.8 60Z" fill="#252525" stroke="#252525"></path><path d="M199.2 216L201 216L202.2 207Z" fill="#393939" stroke="#393939"></path><path d="M274.8 159L261.8 136L245.6 160Z" fill="#474747" stroke="#474747"></path><path d="M300.2 129L293 96L280 116Z" fill="#1e1e1e" stroke="#1e1e1e"></path><path d="M277 59L265.8 60L266.8 61Z" fill="#404040" stroke="#404040"></path><path d="M277 59L258.6 43L265.8 60Z" fill="#555555" stroke="#555555"></path><path d="M82.8 46L89 52L88 30Z" fill="#111111" stroke="#111111"></path><path d="M102 60L76.8 70L100 82Z" fill="#555555" stroke="#555555"></path><path d="M212.2 10L214.2 46L231.4 23Z" fill="#4e4e4e" stroke="#4e4e4e"></path><path d="M212.2 10L210.2 47L214.2 46Z" fill="#555555" stroke="#555555"></path><path d="M162.6 0L133.4 8L164.6 27Z" fill="#474747" stroke="#474747"></path><path d="M270.8 183L274.8 159L245.6 160Z" fill="#2b2b2b" stroke="#2b2b2b"></path><path d="M135.4 216L146.6 216L130.4 198Z" fill="#474747" stroke="#474747"></path><path d="M213.2 0L212.2 10L219.4 0Z" fill="#4e4e4e" stroke="#4e4e4e"></path><path d="M89 52L76.8 70L102 60Z" fill="#555555" stroke="#555555"></path><path d="M61.6 123L68.6 132L76.8 118Z" fill="#181818" stroke="#181818"></path><path d="M76.8 118L68.6 132L74.8 134Z" fill="#474747" stroke="#474747"></path><path d="M279.8 89L276 65L266.8 61Z" fill="#404040" stroke="#404040"></path><path d="M64.8 169L92 181L87 161Z" fill="#474747" stroke="#474747"></path><path d="M87 161L92 181L104.2 183Z" fill="#323232" stroke="#323232"></path><path d="M104.2 183L99 198L120.2 201Z" fill="#393939" stroke="#393939"></path><path d="M294 178L278 158L274.8 159Z" fill="#555555" stroke="#555555"></path><path d="M274.8 159L278 158L279 145Z" fill="#404040" stroke="#404040"></path><path d="M62.6 102L86 101L80.8 90Z" fill="#474747" stroke="#474747"></path><path d="M74.8 134L57.6 150L85.8 141Z" fill="#1e1e1e" stroke="#1e1e1e"></path><path d="M258.6 43L252.6 30L240.4 27Z" fill="#111111" stroke="#111111"></path><path d="M219.4 0L212.2 10L231.4 23Z" fill="#1e1e1e" stroke="#1e1e1e"></path><path d="M264.8 29L252.6 30L258.6 43Z" fill="#474747" stroke="#474747"></path><path d="M120.2 201L135.4 216L130.4 198Z" fill="#393939" stroke="#393939"></path><path d="M114.2 216L135.4 216L120.2 201Z" fill="#111111" stroke="#111111"></path><path d="M186 0L171.8 18L203 8Z" fill="#111111" stroke="#111111"></path><path d="M186 0L179.8 0L171.8 18Z" fill="#2b2b2b" stroke="#2b2b2b"></path><path d="M213.2 0L186 0L203 8Z" fill="#404040" stroke="#404040"></path><path d="M308.2 68L277 59L276 65Z" fill="#555555" stroke="#555555"></path><path d="M276 65L277 59L266.8 61Z" fill="#555555" stroke="#555555"></path><path d="M162.6 0L164.6 27L171.8 18Z" fill="#323232" stroke="#323232"></path><path d="M88 30L89 52L119.2 41Z" fill="#474747" stroke="#474747"></path><path d="M179.8 0L162.6 0L171.8 18Z" fill="#1e1e1e" stroke="#1e1e1e"></path><path d="M201 216L227.4 216L202.2 207Z" fill="#4e4e4e" stroke="#4e4e4e"></path><path d="M244.6 189L270.8 183L245.6 160Z" fill="#111111" stroke="#111111"></path><path d="M59.6 97L62.6 102L80.8 90Z" fill="#555555" stroke="#555555"></path><path d="M89 52L68.6 64L76.8 70Z" fill="#1e1e1e" stroke="#1e1e1e"></path><path d="M76.8 70L59.6 97L80.8 90Z" fill="#393939" stroke="#393939"></path><path d="M88 30L119.2 41L91 18Z" fill="#393939" stroke="#393939"></path><path d="M78.8 204L99 198L92 181Z" fill="#393939" stroke="#393939"></path><path d="M92 181L99 198L104.2 183Z" fill="#252525" stroke="#252525"></path><path d="M62.6 102L61.6 123L76.8 118Z" fill="#393939" stroke="#393939"></path><path d="M68.6 132L57.6 150L74.8 134Z" fill="#252525" stroke="#252525"></path><path d="M280 116L293 96L276 113Z" fill="#252525" stroke="#252525"></path><path d="M279.8 89L303.2 79L276 65Z" fill="#393939" stroke="#393939"></path><path d="M300.2 129L280 116L279.8 119Z" fill="#555555" stroke="#555555"></path><path d="M300.2 129L279.8 119L279 145Z" fill="#323232" stroke="#323232"></path><path d="M273.8 198L270.8 183L244.6 189Z" fill="#111111" stroke="#111111"></path><path d="M219.4 0L231.4 23L243.6 0Z" fill="#252525" stroke="#252525"></path><path d="M212.2 10L213.2 0L203 8Z" fill="#252525" stroke="#252525"></path><path d="M68.6 64L59.6 97L76.8 70Z" fill="#181818" stroke="#181818"></path><path d="M62.6 102L30.4 122L61.6 123Z" fill="#111111" stroke="#111111"></path><path d="M82.8 46L68.6 64L89 52Z" fill="#474747" stroke="#474747"></path><path d="M250.6 12L231.4 23L240.4 27Z" fill="#393939" stroke="#393939"></path><path d="M268.8 29L264.8 29L258.6 43Z" fill="#111111" stroke="#111111"></path><path d="M252.6 30L250.6 12L240.4 27Z" fill="#2b2b2b" stroke="#2b2b2b"></path><path d="M268.8 29L258.6 43L277 59Z" fill="#1e1e1e" stroke="#1e1e1e"></path><path d="M99 198L114.2 216L120.2 201Z" fill="#555555" stroke="#555555"></path><path d="M227.4 216L240.6 216L240.6 190Z" fill="#4e4e4e" stroke="#4e4e4e"></path><path d="M91 18L119.2 41L126.2 28Z" fill="#2b2b2b" stroke="#2b2b2b"></path><path d="M82.8 46L58.6 44L68.6 64Z" fill="#474747" stroke="#474747"></path><path d="M162.6 0L129.4 0L133.4 8Z" fill="#111111" stroke="#111111"></path><path d="M133.4 8L123.2 0L126.2 28Z" fill="#474747" stroke="#474747"></path><path d="M292 32L268.8 29L277 59Z" fill="#181818" stroke="#181818"></path><path d="M264.8 29L250.6 12L252.6 30Z" fill="#252525" stroke="#252525"></path><path d="M303.2 154L279 145L278 158Z" fill="#111111" stroke="#111111"></path><path d="M307.2 147L300.2 129L279 145Z" fill="#555555" stroke="#555555"></path><path d="M268.8 0L250.6 12L264.8 29Z" fill="#1e1e1e" stroke="#1e1e1e"></path><path d="M129.4 0L123.2 0L133.4 8Z" fill="#474747" stroke="#474747"></path><path d="M46.4 153L57.6 150L61.6 123Z" fill="#181818" stroke="#181818"></path><path d="M61.6 123L57.6 150L68.6 132Z" fill="#111111" stroke="#111111"></path><path d="M99 198L97 216L114.2 216Z" fill="#4e4e4e" stroke="#4e4e4e"></path><path d="M57.6 150L64.8 169L87 161Z" fill="#323232" stroke="#323232"></path><path d="M101 0L91 18L126.2 28Z" fill="#181818" stroke="#181818"></path><path d="M88 30L78.8 24L82.8 46Z" fill="#323232" stroke="#323232"></path><path d="M257.8 216L273.8 198L244.6 189Z" fill="#252525" stroke="#252525"></path><path d="M294 178L303.2 154L278 158Z" fill="#474747" stroke="#474747"></path><path d="M315.4 95L303.2 79L293 96Z" fill="#181818" stroke="#181818"></path><path d="M293 96L303.2 79L279.8 89Z" fill="#474747" stroke="#474747"></path><path d="M64.8 169L72.8 190L92 181Z" fill="#474747" stroke="#474747"></path><path d="M250.6 12L243.6 0L231.4 23Z" fill="#252525" stroke="#252525"></path><path d="M268.8 0L243.6 0L250.6 12Z" fill="#1e1e1e" stroke="#1e1e1e"></path><path d="M78.8 204L97 216L99 198Z" fill="#474747" stroke="#474747"></path><path d="M240.6 216L257.8 216L244.6 189Z" fill="#555555" stroke="#555555"></path><path d="M67.8 10L78.8 24L91 18Z" fill="#474747" stroke="#474747"></path><path d="M91 18L78.8 24L88 30Z" fill="#404040" stroke="#404040"></path><path d="M68.6 64L43.4 83L59.6 97Z" fill="#252525" stroke="#252525"></path><path d="M294 178L274.8 159L270.8 183Z" fill="#393939" stroke="#393939"></path><path d="M317.2 109L315.4 95L293 96Z" fill="#181818" stroke="#181818"></path><path d="M295.2 189L270.8 183L273.8 198Z" fill="#2b2b2b" stroke="#2b2b2b"></path><path d="M295.2 189L294 178L270.8 183Z" fill="#111111" stroke="#111111"></path><path d="M317.4 145L307.2 147L318.4 160Z" fill="#181818" stroke="#181818"></path><path d="M303.2 154L307.2 147L279 145Z" fill="#2b2b2b" stroke="#2b2b2b"></path><path d="M72.8 190L78.8 204L92 181Z" fill="#4e4e4e" stroke="#4e4e4e"></path><path d="M123.2 0L101 0L126.2 28Z" fill="#323232" stroke="#323232"></path><path d="M54.6 47L58.6 44L39.4 26Z" fill="#474747" stroke="#474747"></path><path d="M78.8 24L58.6 44L82.8 46Z" fill="#393939" stroke="#393939"></path><path d="M28.2 134L46.4 153L61.6 123Z" fill="#2b2b2b" stroke="#2b2b2b"></path><path d="M64.8 169L43.4 187L72.8 190Z" fill="#474747" stroke="#474747"></path><path d="M65.6 216L68.8 216L78.8 204Z" fill="#2b2b2b" stroke="#2b2b2b"></path><path d="M57.6 150L48.6 171L64.8 169Z" fill="#4e4e4e" stroke="#4e4e4e"></path><path d="M30.4 122L62.6 102L28.4 104Z" fill="#474747" stroke="#474747"></path><path d="M54.6 47L43.4 83L68.6 64Z" fill="#181818" stroke="#181818"></path><path d="M328.4 69L308.2 68L303.2 79Z" fill="#2b2b2b" stroke="#2b2b2b"></path><path d="M303.2 79L308.2 68L276 65Z" fill="#4e4e4e" stroke="#4e4e4e"></path><path d="M268.8 29L268.8 0L264.8 29Z" fill="#393939" stroke="#393939"></path><path d="M67.8 10L58.6 44L78.8 24Z" fill="#4e4e4e" stroke="#4e4e4e"></path><path d="M58.6 44L54.6 47L68.6 64Z" fill="#111111" stroke="#111111"></path><path d="M317.2 109L293 96L300.2 129Z" fill="#555555" stroke="#555555"></path><path d="M324.4 121L317.2 109L300.2 129Z" fill="#2b2b2b" stroke="#2b2b2b"></path><path d="M306.2 48L292 32L277 59Z" fill="#555555" stroke="#555555"></path><path d="M299.2 197L295.2 189L295 207Z" fill="#252525" stroke="#252525"></path><path d="M318.4 160L307.2 147L303.2 154Z" fill="#252525" stroke="#252525"></path><path d="M46.4 153L48.6 171L57.6 150Z" fill="#252525" stroke="#252525"></path><path d="M318.4 160L303.2 154L294 178Z" fill="#111111" stroke="#111111"></path><path d="M307.2 147L317.4 145L300.2 129Z" fill="#252525" stroke="#252525"></path><path d="M308.2 26L306.2 48L336.4 35Z" fill="#181818" stroke="#181818"></path><path d="M308.2 68L306.2 48L277 59Z" fill="#252525" stroke="#252525"></path><path d="M54.6 47L36.4 80L43.4 83Z" fill="#555555" stroke="#555555"></path><path d="M28.4 104L62.6 102L59.6 97Z" fill="#404040" stroke="#404040"></path><path d="M46.4 153L40.4 173L48.6 171Z" fill="#555555" stroke="#555555"></path><path d="M286 15L268.8 29L292 32Z" fill="#1e1e1e" stroke="#1e1e1e"></path><path d="M286 15L268.8 0L268.8 29Z" fill="#393939" stroke="#393939"></path><path d="M300.2 9L286 15L292 32Z" fill="#181818" stroke="#181818"></path><path d="M28.4 104L59.6 97L43.4 83Z" fill="#474747" stroke="#474747"></path><path d="M317.2 109L341.6 88L315.4 95Z" fill="#252525" stroke="#252525"></path><path d="M315.4 95L328.4 69L303.2 79Z" fill="#474747" stroke="#474747"></path><path d="M317.4 145L324.4 121L300.2 129Z" fill="#2b2b2b" stroke="#2b2b2b"></path><path d="M295 207L295.2 189L273.8 198Z" fill="#252525" stroke="#252525"></path><path d="M325.4 191L318.4 160L294 178Z" fill="#393939" stroke="#393939"></path><path d="M325.4 191L294 178L295.2 189Z" fill="#252525" stroke="#252525"></path><path d="M337.6 126L332.4 119L324.4 121Z" fill="#474747" stroke="#474747"></path><path d="M36.4 80L28.4 104L43.4 83Z" fill="#1e1e1e" stroke="#1e1e1e"></path><path d="M26.4 153L40.4 173L46.4 153Z" fill="#404040" stroke="#404040"></path><path d="M48.6 171L43.4 187L64.8 169Z" fill="#111111" stroke="#111111"></path><path d="M70.8 0L67.8 10L91 18Z" fill="#555555" stroke="#555555"></path><path d="M27.2 64L25.2 83L36.4 80Z" fill="#474747" stroke="#474747"></path><path d="M65.6 216L78.8 204L72.8 190Z" fill="#1e1e1e" stroke="#1e1e1e"></path><path d="M78.8 204L68.8 216L97 216Z" fill="#404040" stroke="#404040"></path><path d="M8.2 137L28.2 134L30.4 122Z" fill="#252525" stroke="#252525"></path><path d="M30.4 122L28.2 134L61.6 123Z" fill="#323232" stroke="#323232"></path><path d="M292 216L295 207L273.8 198Z" fill="#323232" stroke="#323232"></path><path d="M299.2 197L325.4 191L295.2 189Z" fill="#4e4e4e" stroke="#4e4e4e"></path><path d="M299.2 0L280 0L286 15Z" fill="#252525" stroke="#252525"></path><path d="M286 15L280 0L268.8 0Z" fill="#404040" stroke="#404040"></path><path d="M50.6 205L65.6 216L72.8 190Z" fill="#393939" stroke="#393939"></path><path d="M25.2 189L43.4 187L40.4 173Z" fill="#111111" stroke="#111111"></path><path d="M40.4 173L43.4 187L48.6 171Z" fill="#1e1e1e" stroke="#1e1e1e"></path><path d="M257.8 216L292 216L273.8 198Z" fill="#252525" stroke="#252525"></path><path d="M311.2 216L325.4 191L299.2 197Z" fill="#4e4e4e" stroke="#4e4e4e"></path><path d="M101 0L70.8 0L91 18Z" fill="#404040" stroke="#404040"></path><path d="M28.4 62L36.4 80L54.6 47Z" fill="#2b2b2b" stroke="#2b2b2b"></path><path d="M36.4 80L25.2 83L28.4 104Z" fill="#323232" stroke="#323232"></path><path d="M28.4 104L18.2 99L30.4 122Z" fill="#555555" stroke="#555555"></path><path d="M28.4 62L54.6 47L39.4 26Z" fill="#474747" stroke="#474747"></path><path d="M337.6 126L324.4 121L317.4 145Z" fill="#323232" stroke="#323232"></path><path d="M324.4 121L332.4 119L317.2 109Z" fill="#393939" stroke="#393939"></path><path d="M19.2 169L26.4 153L0 154Z" fill="#404040" stroke="#404040"></path><path d="M28.2 134L26.4 153L46.4 153Z" fill="#323232" stroke="#323232"></path><path d="M306.2 48L308.2 26L292 32Z" fill="#4e4e4e" stroke="#4e4e4e"></path><path d="M328.4 69L306.2 48L308.2 68Z" fill="#393939" stroke="#393939"></path><path d="M42.4 216L50.6 205L25.2 189Z" fill="#555555" stroke="#555555"></path><path d="M43.4 187L50.6 205L72.8 190Z" fill="#111111" stroke="#111111"></path><path d="M341.6 88L328.4 69L315.4 95Z" fill="#1e1e1e" stroke="#1e1e1e"></path><path d="M39.4 26L58.6 44L67.8 10Z" fill="#2b2b2b" stroke="#2b2b2b"></path><path d="M28.4 62L27.2 64L36.4 80Z" fill="#252525" stroke="#252525"></path><path d="M0 81L18.2 99L25.2 83Z" fill="#474747" stroke="#474747"></path><path d="M25.2 83L18.2 99L28.4 104Z" fill="#252525" stroke="#252525"></path><path d="M308.2 26L300.2 9L292 32Z" fill="#111111" stroke="#111111"></path><path d="M344.6 147L337.6 126L317.4 145Z" fill="#404040" stroke="#404040"></path><path d="M332.4 119L341.6 88L317.2 109Z" fill="#474747" stroke="#474747"></path><path d="M344.6 147L317.4 145L318.4 160Z" fill="#4e4e4e" stroke="#4e4e4e"></path><path d="M28.4 62L10.2 59L27.2 64Z" fill="#4e4e4e" stroke="#4e4e4e"></path><path d="M60.6 0L56.6 6L67.8 10Z" fill="#323232" stroke="#323232"></path><path d="M70.8 0L60.6 0L67.8 10Z" fill="#474747" stroke="#474747"></path><path d="M42.4 13L39.4 26L56.6 6Z" fill="#323232" stroke="#323232"></path><path d="M56.6 6L39.4 26L67.8 10Z" fill="#1e1e1e" stroke="#1e1e1e"></path><path d="M319.4 14L300.2 9L308.2 26Z" fill="#393939" stroke="#393939"></path><path d="M319.4 14L299.2 0L300.2 9Z" fill="#474747" stroke="#474747"></path><path d="M300.2 9L299.2 0L286 15Z" fill="#323232" stroke="#323232"></path><path d="M356.6 110L341.6 88L332.4 119Z" fill="#1e1e1e" stroke="#1e1e1e"></path><path d="M328.4 69L336.4 55L306.2 48Z" fill="#404040" stroke="#404040"></path><path d="M38.4 0L42.4 13L56.6 6Z" fill="#181818" stroke="#181818"></path><path d="M16.2 25L10.2 59L28.4 62Z" fill="#2b2b2b" stroke="#2b2b2b"></path><path d="M311.2 216L299.2 197L295 207Z" fill="#404040" stroke="#404040"></path><path d="M26.4 153L19.2 169L40.4 173Z" fill="#555555" stroke="#555555"></path><path d="M8.2 137L26.4 153L28.2 134Z" fill="#2b2b2b" stroke="#2b2b2b"></path><path d="M350.6 76L336.4 55L328.4 69Z" fill="#555555" stroke="#555555"></path><path d="M292 216L311.2 216L295 207Z" fill="#393939" stroke="#393939"></path><path d="M25.2 189L50.6 205L43.4 187Z" fill="#2b2b2b" stroke="#2b2b2b"></path><path d="M50.6 205L42.4 216L65.6 216Z" fill="#474747" stroke="#474747"></path><path d="M19.2 169L25.2 189L40.4 173Z" fill="#252525" stroke="#252525"></path><path d="M350.6 174L344.6 147L318.4 160Z" fill="#2b2b2b" stroke="#2b2b2b"></path><path d="M374.8 92L350.6 76L341.6 88Z" fill="#555555" stroke="#555555"></path><path d="M0 113L30.4 122L18.2 99Z" fill="#181818" stroke="#181818"></path><path d="M0 113L8.2 137L30.4 122Z" fill="#181818" stroke="#181818"></path><path d="M0 170L14.2 199L25.2 189Z" fill="#252525" stroke="#252525"></path><path d="M342.6 197L330.4 189L325.4 191Z" fill="#181818" stroke="#181818"></path><path d="M325.4 191L330.4 189L318.4 160Z" fill="#474747" stroke="#474747"></path><path d="M336.4 35L319.4 14L308.2 26Z" fill="#1e1e1e" stroke="#1e1e1e"></path><path d="M16.2 25L28.4 62L39.4 26Z" fill="#4e4e4e" stroke="#4e4e4e"></path><path d="M27.2 64L10.2 59L25.2 83Z" fill="#555555" stroke="#555555"></path><path d="M346.6 55L336.4 35L336.4 55Z" fill="#404040" stroke="#404040"></path><path d="M336.4 55L336.4 35L306.2 48Z" fill="#555555" stroke="#555555"></path><path d="M356.6 110L332.4 119L337.6 126Z" fill="#252525" stroke="#252525"></path><path d="M341.6 88L350.6 76L328.4 69Z" fill="#1e1e1e" stroke="#1e1e1e"></path><path d="M0 81L0 113L18.2 99Z" fill="#555555" stroke="#555555"></path><path d="M8.2 137L0 153L26.4 153Z" fill="#2b2b2b" stroke="#2b2b2b"></path><path d="M350.6 76L346.6 55L336.4 55Z" fill="#1e1e1e" stroke="#1e1e1e"></path><path d="M42.4 13L16.2 25L39.4 26Z" fill="#181818" stroke="#181818"></path><path d="M60.6 0L38.4 0L56.6 6Z" fill="#4e4e4e" stroke="#4e4e4e"></path><path d="M0 113L0 137L8.2 137Z" fill="#181818" stroke="#181818"></path><path d="M364.8 114L356.6 110L337.6 126Z" fill="#1e1e1e" stroke="#1e1e1e"></path><path d="M10.2 59L0 81L25.2 83Z" fill="#181818" stroke="#181818"></path><path d="M311.2 216L325.4 216L325.4 191Z" fill="#2b2b2b" stroke="#2b2b2b"></path><path d="M330.4 189L350.6 174L318.4 160Z" fill="#252525" stroke="#252525"></path><path d="M362.8 147L364.8 114L337.6 126Z" fill="#474747" stroke="#474747"></path><path d="M0 137L0 153L8.2 137Z" fill="#181818" stroke="#181818"></path><path d="M25.2 189L14.2 199L42.4 216Z" fill="#404040" stroke="#404040"></path><path d="M0 153L0 154L26.4 153Z" fill="#393939" stroke="#393939"></path><path d="M12.2 16L16.2 25L42.4 13Z" fill="#181818" stroke="#181818"></path><path d="M10.2 59L0 63L0 81Z" fill="#4e4e4e" stroke="#4e4e4e"></path><path d="M342.6 197L350.6 174L330.4 189Z" fill="#555555" stroke="#555555"></path><path d="M0 53L0 63L10.2 59Z" fill="#474747" stroke="#474747"></path><path d="M350.6 174L356.6 155L344.6 147Z" fill="#555555" stroke="#555555"></path><path d="M0 170L25.2 189L19.2 169Z" fill="#252525" stroke="#252525"></path><path d="M325.4 216L342.6 197L325.4 191Z" fill="#111111" stroke="#111111"></path><path d="M344.6 25L325.4 0L319.4 14Z" fill="#111111" stroke="#111111"></path><path d="M319.4 14L325.4 0L299.2 0Z" fill="#474747" stroke="#474747"></path><path d="M343.6 26L319.4 14L336.4 35Z" fill="#404040" stroke="#404040"></path><path d="M0 154L0 170L19.2 169Z" fill="#252525" stroke="#252525"></path><path d="M0 37L0 53L10.2 59Z" fill="#111111" stroke="#111111"></path><path d="M344.6 25L343.6 26L369.8 38Z" fill="#323232" stroke="#323232"></path><path d="M346.6 55L343.6 26L336.4 35Z" fill="#555555" stroke="#555555"></path><path d="M366.8 66L346.6 55L350.6 76Z" fill="#404040" stroke="#404040"></path><path d="M362.8 147L337.6 126L344.6 147Z" fill="#555555" stroke="#555555"></path><path d="M374.8 92L366.8 66L350.6 76Z" fill="#111111" stroke="#111111"></path><path d="M365.8 166L362.8 147L356.6 155Z" fill="#474747" stroke="#474747"></path><path d="M356.6 155L362.8 147L344.6 147Z" fill="#2b2b2b" stroke="#2b2b2b"></path><path d="M365.8 166L356.6 155L350.6 174Z" fill="#181818" stroke="#181818"></path><path d="M369.8 38L343.6 26L346.6 55Z" fill="#181818" stroke="#181818"></path><path d="M343.6 26L344.6 25L319.4 14Z" fill="#252525" stroke="#252525"></path><path d="M38.4 0L12.2 16L42.4 13Z" fill="#323232" stroke="#323232"></path><path d="M16.2 25L0 37L10.2 59Z" fill="#181818" stroke="#181818"></path><path d="M342.6 197L358.8 176L350.6 174Z" fill="#323232" stroke="#323232"></path><path d="M0 18L0 37L16.2 25Z" fill="#474747" stroke="#474747"></path><path d="M374.8 92L341.6 88L356.6 110Z" fill="#323232" stroke="#323232"></path><path d="M0 206L11.2 216L14.2 199Z" fill="#393939" stroke="#393939"></path><path d="M14.2 199L11.2 216L42.4 216Z" fill="#2b2b2b" stroke="#2b2b2b"></path><path d="M358.8 176L365.8 166L350.6 174Z" fill="#2b2b2b" stroke="#2b2b2b"></path><path d="M362.8 147L374.8 131L364.8 114Z" fill="#4e4e4e" stroke="#4e4e4e"></path><path d="M364.8 114L374.8 92L356.6 110Z" fill="#4e4e4e" stroke="#4e4e4e"></path><path d="M384 142L374.8 131L362.8 147Z" fill="#252525" stroke="#252525"></path><path d="M384 119L374.8 92L364.8 114Z" fill="#474747" stroke="#474747"></path><path d="M0 170L0 206L14.2 199Z" fill="#1e1e1e" stroke="#1e1e1e"></path><path d="M8.2 0L0 18L12.2 16Z" fill="#474747" stroke="#474747"></path><path d="M12.2 16L0 18L16.2 25Z" fill="#393939" stroke="#393939"></path><path d="M384 52L369.8 49L366.8 66Z" fill="#393939" stroke="#393939"></path><path d="M366.8 66L369.8 49L346.6 55Z" fill="#181818" stroke="#181818"></path><path d="M344.6 25L350.6 0L325.4 0Z" fill="#393939" stroke="#393939"></path><path d="M384 179L384 169L365.8 166Z" fill="#111111" stroke="#111111"></path><path d="M384 123L384 119L374.8 131Z" fill="#181818" stroke="#181818"></path><path d="M342.6 197L355.8 209L358.8 176Z" fill="#393939" stroke="#393939"></path><path d="M325.4 216L355.8 209L342.6 197Z" fill="#252525" stroke="#252525"></path><path d="M38.4 0L8.2 0L12.2 16Z" fill="#181818" stroke="#181818"></path><path d="M0 206L0 216L11.2 216Z" fill="#1e1e1e" stroke="#1e1e1e"></path><path d="M384 42L369.8 38L369.8 49Z" fill="#323232" stroke="#323232"></path><path d="M369.8 49L369.8 38L346.6 55Z" fill="#404040" stroke="#404040"></path><path d="M372.8 11L350.6 0L344.6 25Z" fill="#474747" stroke="#474747"></path><path d="M374.8 131L384 119L364.8 114Z" fill="#474747" stroke="#474747"></path><path d="M374.8 92L384 78L366.8 66Z" fill="#555555" stroke="#555555"></path><path d="M384 123L374.8 131L384 142Z" fill="#2b2b2b" stroke="#2b2b2b"></path><path d="M384 142L362.8 147L365.8 166Z" fill="#393939" stroke="#393939"></path><path d="M325.4 216L356.6 216L355.8 209Z" fill="#4e4e4e" stroke="#4e4e4e"></path><path d="M384 179L365.8 166L358.8 176Z" fill="#555555" stroke="#555555"></path><path d="M384 169L384 142L365.8 166Z" fill="#181818" stroke="#181818"></path><path d="M384 119L384 82L374.8 92Z" fill="#404040" stroke="#404040"></path><path d="M356.6 216L358.8 216L355.8 209Z" fill="#2b2b2b" stroke="#2b2b2b"></path><path d="M384 82L384 78L374.8 92Z" fill="#181818" stroke="#181818"></path><path d="M8.2 0L0 0L0 18Z" fill="#555555" stroke="#555555"></path><path d="M384 179L358.8 176L384 208Z" fill="#2b2b2b" stroke="#2b2b2b"></path><path d="M384 78L384 52L366.8 66Z" fill="#393939" stroke="#393939"></path><path d="M369.8 38L372.8 11L344.6 25Z" fill="#111111" stroke="#111111"></path><path d="M384 208L358.8 176L355.8 209Z" fill="#4e4e4e" stroke="#4e4e4e"></path><path d="M384 52L384 42L369.8 49Z" fill="#323232" stroke="#323232"></path><path d="M384 13L372.8 11L369.8 38Z" fill="#2b2b2b" stroke="#2b2b2b"></path><path d="M372.8 11L368.8 0L350.6 0Z" fill="#2b2b2b" stroke="#2b2b2b"></path><path d="M358.8 216L384 208L355.8 209Z" fill="#4e4e4e" stroke="#4e4e4e"></path><path d="M384 42L384 13L369.8 38Z" fill="#252525" stroke="#252525"></path><path d="M372.8 11L384 0L368.8 0Z" fill="#181818" stroke="#181818"></path><path d="M358.8 216L384 216L384 208Z" fill="#555555" stroke="#555555"></path><path d="M384 13L384 0L372.8 11Z" fill="#4e4e4e" stroke="#4e4e4e"></path></g></svg>