<svg id="visual" viewBox="0 0 3840 2160" width="3840" height="2160" xmlns="http://www.w3.org/2000/svg" xmlns:xlink="http://www.w3.org/1999/xlink" version="1.1"><path d="M0 109L58.2 101.8C116.3 94.7 232.7 80.3 349 80.3C465.3 80.3 581.7 94.7 698 94.7C814.3 94.7 930.7 80.3 1047 76.7C1163.3 73 1279.7 80 1396 90.8C1512.3 101.7 1628.7 116.3 1745.2 109.2C1861.7 102 1978.3 73 2094.8 69.3C2211.3 65.7 2327.7 87.3 2444 91C2560.3 94.7 2676.7 80.3 2793 80.3C2909.3 80.3 3025.7 94.7 3142 98.2C3258.3 101.7 3374.7 94.3 3491 94.3C3607.3 94.3 3723.7 101.7 3781.8 105.3L3840 109L3840 0L3781.8 0C3723.7 0 3607.3 0 3491 0C3374.7 0 3258.3 0 3142 0C3025.7 0 2909.3 0 2793 0C2676.7 0 2560.3 0 2444 0C2327.7 0 2211.3 0 2094.8 0C1978.3 0 1861.7 0 1745.2 0C1628.7 0 1512.3 0 1396 0C1279.7 0 1163.3 0 1047 0C930.7 0 814.3 0 698 0C581.7 0 465.3 0 349 0C232.7 0 116.3 0 58.2 0L0 0Z" fill="#11111b"></path><path d="M0 174L58.2 163.2C116.3 152.3 232.7 130.7 349 130.7C465.3 130.7 581.7 152.3 698 152.3C814.3 152.3 930.7 130.7 1047 127C1163.3 123.3 1279.7 137.7 1396 152C1512.3 166.3 1628.7 180.7 1745.2 177.2C1861.7 173.7 1978.3 152.3 2094.8 152.3C2211.3 152.3 2327.7 173.7 2444 177.2C2560.3 180.7 2676.7 166.3 2793 166.3C2909.3 166.3 3025.7 180.7 3142 180.7C3258.3 180.7 3374.7 166.3 3491 159.2C3607.3 152 3723.7 152 3781.8 152L3840 152L3840 107L3781.8 103.3C3723.7 99.7 3607.3 92.3 3491 92.3C3374.7 92.3 3258.3 99.7 3142 96.2C3025.7 92.7 2909.3 78.3 2793 78.3C2676.7 78.3 2560.3 92.7 2444 89C2327.7 85.3 2211.3 63.7 2094.8 67.3C1978.3 71 1861.7 100 1745.2 107.2C1628.7 114.3 1512.3 99.7 1396 88.8C1279.7 78 1163.3 71 1047 74.7C930.7 78.3 814.3 92.7 698 92.7C581.7 92.7 465.3 78.3 349 78.3C232.7 78.3 116.3 92.7 58.2 99.8L0 107Z" fill="#1e212e"></path><path d="M0 239L58.2 228.2C116.3 217.3 232.7 195.7 349 195.7C465.3 195.7 581.7 217.3 698 220.8C814.3 224.3 930.7 209.7 1047 206C1163.3 202.3 1279.7 209.7 1396 220.5C1512.3 231.3 1628.7 245.7 1745.2 252.8C1861.7 260 1978.3 260 2094.8 267.2C2211.3 274.3 2327.7 288.7 2444 292.3C2560.3 296 2676.7 289 2793 292.7C2909.3 296.3 3025.7 310.7 3142 299.8C3258.3 289 3374.7 253 3491 235C3607.3 217 3723.7 217 3781.8 217L3840 217L3840 150L3781.8 150C3723.7 150 3607.3 150 3491 157.2C3374.7 164.3 3258.3 178.7 3142 178.7C3025.7 178.7 2909.3 164.3 2793 164.3C2676.7 164.3 2560.3 178.7 2444 175.2C2327.7 171.7 2211.3 150.3 2094.8 150.3C1978.3 150.3 1861.7 171.7 1745.2 175.2C1628.7 178.7 1512.3 164.3 1396 150C1279.7 135.7 1163.3 121.3 1047 125C930.7 128.7 814.3 150.3 698 150.3C581.7 150.3 465.3 128.7 349 128.7C232.7 128.7 116.3 150.3 58.2 161.2L0 172Z" fill="#2a3242"></path><path d="M0 368L58.2 360.8C116.3 353.7 232.7 339.3 349 346.5C465.3 353.7 581.7 382.3 698 389.5C814.3 396.7 930.7 382.3 1047 360.8C1163.3 339.3 1279.7 310.7 1396 314.3C1512.3 318 1628.7 354 1745.2 375.5C1861.7 397 1978.3 404 2094.8 411.2C2211.3 418.3 2327.7 425.7 2444 425.7C2560.3 425.7 2676.7 418.3 2793 414.7C2909.3 411 3025.7 411 3142 393C3258.3 375 3374.7 339 3491 328.3C3607.3 317.7 3723.7 332.3 3781.8 339.7L3840 347L3840 215L3781.8 215C3723.7 215 3607.3 215 3491 233C3374.7 251 3258.3 287 3142 297.8C3025.7 308.7 2909.3 294.3 2793 290.7C2676.7 287 2560.3 294 2444 290.3C2327.7 286.7 2211.3 272.3 2094.8 265.2C1978.3 258 1861.7 258 1745.2 250.8C1628.7 243.7 1512.3 229.3 1396 218.5C1279.7 207.7 1163.3 200.3 1047 204C930.7 207.7 814.3 222.3 698 218.8C581.7 215.3 465.3 193.7 349 193.7C232.7 193.7 116.3 215.3 58.2 226.2L0 237Z" fill="#354357"></path><path d="M0 563L58.2 566.5C116.3 570 232.7 577 349 580.5C465.3 584 581.7 584 698 584C814.3 584 930.7 584 1047 558.8C1163.3 533.7 1279.7 483.3 1396 487C1512.3 490.7 1628.7 548.3 1745.2 588C1861.7 627.7 1978.3 649.3 2094.8 649.3C2211.3 649.3 2327.7 627.7 2444 624C2560.3 620.3 2676.7 634.7 2793 623.8C2909.3 613 3025.7 577 3142 541C3258.3 505 3374.7 469 3491 461.8C3607.3 454.7 3723.7 476.3 3781.8 487.2L3840 498L3840 345L3781.8 337.7C3723.7 330.3 3607.3 315.7 3491 326.3C3374.7 337 3258.3 373 3142 391C3025.7 409 2909.3 409 2793 412.7C2676.7 416.3 2560.3 423.7 2444 423.7C2327.7 423.7 2211.3 416.3 2094.8 409.2C1978.3 402 1861.7 395 1745.2 373.5C1628.7 352 1512.3 316 1396 312.3C1279.7 308.7 1163.3 337.3 1047 358.8C930.7 380.3 814.3 394.7 698 387.5C581.7 380.3 465.3 351.7 349 344.5C232.7 337.3 116.3 351.7 58.2 358.8L0 366Z" fill="#40566d"></path><path d="M0 671L58.2 667.3C116.3 663.7 232.7 656.3 349 659.8C465.3 663.3 581.7 677.7 698 688.5C814.3 699.3 930.7 706.7 1047 685.2C1163.3 663.7 1279.7 613.3 1396 606.2C1512.3 599 1628.7 635 1745.2 660.2C1861.7 685.3 1978.3 699.7 2094.8 706.8C2211.3 714 2327.7 714 2444 714C2560.3 714 2676.7 714 2793 692.3C2909.3 670.7 3025.7 627.3 3142 594.8C3258.3 562.3 3374.7 540.7 3491 540.7C3607.3 540.7 3723.7 562.3 3781.8 573.2L3840 584L3840 496L3781.8 485.2C3723.7 474.3 3607.3 452.7 3491 459.8C3374.7 467 3258.3 503 3142 539C3025.7 575 2909.3 611 2793 621.8C2676.7 632.7 2560.3 618.3 2444 622C2327.7 625.7 2211.3 647.3 2094.8 647.3C1978.3 647.3 1861.7 625.7 1745.2 586C1628.7 546.3 1512.3 488.7 1396 485C1279.7 481.3 1163.3 531.7 1047 556.8C930.7 582 814.3 582 698 582C581.7 582 465.3 582 349 578.5C232.7 575 116.3 568 58.2 564.5L0 561Z" fill="#4a6a83"></path><path d="M0 951L58.2 922.3C116.3 893.7 232.7 836.3 349 822C465.3 807.7 581.7 836.3 698 872.3C814.3 908.3 930.7 951.7 1047 919.3C1163.3 887 1279.7 779 1396 775.3C1512.3 771.7 1628.7 872.3 1745.2 919C1861.7 965.7 1978.3 958.3 2094.8 954.7C2211.3 951 2327.7 951 2444 943.8C2560.3 936.7 2676.7 922.3 2793 879.2C2909.3 836 3025.7 764 3142 746C3258.3 728 3374.7 764 3491 796.5C3607.3 829 3723.7 858 3781.8 872.5L3840 887L3840 582L3781.8 571.2C3723.7 560.3 3607.3 538.7 3491 538.7C3374.7 538.7 3258.3 560.3 3142 592.8C3025.7 625.3 2909.3 668.7 2793 690.3C2676.7 712 2560.3 712 2444 712C2327.7 712 2211.3 712 2094.8 704.8C1978.3 697.7 1861.7 683.3 1745.2 658.2C1628.7 633 1512.3 597 1396 604.2C1279.7 611.3 1163.3 661.7 1047 683.2C930.7 704.7 814.3 697.3 698 686.5C581.7 675.7 465.3 661.3 349 657.8C232.7 654.3 116.3 661.7 58.2 665.3L0 669Z" fill="#547e99"></path><path d="M0 1081L58.2 1059.3C116.3 1037.7 232.7 994.3 349 980C465.3 965.7 581.7 980.3 698 1020C814.3 1059.7 930.7 1124.3 1047 1102.7C1163.3 1081 1279.7 973 1396 951.3C1512.3 929.7 1628.7 994.3 1745.2 1037.5C1861.7 1080.7 1978.3 1102.3 2094.8 1109.7C2211.3 1117 2327.7 1110 2444 1088.5C2560.3 1067 2676.7 1031 2793 995C2909.3 959 3025.7 923 3142 926.5C3258.3 930 3374.7 973 3491 1001.7C3607.3 1030.3 3723.7 1044.7 3781.8 1051.8L3840 1059L3840 885L3781.8 870.5C3723.7 856 3607.3 827 3491 794.5C3374.7 762 3258.3 726 3142 744C3025.7 762 2909.3 834 2793 877.2C2676.7 920.3 2560.3 934.7 2444 941.8C2327.7 949 2211.3 949 2094.8 952.7C1978.3 956.3 1861.7 963.7 1745.2 917C1628.7 870.3 1512.3 769.7 1396 773.3C1279.7 777 1163.3 885 1047 917.3C930.7 949.7 814.3 906.3 698 870.3C581.7 834.3 465.3 805.7 349 820C232.7 834.3 116.3 891.7 58.2 920.3L0 949Z" fill="#5d94af"></path><path d="M0 1167L58.2 1152.7C116.3 1138.3 232.7 1109.7 349 1088.2C465.3 1066.7 581.7 1052.3 698 1077.5C814.3 1102.7 930.7 1167.3 1047 1149.3C1163.3 1131.3 1279.7 1030.7 1396 1012.7C1512.3 994.7 1628.7 1059.3 1745.2 1113.3C1861.7 1167.3 1978.3 1210.7 2094.8 1228.7C2211.3 1246.7 2327.7 1239.3 2444 1217.7C2560.3 1196 2676.7 1160 2793 1113.2C2909.3 1066.3 3025.7 1008.7 3142 1008.7C3258.3 1008.7 3374.7 1066.3 3491 1095.2C3607.3 1124 3723.7 1124 3781.8 1124L3840 1124L3840 1057L3781.8 1049.8C3723.7 1042.7 3607.3 1028.3 3491 999.7C3374.7 971 3258.3 928 3142 924.5C3025.7 921 2909.3 957 2793 993C2676.7 1029 2560.3 1065 2444 1086.5C2327.7 1108 2211.3 1115 2094.8 1107.7C1978.3 1100.3 1861.7 1078.7 1745.2 1035.5C1628.7 992.3 1512.3 927.7 1396 949.3C1279.7 971 1163.3 1079 1047 1100.7C930.7 1122.3 814.3 1057.7 698 1018C581.7 978.3 465.3 963.7 349 978C232.7 992.3 116.3 1035.7 58.2 1057.3L0 1079Z" fill="#67a9c4"></path><path d="M0 1448L58.2 1469.7C116.3 1491.3 232.7 1534.7 349 1513.2C465.3 1491.7 581.7 1405.3 698 1401.7C814.3 1398 930.7 1477 1047 1477C1163.3 1477 1279.7 1398 1396 1362C1512.3 1326 1628.7 1333 1745.2 1379.7C1861.7 1426.3 1978.3 1512.7 2094.8 1581.2C2211.3 1649.7 2327.7 1700.3 2444 1671.7C2560.3 1643 2676.7 1535 2793 1513.3C2909.3 1491.7 3025.7 1556.3 3142 1606.7C3258.3 1657 3374.7 1693 3491 1685.8C3607.3 1678.7 3723.7 1628.3 3781.8 1603.2L3840 1578L3840 1122L3781.8 1122C3723.7 1122 3607.3 1122 3491 1093.2C3374.7 1064.3 3258.3 1006.7 3142 1006.7C3025.7 1006.7 2909.3 1064.3 2793 1111.2C2676.7 1158 2560.3 1194 2444 1215.7C2327.7 1237.3 2211.3 1244.7 2094.8 1226.7C1978.3 1208.7 1861.7 1165.3 1745.2 1111.3C1628.7 1057.3 1512.3 992.7 1396 1010.7C1279.7 1028.7 1163.3 1129.3 1047 1147.3C930.7 1165.3 814.3 1100.7 698 1075.5C581.7 1050.3 465.3 1064.7 349 1086.2C232.7 1107.7 116.3 1136.3 58.2 1150.7L0 1165Z" fill="#71c0d8"></path><path d="M0 1578L58.2 1599.5C116.3 1621 232.7 1664 349 1660.3C465.3 1656.7 581.7 1606.3 698 1602.8C814.3 1599.3 930.7 1642.7 1047 1635.5C1163.3 1628.3 1279.7 1570.7 1396 1534.7C1512.3 1498.7 1628.7 1484.3 1745.2 1516.7C1861.7 1549 1978.3 1628 2094.8 1703.5C2211.3 1779 2327.7 1851 2444 1843.8C2560.3 1836.7 2676.7 1750.3 2793 1725.2C2909.3 1700 3025.7 1736 3142 1775.7C3258.3 1815.3 3374.7 1858.7 3491 1847.8C3607.3 1837 3723.7 1772 3781.8 1739.5L3840 1707L3840 1576L3781.8 1601.2C3723.7 1626.3 3607.3 1676.7 3491 1683.8C3374.7 1691 3258.3 1655 3142 1604.7C3025.7 1554.3 2909.3 1489.7 2793 1511.3C2676.7 1533 2560.3 1641 2444 1669.7C2327.7 1698.3 2211.3 1647.7 2094.8 1579.2C1978.3 1510.7 1861.7 1424.3 1745.2 1377.7C1628.7 1331 1512.3 1324 1396 1360C1279.7 1396 1163.3 1475 1047 1475C930.7 1475 814.3 1396 698 1399.7C581.7 1403.3 465.3 1489.7 349 1511.2C232.7 1532.7 116.3 1489.3 58.2 1467.7L0 1446Z" fill="#7cd7ec"></path><path d="M0 2161L58.2 2161C116.3 2161 232.7 2161 349 2161C465.3 2161 581.7 2161 698 2161C814.3 2161 930.7 2161 1047 2161C1163.3 2161 1279.7 2161 1396 2161C1512.3 2161 1628.7 2161 1745.2 2161C1861.7 2161 1978.3 2161 2094.8 2161C2211.3 2161 2327.7 2161 2444 2161C2560.3 2161 2676.7 2161 2793 2161C2909.3 2161 3025.7 2161 3142 2161C3258.3 2161 3374.7 2161 3491 2161C3607.3 2161 3723.7 2161 3781.8 2161L3840 2161L3840 1705L3781.8 1737.5C3723.7 1770 3607.3 1835 3491 1845.8C3374.7 1856.7 3258.3 1813.3 3142 1773.7C3025.7 1734 2909.3 1698 2793 1723.2C2676.7 1748.3 2560.3 1834.7 2444 1841.8C2327.7 1849 2211.3 1777 2094.8 1701.5C1978.3 1626 1861.7 1547 1745.2 1514.7C1628.7 1482.3 1512.3 1496.7 1396 1532.7C1279.7 1568.7 1163.3 1626.3 1047 1633.5C930.7 1640.7 814.3 1597.3 698 1600.8C581.7 1604.3 465.3 1654.7 349 1658.3C232.7 1662 116.3 1619 58.2 1597.5L0 1576Z" fill="#88eeff"></path></svg>