<svg id="visual" viewBox="0 0 3840 2160" width="3840" height="2160" xmlns="http://www.w3.org/2000/svg" xmlns:xlink="http://www.w3.org/1999/xlink" version="1.1"><g stroke-width="1" stroke-linejoin="bevel"><path d="M1827.1 1116L1982.9 1259L2039.9 1106Z" fill="#2e2f42" stroke="#2e2f42"></path><path d="M1827.1 1116L1756.1 1329L1982.9 1259Z" fill="#8283b3" stroke="#8283b3"></path><path d="M2304.8 1347L2214.8 1036L2039.9 1106Z" fill="#bbbbff" stroke="#bbbbff"></path><path d="M2039.9 1106L1761.1 845L1827.1 1116Z" fill="#6f719b" stroke="#6f719b"></path><path d="M1756.1 1329L1844.1 1479L1982.9 1259Z" fill="#a7a8e5" stroke="#a7a8e5"></path><path d="M1982.9 1259L2304.8 1347L2039.9 1106Z" fill="#8283b3" stroke="#8283b3"></path><path d="M1844.1 1479L2065.9 1478L1982.9 1259Z" fill="#9495cc" stroke="#9495cc"></path><path d="M2083.9 827L1761.1 845L2039.9 1106Z" fill="#2e2f42" stroke="#2e2f42"></path><path d="M1827.1 1116L1546.2 1247L1756.1 1329Z" fill="#8283b3" stroke="#8283b3"></path><path d="M2214.8 1036L2083.9 827L2039.9 1106Z" fill="#11111b" stroke="#11111b"></path><path d="M1761.1 845L1571.2 1032L1827.1 1116Z" fill="#bbbbff" stroke="#bbbbff"></path><path d="M1756.1 1329L1632.2 1477L1844.1 1479Z" fill="#6f719b" stroke="#6f719b"></path><path d="M1571.2 1032L1546.2 1247L1827.1 1116Z" fill="#9495cc" stroke="#9495cc"></path><path d="M2065.9 1478L2304.8 1347L1982.9 1259Z" fill="#4d4f6d" stroke="#4d4f6d"></path><path d="M2486.7 1072L2240.8 839L2214.8 1036Z" fill="#11111b" stroke="#11111b"></path><path d="M2214.8 1036L2240.8 839L2083.9 827Z" fill="#5e6084" stroke="#5e6084"></path><path d="M1546.2 1247L1632.2 1477L1756.1 1329Z" fill="#6f719b" stroke="#6f719b"></path><path d="M2083.9 827L1777.1 700L1761.1 845Z" fill="#9495cc" stroke="#9495cc"></path><path d="M1761.1 845L1579.2 831L1571.2 1032Z" fill="#5e6084" stroke="#5e6084"></path><path d="M2060.9 650L1777.1 700L2083.9 827Z" fill="#a7a8e5" stroke="#a7a8e5"></path><path d="M1777.1 700L1579.2 831L1761.1 845Z" fill="#5e6084" stroke="#5e6084"></path><path d="M1571.2 1032L1371.3 1102L1546.2 1247Z" fill="#6f719b" stroke="#6f719b"></path><path d="M2227.8 1727L2271.8 1504L2065.9 1478Z" fill="#8283b3" stroke="#8283b3"></path><path d="M2065.9 1478L2271.8 1504L2304.8 1347Z" fill="#5e6084" stroke="#5e6084"></path><path d="M2038.9 1722L2065.9 1478L1844.1 1479Z" fill="#11111b" stroke="#11111b"></path><path d="M2205.8 653L2060.9 650L2083.9 827Z" fill="#a7a8e5" stroke="#a7a8e5"></path><path d="M2530.7 1249L2486.7 1072L2304.8 1347Z" fill="#1f202e" stroke="#1f202e"></path><path d="M2304.8 1347L2486.7 1072L2214.8 1036Z" fill="#bbbbff" stroke="#bbbbff"></path><path d="M2240.8 839L2205.8 653L2083.9 827Z" fill="#11111b" stroke="#11111b"></path><path d="M1632.2 1477L1846.1 1707L1844.1 1479Z" fill="#1f202e" stroke="#1f202e"></path><path d="M1373.3 813L1371.3 1102L1571.2 1032Z" fill="#a7a8e5" stroke="#a7a8e5"></path><path d="M1403.3 1675L1597.2 1687L1632.2 1477Z" fill="#1f202e" stroke="#1f202e"></path><path d="M2502.7 607L2205.8 653L2240.8 839Z" fill="#4d4f6d" stroke="#4d4f6d"></path><path d="M1846.1 1707L2038.9 1722L1844.1 1479Z" fill="#4d4f6d" stroke="#4d4f6d"></path><path d="M2512.7 1472L2530.7 1249L2304.8 1347Z" fill="#2e2f42" stroke="#2e2f42"></path><path d="M1352.3 1485L1632.2 1477L1546.2 1247Z" fill="#8283b3" stroke="#8283b3"></path><path d="M1632.2 1477L1597.2 1687L1846.1 1707Z" fill="#11111b" stroke="#11111b"></path><path d="M2038.9 1722L2227.8 1727L2065.9 1478Z" fill="#3d3f57" stroke="#3d3f57"></path><path d="M2271.8 1504L2512.7 1472L2304.8 1347Z" fill="#8283b3" stroke="#8283b3"></path><path d="M2720.6 1114L2516.7 874L2486.7 1072Z" fill="#1f202e" stroke="#1f202e"></path><path d="M2486.7 1072L2516.7 874L2240.8 839Z" fill="#3d3f57" stroke="#3d3f57"></path><path d="M1371.3 1102L1305.3 1341L1546.2 1247Z" fill="#bbbbff" stroke="#bbbbff"></path><path d="M1547.2 623L1373.3 813L1579.2 831Z" fill="#2e2f42" stroke="#2e2f42"></path><path d="M1579.2 831L1373.3 813L1571.2 1032Z" fill="#4d4f6d" stroke="#4d4f6d"></path><path d="M1371.3 1102L1147.4 1117L1305.3 1341Z" fill="#4d4f6d" stroke="#4d4f6d"></path><path d="M1631.2 405L1547.2 623L1777.1 700Z" fill="#9495cc" stroke="#9495cc"></path><path d="M1777.1 700L1547.2 623L1579.2 831Z" fill="#a7a8e5" stroke="#a7a8e5"></path><path d="M2039.9 485L1777.1 700L2060.9 650Z" fill="#2e2f42" stroke="#2e2f42"></path><path d="M2445.7 1746L2512.7 1472L2271.8 1504Z" fill="#4d4f6d" stroke="#4d4f6d"></path><path d="M1305.3 1341L1352.3 1485L1546.2 1247Z" fill="#1f202e" stroke="#1f202e"></path><path d="M2278.8 468L2039.9 485L2205.8 653Z" fill="#11111b" stroke="#11111b"></path><path d="M2205.8 653L2039.9 485L2060.9 650Z" fill="#1f202e" stroke="#1f202e"></path><path d="M1167.4 1505L1403.3 1675L1352.3 1485Z" fill="#11111b" stroke="#11111b"></path><path d="M1352.3 1485L1403.3 1675L1632.2 1477Z" fill="#1f202e" stroke="#1f202e"></path><path d="M1597.2 1687L1779.1 1946L1846.1 1707Z" fill="#3d3f57" stroke="#3d3f57"></path><path d="M1846.1 1707L1779.1 1946L2038.9 1722Z" fill="#6f719b" stroke="#6f719b"></path><path d="M1547.2 623L1363.3 655L1373.3 813Z" fill="#8283b3" stroke="#8283b3"></path><path d="M1114.4 909L1147.4 1117L1371.3 1102Z" fill="#4d4f6d" stroke="#4d4f6d"></path><path d="M1368.3 431L1363.3 655L1547.2 623Z" fill="#6f719b" stroke="#6f719b"></path><path d="M2502.7 607L2278.8 468L2205.8 653Z" fill="#4d4f6d" stroke="#4d4f6d"></path><path d="M2231.8 1956L2445.7 1746L2227.8 1727Z" fill="#bbbbff" stroke="#bbbbff"></path><path d="M2227.8 1727L2445.7 1746L2271.8 1504Z" fill="#11111b" stroke="#11111b"></path><path d="M2732.6 1264L2530.7 1249L2512.7 1472Z" fill="#1f202e" stroke="#1f202e"></path><path d="M2732.6 1264L2720.6 1114L2530.7 1249Z" fill="#4d4f6d" stroke="#4d4f6d"></path><path d="M2530.7 1249L2720.6 1114L2486.7 1072Z" fill="#6f719b" stroke="#6f719b"></path><path d="M2516.7 874L2502.7 607L2240.8 839Z" fill="#9495cc" stroke="#9495cc"></path><path d="M2740.6 674L2502.7 607L2516.7 874Z" fill="#8283b3" stroke="#8283b3"></path><path d="M1114.4 909L1371.3 1102L1373.3 813Z" fill="#9495cc" stroke="#9495cc"></path><path d="M1305.3 1341L1167.4 1505L1352.3 1485Z" fill="#1f202e" stroke="#1f202e"></path><path d="M1769.1 220L1774.1 379L2028.9 198Z" fill="#8283b3" stroke="#8283b3"></path><path d="M2039.9 485L1774.1 379L1777.1 700Z" fill="#3d3f57" stroke="#3d3f57"></path><path d="M2705.6 1546L2732.6 1264L2512.7 1472Z" fill="#4d4f6d" stroke="#4d4f6d"></path><path d="M1582.2 1997L1779.1 1946L1597.2 1687Z" fill="#8283b3" stroke="#8283b3"></path><path d="M2038.9 1722L2083.9 1958L2227.8 1727Z" fill="#bbbbff" stroke="#bbbbff"></path><path d="M1774.1 379L1631.2 405L1777.1 700Z" fill="#9495cc" stroke="#9495cc"></path><path d="M1779.1 1946L2083.9 1958L2038.9 1722Z" fill="#1f202e" stroke="#1f202e"></path><path d="M1147.4 1117L1105.4 1301L1305.3 1341Z" fill="#6f719b" stroke="#6f719b"></path><path d="M1105.4 1301L1167.4 1505L1305.3 1341Z" fill="#5e6084" stroke="#5e6084"></path><path d="M1403.3 1675L1582.2 1997L1597.2 1687Z" fill="#11111b" stroke="#11111b"></path><path d="M2083.9 1958L2231.8 1956L2227.8 1727Z" fill="#5e6084" stroke="#5e6084"></path><path d="M1158.4 601L1114.4 909L1373.3 813Z" fill="#bbbbff" stroke="#bbbbff"></path><path d="M1147.4 1117L944.5 1051L1105.4 1301Z" fill="#a7a8e5" stroke="#a7a8e5"></path><path d="M2693.6 1729L2512.7 1472L2445.7 1746Z" fill="#4d4f6d" stroke="#4d4f6d"></path><path d="M2693.6 1729L2705.6 1546L2512.7 1472Z" fill="#8283b3" stroke="#8283b3"></path><path d="M2916.5 1113L2750.6 827L2720.6 1114Z" fill="#a7a8e5" stroke="#a7a8e5"></path><path d="M2720.6 1114L2750.6 827L2516.7 874Z" fill="#6f719b" stroke="#6f719b"></path><path d="M2502.7 607L2467.7 433L2278.8 468Z" fill="#bbbbff" stroke="#bbbbff"></path><path d="M2028.9 198L1774.1 379L2039.9 485Z" fill="#2e2f42" stroke="#2e2f42"></path><path d="M2697.6 431L2467.7 433L2502.7 607Z" fill="#4d4f6d" stroke="#4d4f6d"></path><path d="M1315.3 1898L1582.2 1997L1403.3 1675Z" fill="#2e2f42" stroke="#2e2f42"></path><path d="M1779.1 1946L2001.9 2160L2083.9 1958Z" fill="#bbbbff" stroke="#bbbbff"></path><path d="M2083.9 1958L2291.8 2160L2231.8 1956Z" fill="#bbbbff" stroke="#bbbbff"></path><path d="M1550.2 269L1368.3 431L1631.2 405Z" fill="#3d3f57" stroke="#3d3f57"></path><path d="M1631.2 405L1368.3 431L1547.2 623Z" fill="#a7a8e5" stroke="#a7a8e5"></path><path d="M1363.3 655L1158.4 601L1373.3 813Z" fill="#1f202e" stroke="#1f202e"></path><path d="M2750.6 827L2740.6 674L2516.7 874Z" fill="#4d4f6d" stroke="#4d4f6d"></path><path d="M2028.9 198L2039.9 485L2278.8 468Z" fill="#2e2f42" stroke="#2e2f42"></path><path d="M1774.1 379L1769.1 220L1631.2 405Z" fill="#8283b3" stroke="#8283b3"></path><path d="M2291.8 2160L2443.7 1958L2231.8 1956Z" fill="#6f719b" stroke="#6f719b"></path><path d="M2231.8 1956L2443.7 1958L2445.7 1746Z" fill="#3d3f57" stroke="#3d3f57"></path><path d="M2443.7 1958L2693.6 1729L2445.7 1746Z" fill="#bbbbff" stroke="#bbbbff"></path><path d="M2963.5 1329L2916.5 1113L2732.6 1264Z" fill="#4d4f6d" stroke="#4d4f6d"></path><path d="M1368.3 431L1158.4 601L1363.3 655Z" fill="#4d4f6d" stroke="#4d4f6d"></path><path d="M2267.8 181L2028.9 198L2278.8 468Z" fill="#bbbbff" stroke="#bbbbff"></path><path d="M1769.1 220L1550.2 269L1631.2 405Z" fill="#4d4f6d" stroke="#4d4f6d"></path><path d="M948.5 423L949.5 633L1158.4 601Z" fill="#11111b" stroke="#11111b"></path><path d="M1112.4 1742L1315.3 1898L1403.3 1675Z" fill="#1f202e" stroke="#1f202e"></path><path d="M2963.5 1329L2732.6 1264L2919.5 1529Z" fill="#3d3f57" stroke="#3d3f57"></path><path d="M2732.6 1264L2916.5 1113L2720.6 1114Z" fill="#a7a8e5" stroke="#a7a8e5"></path><path d="M2750.6 827L2894.5 681L2740.6 674Z" fill="#a7a8e5" stroke="#a7a8e5"></path><path d="M860.5 812L944.5 1051L1114.4 909Z" fill="#11111b" stroke="#11111b"></path><path d="M1114.4 909L944.5 1051L1147.4 1117Z" fill="#11111b" stroke="#11111b"></path><path d="M915.5 1524L1112.4 1742L1167.4 1505Z" fill="#5e6084" stroke="#5e6084"></path><path d="M1167.4 1505L1112.4 1742L1403.3 1675Z" fill="#9495cc" stroke="#9495cc"></path><path d="M1818.1 2160L1779.1 1946L1619.2 2160Z" fill="#3d3f57" stroke="#3d3f57"></path><path d="M1818.1 2160L2001.9 2160L1779.1 1946Z" fill="#6f719b" stroke="#6f719b"></path><path d="M915.5 1524L1167.4 1505L1105.4 1301Z" fill="#9495cc" stroke="#9495cc"></path><path d="M1619.2 2160L1779.1 1946L1582.2 1997Z" fill="#9495cc" stroke="#9495cc"></path><path d="M2467.7 433L2267.8 181L2278.8 468Z" fill="#bbbbff" stroke="#bbbbff"></path><path d="M2459.7 174L2267.8 181L2467.7 433Z" fill="#1f202e" stroke="#1f202e"></path><path d="M2919.5 1529L2732.6 1264L2705.6 1546Z" fill="#5e6084" stroke="#5e6084"></path><path d="M944.5 1051L896.5 1278L1105.4 1301Z" fill="#6f719b" stroke="#6f719b"></path><path d="M2894.5 392L2697.6 431L2740.6 674Z" fill="#8283b3" stroke="#8283b3"></path><path d="M2740.6 674L2697.6 431L2502.7 607Z" fill="#9495cc" stroke="#9495cc"></path><path d="M2907.5 1768L2919.5 1529L2705.6 1546Z" fill="#6f719b" stroke="#6f719b"></path><path d="M2907.5 1768L2705.6 1546L2693.6 1729Z" fill="#9495cc" stroke="#9495cc"></path><path d="M1324.3 2160L1582.2 1997L1315.3 1898Z" fill="#4d4f6d" stroke="#4d4f6d"></path><path d="M1324.3 2160L1619.2 2160L1582.2 1997Z" fill="#8283b3" stroke="#8283b3"></path><path d="M2001.9 2160L2291.8 2160L2083.9 1958Z" fill="#1f202e" stroke="#1f202e"></path><path d="M2443.7 1958L2755.6 1894L2693.6 1729Z" fill="#a7a8e5" stroke="#a7a8e5"></path><path d="M2981.5 814L2750.6 827L2916.5 1113Z" fill="#3d3f57" stroke="#3d3f57"></path><path d="M2981.5 814L2894.5 681L2750.6 827Z" fill="#8283b3" stroke="#8283b3"></path><path d="M896.5 1278L915.5 1524L1105.4 1301Z" fill="#5e6084" stroke="#5e6084"></path><path d="M3189.4 903L2981.5 814L2916.5 1113Z" fill="#9495cc" stroke="#9495cc"></path><path d="M2685.6 2160L2755.6 1894L2443.7 1958Z" fill="#4d4f6d" stroke="#4d4f6d"></path><path d="M2687.6 247L2459.7 174L2467.7 433Z" fill="#3d3f57" stroke="#3d3f57"></path><path d="M1090.4 397L1158.4 601L1368.3 431Z" fill="#8283b3" stroke="#8283b3"></path><path d="M1158.4 601L949.5 633L1114.4 909Z" fill="#a7a8e5" stroke="#a7a8e5"></path><path d="M944.5 1051L727.6 1306L896.5 1278Z" fill="#9495cc" stroke="#9495cc"></path><path d="M933.5 1942L1144.4 1941L1112.4 1742Z" fill="#6f719b" stroke="#6f719b"></path><path d="M1112.4 1742L1144.4 1941L1315.3 1898Z" fill="#6f719b" stroke="#6f719b"></path><path d="M1553.2 0L1404.3 167L1550.2 269Z" fill="#bbbbff" stroke="#bbbbff"></path><path d="M1550.2 269L1404.3 167L1368.3 431Z" fill="#2e2f42" stroke="#2e2f42"></path><path d="M1553.2 0L1550.2 269L1769.1 220Z" fill="#6f719b" stroke="#6f719b"></path><path d="M1796.1 0L1769.1 220L2028.9 198Z" fill="#8283b3" stroke="#8283b3"></path><path d="M2004.9 0L2028.9 198L2224.8 0Z" fill="#4d4f6d" stroke="#4d4f6d"></path><path d="M949.5 633L860.5 812L1114.4 909Z" fill="#9495cc" stroke="#9495cc"></path><path d="M630.6 1520L892.5 1717L915.5 1524Z" fill="#1f202e" stroke="#1f202e"></path><path d="M1173.4 200L1090.4 397L1368.3 431Z" fill="#6f719b" stroke="#6f719b"></path><path d="M3185.4 1285L2916.5 1113L2963.5 1329Z" fill="#3d3f57" stroke="#3d3f57"></path><path d="M2755.6 1894L2907.5 1768L2693.6 1729Z" fill="#8283b3" stroke="#8283b3"></path><path d="M2224.8 0L2028.9 198L2267.8 181Z" fill="#a7a8e5" stroke="#a7a8e5"></path><path d="M2004.9 0L1796.1 0L2028.9 198Z" fill="#bbbbff" stroke="#bbbbff"></path><path d="M2291.8 2160L2523.7 2160L2443.7 1958Z" fill="#2e2f42" stroke="#2e2f42"></path><path d="M2755.6 1894L2950.5 1912L2907.5 1768Z" fill="#3d3f57" stroke="#3d3f57"></path><path d="M1144.4 1941L1324.3 2160L1315.3 1898Z" fill="#bbbbff" stroke="#bbbbff"></path><path d="M2697.6 431L2687.6 247L2467.7 433Z" fill="#bbbbff" stroke="#bbbbff"></path><path d="M2479.7 0L2224.8 0L2267.8 181Z" fill="#a7a8e5" stroke="#a7a8e5"></path><path d="M2894.5 392L2687.6 247L2697.6 431Z" fill="#6f719b" stroke="#6f719b"></path><path d="M2894.5 392L2740.6 674L2894.5 681Z" fill="#11111b" stroke="#11111b"></path><path d="M915.5 1524L892.5 1717L1112.4 1742Z" fill="#bbbbff" stroke="#bbbbff"></path><path d="M1144.4 1941L1077.4 2160L1324.3 2160Z" fill="#3d3f57" stroke="#3d3f57"></path><path d="M727.6 1306L915.5 1524L896.5 1278Z" fill="#5e6084" stroke="#5e6084"></path><path d="M2479.7 0L2267.8 181L2459.7 174Z" fill="#9495cc" stroke="#9495cc"></path><path d="M1796.1 0L1553.2 0L1769.1 220Z" fill="#6f719b" stroke="#6f719b"></path><path d="M1404.3 167L1173.4 200L1368.3 431Z" fill="#a7a8e5" stroke="#a7a8e5"></path><path d="M630.6 1032L727.6 1306L944.5 1051Z" fill="#9495cc" stroke="#9495cc"></path><path d="M1356.3 0L1173.4 200L1404.3 167Z" fill="#a7a8e5" stroke="#a7a8e5"></path><path d="M1090.4 397L948.5 423L1158.4 601Z" fill="#a7a8e5" stroke="#a7a8e5"></path><path d="M3121.4 659L2894.5 392L2894.5 681Z" fill="#3d3f57" stroke="#3d3f57"></path><path d="M881.5 198L948.5 423L1090.4 397Z" fill="#1f202e" stroke="#1f202e"></path><path d="M627.6 683L623.6 911L860.5 812Z" fill="#a7a8e5" stroke="#a7a8e5"></path><path d="M860.5 812L630.6 1032L944.5 1051Z" fill="#2e2f42" stroke="#2e2f42"></path><path d="M3185.4 1285L2963.5 1329L3213.4 1465Z" fill="#bbbbff" stroke="#bbbbff"></path><path d="M3185.4 1285L3174.4 1085L2916.5 1113Z" fill="#5e6084" stroke="#5e6084"></path><path d="M2981.5 814L3121.4 659L2894.5 681Z" fill="#6f719b" stroke="#6f719b"></path><path d="M2523.7 2160L2685.6 2160L2443.7 1958Z" fill="#3d3f57" stroke="#3d3f57"></path><path d="M3213.4 1465L2963.5 1329L2919.5 1529Z" fill="#bbbbff" stroke="#bbbbff"></path><path d="M3213.4 1465L2919.5 1529L3135.4 1760Z" fill="#4d4f6d" stroke="#4d4f6d"></path><path d="M2900.5 2160L2950.5 1912L2755.6 1894Z" fill="#9495cc" stroke="#9495cc"></path><path d="M640.6 1968L933.5 1942L892.5 1717Z" fill="#a7a8e5" stroke="#a7a8e5"></path><path d="M892.5 1717L933.5 1942L1112.4 1742Z" fill="#3d3f57" stroke="#3d3f57"></path><path d="M2670.6 0L2479.7 0L2459.7 174Z" fill="#2e2f42" stroke="#2e2f42"></path><path d="M2670.6 0L2459.7 174L2687.6 247Z" fill="#9495cc" stroke="#9495cc"></path><path d="M3336.2 666L3189.4 903L3393.2 821Z" fill="#bbbbff" stroke="#bbbbff"></path><path d="M3174.4 1085L3189.4 903L2916.5 1113Z" fill="#1f202e" stroke="#1f202e"></path><path d="M3189.4 903L3121.4 659L2981.5 814Z" fill="#9495cc" stroke="#9495cc"></path><path d="M1553.2 0L1356.3 0L1404.3 167Z" fill="#5e6084" stroke="#5e6084"></path><path d="M625.6 381L949.5 633L948.5 423Z" fill="#9495cc" stroke="#9495cc"></path><path d="M623.6 911L630.6 1032L860.5 812Z" fill="#8283b3" stroke="#8283b3"></path><path d="M727.6 1306L630.6 1520L915.5 1524Z" fill="#bbbbff" stroke="#bbbbff"></path><path d="M3135.4 1760L2919.5 1529L2907.5 1768Z" fill="#6f719b" stroke="#6f719b"></path><path d="M3423.2 1030L3189.4 903L3174.4 1085Z" fill="#5e6084" stroke="#5e6084"></path><path d="M933.5 1942L1077.4 2160L1144.4 1941Z" fill="#bbbbff" stroke="#bbbbff"></path><path d="M627.6 683L860.5 812L949.5 633Z" fill="#8283b3" stroke="#8283b3"></path><path d="M2950.5 1912L3135.4 1760L2907.5 1768Z" fill="#8283b3" stroke="#8283b3"></path><path d="M3187.4 1972L3135.4 1760L2950.5 1912Z" fill="#11111b" stroke="#11111b"></path><path d="M481.8 1112L727.6 1306L630.6 1032Z" fill="#8283b3" stroke="#8283b3"></path><path d="M479.8 1280L630.6 1520L727.6 1306Z" fill="#8283b3" stroke="#8283b3"></path><path d="M933.5 1942L949.5 2160L1077.4 2160Z" fill="#5e6084" stroke="#5e6084"></path><path d="M2897.5 172L2687.6 247L2894.5 392Z" fill="#4d4f6d" stroke="#4d4f6d"></path><path d="M2897.5 172L2670.6 0L2687.6 247Z" fill="#6f719b" stroke="#6f719b"></path><path d="M3125.4 225L2897.5 172L2894.5 392Z" fill="#1f202e" stroke="#1f202e"></path><path d="M625.6 381L627.6 683L949.5 633Z" fill="#a7a8e5" stroke="#a7a8e5"></path><path d="M881.5 198L1090.4 397L1173.4 200Z" fill="#8283b3" stroke="#8283b3"></path><path d="M2685.6 2160L2900.5 2160L2755.6 1894Z" fill="#bbbbff" stroke="#bbbbff"></path><path d="M3336.2 666L3132.4 420L3121.4 659Z" fill="#4d4f6d" stroke="#4d4f6d"></path><path d="M3121.4 659L3132.4 420L2894.5 392Z" fill="#5e6084" stroke="#5e6084"></path><path d="M640.6 1968L949.5 2160L933.5 1942Z" fill="#6f719b" stroke="#6f719b"></path><path d="M1356.3 0L1107.4 0L1173.4 200Z" fill="#11111b" stroke="#11111b"></path><path d="M1107.4 0L881.5 198L1173.4 200Z" fill="#bbbbff" stroke="#bbbbff"></path><path d="M630.6 1520L631.6 1734L892.5 1717Z" fill="#2e2f42" stroke="#2e2f42"></path><path d="M411.8 1715L631.6 1734L630.6 1520Z" fill="#6f719b" stroke="#6f719b"></path><path d="M483.8 896L630.6 1032L623.6 911Z" fill="#11111b" stroke="#11111b"></path><path d="M483.8 896L481.8 1112L630.6 1032Z" fill="#2e2f42" stroke="#2e2f42"></path><path d="M481.8 1112L479.8 1280L727.6 1306Z" fill="#2e2f42" stroke="#2e2f42"></path><path d="M627.6 683L483.8 896L623.6 911Z" fill="#bbbbff" stroke="#bbbbff"></path><path d="M264.9 1496L398.8 1533L479.8 1280Z" fill="#5e6084" stroke="#5e6084"></path><path d="M431.8 607L483.8 896L627.6 683Z" fill="#11111b" stroke="#11111b"></path><path d="M3423.2 1030L3174.4 1085L3185.4 1285Z" fill="#bbbbff" stroke="#bbbbff"></path><path d="M3189.4 903L3336.2 666L3121.4 659Z" fill="#11111b" stroke="#11111b"></path><path d="M3426.2 1334L3185.4 1285L3213.4 1465Z" fill="#6f719b" stroke="#6f719b"></path><path d="M3426.2 1334L3423.2 1030L3185.4 1285Z" fill="#1f202e" stroke="#1f202e"></path><path d="M2900.5 2160L3187.4 1972L2950.5 1912Z" fill="#9495cc" stroke="#9495cc"></path><path d="M3384.2 1679L3379.2 1552L3213.4 1465Z" fill="#6f719b" stroke="#6f719b"></path><path d="M3423.2 1030L3393.2 821L3189.4 903Z" fill="#11111b" stroke="#11111b"></path><path d="M3384.2 1679L3213.4 1465L3135.4 1760Z" fill="#bbbbff" stroke="#bbbbff"></path><path d="M3379.2 1552L3426.2 1334L3213.4 1465Z" fill="#5e6084" stroke="#5e6084"></path><path d="M3132.4 420L3125.4 225L2894.5 392Z" fill="#6f719b" stroke="#6f719b"></path><path d="M2897.5 172L2986.5 0L2670.6 0Z" fill="#bbbbff" stroke="#bbbbff"></path><path d="M3367.2 417L3125.4 225L3132.4 420Z" fill="#bbbbff" stroke="#bbbbff"></path><path d="M677.6 218L625.6 381L881.5 198Z" fill="#2e2f42" stroke="#2e2f42"></path><path d="M881.5 198L625.6 381L948.5 423Z" fill="#3d3f57" stroke="#3d3f57"></path><path d="M1107.4 0L942.5 0L881.5 198Z" fill="#11111b" stroke="#11111b"></path><path d="M484.8 1941L640.6 1968L631.6 1734Z" fill="#2e2f42" stroke="#2e2f42"></path><path d="M631.6 1734L640.6 1968L892.5 1717Z" fill="#6f719b" stroke="#6f719b"></path><path d="M3361.2 1940L3384.2 1679L3135.4 1760Z" fill="#2e2f42" stroke="#2e2f42"></path><path d="M3379.2 1552L3571.1 1543L3426.2 1334Z" fill="#5e6084" stroke="#5e6084"></path><path d="M3125.4 225L2986.5 0L2897.5 172Z" fill="#4d4f6d" stroke="#4d4f6d"></path><path d="M709.6 0L677.6 218L881.5 198Z" fill="#4d4f6d" stroke="#4d4f6d"></path><path d="M236.9 1047L479.8 1280L481.8 1112Z" fill="#bbbbff" stroke="#bbbbff"></path><path d="M479.8 1280L398.8 1533L630.6 1520Z" fill="#2e2f42" stroke="#2e2f42"></path><path d="M457.8 402L431.8 607L625.6 381Z" fill="#1f202e" stroke="#1f202e"></path><path d="M625.6 381L431.8 607L627.6 683Z" fill="#5e6084" stroke="#5e6084"></path><path d="M483.8 896L236.9 1047L481.8 1112Z" fill="#4d4f6d" stroke="#4d4f6d"></path><path d="M2900.5 2160L3189.4 2160L3187.4 1972Z" fill="#9495cc" stroke="#9495cc"></path><path d="M3187.4 1972L3361.2 1940L3135.4 1760Z" fill="#bbbbff" stroke="#bbbbff"></path><path d="M3648.1 685L3367.2 417L3336.2 666Z" fill="#1f202e" stroke="#1f202e"></path><path d="M3336.2 666L3367.2 417L3132.4 420Z" fill="#8283b3" stroke="#8283b3"></path><path d="M3125.4 225L3188.4 0L2986.5 0Z" fill="#a7a8e5" stroke="#a7a8e5"></path><path d="M3648.1 685L3336.2 666L3393.2 821Z" fill="#2e2f42" stroke="#2e2f42"></path><path d="M398.8 1533L411.8 1715L630.6 1520Z" fill="#5e6084" stroke="#5e6084"></path><path d="M3189.4 2160L3361.2 1940L3187.4 1972Z" fill="#8283b3" stroke="#8283b3"></path><path d="M3384.2 1679L3571.1 1543L3379.2 1552Z" fill="#2e2f42" stroke="#2e2f42"></path><path d="M490.8 2160L637.6 2160L640.6 1968Z" fill="#9495cc" stroke="#9495cc"></path><path d="M640.6 1968L637.6 2160L949.5 2160Z" fill="#6f719b" stroke="#6f719b"></path><path d="M411.8 1715L484.8 1941L631.6 1734Z" fill="#9495cc" stroke="#9495cc"></path><path d="M481.8 269L457.8 402L625.6 381Z" fill="#3d3f57" stroke="#3d3f57"></path><path d="M3579.1 1738L3571.1 1543L3384.2 1679Z" fill="#6f719b" stroke="#6f719b"></path><path d="M3648.1 1124L3601.1 875L3423.2 1030Z" fill="#bbbbff" stroke="#bbbbff"></path><path d="M3423.2 1030L3601.1 875L3393.2 821Z" fill="#11111b" stroke="#11111b"></path><path d="M942.5 0L709.6 0L881.5 198Z" fill="#bbbbff" stroke="#bbbbff"></path><path d="M677.6 218L481.8 269L625.6 381Z" fill="#bbbbff" stroke="#bbbbff"></path><path d="M3648.1 1124L3423.2 1030L3426.2 1334Z" fill="#6f719b" stroke="#6f719b"></path><path d="M242.9 641L483.8 896L431.8 607Z" fill="#11111b" stroke="#11111b"></path><path d="M188.9 857L236.9 1047L483.8 896Z" fill="#6f719b" stroke="#6f719b"></path><path d="M398.8 1533L255.9 1763L411.8 1715Z" fill="#6f719b" stroke="#6f719b"></path><path d="M496.8 0L481.8 269L677.6 218Z" fill="#3d3f57" stroke="#3d3f57"></path><path d="M224.9 434L242.9 641L431.8 607Z" fill="#bbbbff" stroke="#bbbbff"></path><path d="M3416.2 173L3125.4 225L3367.2 417Z" fill="#1f202e" stroke="#1f202e"></path><path d="M3416.2 173L3188.4 0L3125.4 225Z" fill="#11111b" stroke="#11111b"></path><path d="M176.9 1329L264.9 1496L479.8 1280Z" fill="#9495cc" stroke="#9495cc"></path><path d="M261.9 1937L490.8 2160L484.8 1941Z" fill="#bbbbff" stroke="#bbbbff"></path><path d="M3665.1 1288L3648.1 1124L3426.2 1334Z" fill="#2e2f42" stroke="#2e2f42"></path><path d="M3571.1 1543L3665.1 1288L3426.2 1334Z" fill="#6f719b" stroke="#6f719b"></path><path d="M3361.2 1940L3579.1 1738L3384.2 1679Z" fill="#a7a8e5" stroke="#a7a8e5"></path><path d="M3840 1346L3840 1123L3665.1 1288Z" fill="#11111b" stroke="#11111b"></path><path d="M3591.1 1986L3579.1 1738L3361.2 1940Z" fill="#11111b" stroke="#11111b"></path><path d="M261.9 1937L484.8 1941L411.8 1715Z" fill="#8283b3" stroke="#8283b3"></path><path d="M484.8 1941L490.8 2160L640.6 1968Z" fill="#1f202e" stroke="#1f202e"></path><path d="M236.9 1047L176.9 1329L479.8 1280Z" fill="#2e2f42" stroke="#2e2f42"></path><path d="M264.9 1496L255.9 1763L398.8 1533Z" fill="#11111b" stroke="#11111b"></path><path d="M224.9 434L431.8 607L457.8 402Z" fill="#8283b3" stroke="#8283b3"></path><path d="M236.9 1047L0 1042L176.9 1329Z" fill="#3d3f57" stroke="#3d3f57"></path><path d="M242.9 641L188.9 857L483.8 896Z" fill="#4d4f6d" stroke="#4d4f6d"></path><path d="M3840 813L3648.1 685L3601.1 875Z" fill="#2e2f42" stroke="#2e2f42"></path><path d="M3601.1 875L3648.1 685L3393.2 821Z" fill="#2e2f42" stroke="#2e2f42"></path><path d="M3840 1123L3601.1 875L3648.1 1124Z" fill="#3d3f57" stroke="#3d3f57"></path><path d="M3593.1 258L3416.2 173L3367.2 417Z" fill="#3d3f57" stroke="#3d3f57"></path><path d="M3189.4 2160L3407.2 2160L3361.2 1940Z" fill="#4d4f6d" stroke="#4d4f6d"></path><path d="M0 1529L255.9 1763L264.9 1496Z" fill="#11111b" stroke="#11111b"></path><path d="M3416.2 173L3356.2 0L3188.4 0Z" fill="#8283b3" stroke="#8283b3"></path><path d="M3641.1 0L3356.2 0L3416.2 173Z" fill="#11111b" stroke="#11111b"></path><path d="M709.6 0L496.8 0L677.6 218Z" fill="#bbbbff" stroke="#bbbbff"></path><path d="M208.9 206L224.9 434L457.8 402Z" fill="#3d3f57" stroke="#3d3f57"></path><path d="M255.9 1763L261.9 1937L411.8 1715Z" fill="#3d3f57" stroke="#3d3f57"></path><path d="M0 1909L261.9 1937L255.9 1763Z" fill="#2e2f42" stroke="#2e2f42"></path><path d="M3407.2 2160L3591.1 1986L3361.2 1940Z" fill="#5e6084" stroke="#5e6084"></path><path d="M3840 1346L3665.1 1288L3840 1534Z" fill="#bbbbff" stroke="#bbbbff"></path><path d="M208.9 206L457.8 402L481.8 269Z" fill="#2e2f42" stroke="#2e2f42"></path><path d="M0 842L0 1042L188.9 857Z" fill="#11111b" stroke="#11111b"></path><path d="M3840 478L3642.1 397L3648.1 685Z" fill="#9495cc" stroke="#9495cc"></path><path d="M3648.1 685L3642.1 397L3367.2 417Z" fill="#11111b" stroke="#11111b"></path><path d="M3642.1 397L3593.1 258L3367.2 417Z" fill="#2e2f42" stroke="#2e2f42"></path><path d="M3665.1 1288L3571.1 1543L3840 1534Z" fill="#a7a8e5" stroke="#a7a8e5"></path><path d="M3665.1 1288L3840 1123L3648.1 1124Z" fill="#5e6084" stroke="#5e6084"></path><path d="M3840 1534L3571.1 1543L3840 1718Z" fill="#6f719b" stroke="#6f719b"></path><path d="M3840 1123L3840 813L3601.1 875Z" fill="#1f202e" stroke="#1f202e"></path><path d="M3642.1 397L3840 259L3593.1 258Z" fill="#2e2f42" stroke="#2e2f42"></path><path d="M0 842L188.9 857L0 694Z" fill="#11111b" stroke="#11111b"></path><path d="M188.9 857L0 1042L236.9 1047Z" fill="#3d3f57" stroke="#3d3f57"></path><path d="M176.9 1329L0 1529L264.9 1496Z" fill="#1f202e" stroke="#1f202e"></path><path d="M0 1042L0 1309L176.9 1329Z" fill="#3d3f57" stroke="#3d3f57"></path><path d="M3840 1718L3571.1 1543L3579.1 1738Z" fill="#6f719b" stroke="#6f719b"></path><path d="M3407.2 2160L3609.1 2160L3591.1 1986Z" fill="#4d4f6d" stroke="#4d4f6d"></path><path d="M3840 1908L3840 1718L3579.1 1738Z" fill="#6f719b" stroke="#6f719b"></path><path d="M0 694L188.9 857L242.9 641Z" fill="#11111b" stroke="#11111b"></path><path d="M496.8 0L208.9 206L481.8 269Z" fill="#8283b3" stroke="#8283b3"></path><path d="M0 442L0 694L242.9 641Z" fill="#2e2f42" stroke="#2e2f42"></path><path d="M0 1309L0 1529L176.9 1329Z" fill="#a7a8e5" stroke="#a7a8e5"></path><path d="M3840 813L3840 617L3648.1 685Z" fill="#1f202e" stroke="#1f202e"></path><path d="M3840 1908L3579.1 1738L3591.1 1986Z" fill="#11111b" stroke="#11111b"></path><path d="M0 1909L221.9 2160L261.9 1937Z" fill="#3d3f57" stroke="#3d3f57"></path><path d="M261.9 1937L221.9 2160L490.8 2160Z" fill="#bbbbff" stroke="#bbbbff"></path><path d="M0 442L242.9 641L224.9 434Z" fill="#9495cc" stroke="#9495cc"></path><path d="M3840 617L3840 478L3648.1 685Z" fill="#2e2f42" stroke="#2e2f42"></path><path d="M3593.1 258L3641.1 0L3416.2 173Z" fill="#2e2f42" stroke="#2e2f42"></path><path d="M0 1529L0 1740L255.9 1763Z" fill="#3d3f57" stroke="#3d3f57"></path><path d="M3840 2160L3840 1908L3591.1 1986Z" fill="#2e2f42" stroke="#2e2f42"></path><path d="M3840 259L3641.1 0L3593.1 258Z" fill="#8283b3" stroke="#8283b3"></path><path d="M208.9 206L0 442L224.9 434Z" fill="#3d3f57" stroke="#3d3f57"></path><path d="M0 1740L0 1909L255.9 1763Z" fill="#5e6084" stroke="#5e6084"></path><path d="M496.8 0L195.9 0L208.9 206Z" fill="#3d3f57" stroke="#3d3f57"></path><path d="M208.9 206L0 191L0 442Z" fill="#11111b" stroke="#11111b"></path><path d="M3840 478L3840 259L3642.1 397Z" fill="#5e6084" stroke="#5e6084"></path><path d="M3609.1 2160L3840 2160L3591.1 1986Z" fill="#9495cc" stroke="#9495cc"></path><path d="M195.9 0L0 191L208.9 206Z" fill="#4d4f6d" stroke="#4d4f6d"></path><path d="M0 1909L0 2160L221.9 2160Z" fill="#8283b3" stroke="#8283b3"></path><path d="M3840 259L3840 0L3641.1 0Z" fill="#9495cc" stroke="#9495cc"></path><path d="M195.9 0L0 0L0 191Z" fill="#4d4f6d" stroke="#4d4f6d"></path></g></svg>