<svg id="visual" viewBox="0 0 1920 1080" width="1920" height="1080" xmlns="http://www.w3.org/2000/svg" xmlns:xlink="http://www.w3.org/1999/xlink" version="1.1"><g stroke-width="4" stroke-linejoin="bevel"><path d="M985 539L977 701L1066.1 545Z" fill="#445e76" stroke="#11111b"></path><path d="M977 701L1104.1 712L1066.1 545Z" fill="#38495e" stroke="#11111b"></path><path d="M977 701L1096.1 774L1104.1 712Z" fill="#445e76" stroke="#11111b"></path><path d="M977 701L991 790L1096.1 774Z" fill="#2c3546" stroke="#11111b"></path><path d="M1246.3 647L1204.3 573L1104.1 712Z" fill="#1f2330" stroke="#11111b"></path><path d="M1104.1 712L1204.3 573L1066.1 545Z" fill="#6fbbd4" stroke="#11111b"></path><path d="M985 539L827.9 660L977 701Z" fill="#5a8ba6" stroke="#11111b"></path><path d="M977 701L843.9 805L991 790Z" fill="#64a3be" stroke="#11111b"></path><path d="M939 409L854.9 515L985 539Z" fill="#38495e" stroke="#11111b"></path><path d="M985 539L854.9 515L827.9 660Z" fill="#64a3be" stroke="#11111b"></path><path d="M1103.1 388L985 539L1066.1 545Z" fill="#88eeff" stroke="#11111b"></path><path d="M1103.1 388L939 409L985 539Z" fill="#64a3be" stroke="#11111b"></path><path d="M1220.3 777L1246.3 647L1104.1 712Z" fill="#11111b" stroke="#11111b"></path><path d="M1234.3 368L1103.1 388L1204.3 573Z" fill="#445e76" stroke="#11111b"></path><path d="M1204.3 573L1103.1 388L1066.1 545Z" fill="#11111b" stroke="#11111b"></path><path d="M1123.1 930L1220.3 777L1096.1 774Z" fill="#38495e" stroke="#11111b"></path><path d="M1096.1 774L1220.3 777L1104.1 712Z" fill="#4f748e" stroke="#11111b"></path><path d="M827.9 660L843.9 805L977 701Z" fill="#4f748e" stroke="#11111b"></path><path d="M991 790L1123.1 930L1096.1 774Z" fill="#7bd4ea" stroke="#11111b"></path><path d="M939 409L846.9 400L854.9 515Z" fill="#5a8ba6" stroke="#11111b"></path><path d="M685.7 526L706.7 683L827.9 660Z" fill="#4f748e" stroke="#11111b"></path><path d="M835.9 281L846.9 400L939 409Z" fill="#5a8ba6" stroke="#11111b"></path><path d="M685.7 526L827.9 660L854.9 515Z" fill="#2c3546" stroke="#11111b"></path><path d="M827.9 660L706.7 683L843.9 805Z" fill="#88eeff" stroke="#11111b"></path><path d="M1355.4 666L1340.4 572L1246.3 647Z" fill="#2c3546" stroke="#11111b"></path><path d="M1246.3 647L1340.4 572L1204.3 573Z" fill="#5a8ba6" stroke="#11111b"></path><path d="M928 976L1123.1 930L991 790Z" fill="#1f2330" stroke="#11111b"></path><path d="M1340.4 572L1234.3 368L1204.3 573Z" fill="#38495e" stroke="#11111b"></path><path d="M1103.1 388L1062.1 258L939 409Z" fill="#2c3546" stroke="#11111b"></path><path d="M1404.4 807L1355.4 666L1220.3 777Z" fill="#4f748e" stroke="#11111b"></path><path d="M1220.3 777L1355.4 666L1246.3 647Z" fill="#445e76" stroke="#11111b"></path><path d="M675.7 432L685.7 526L854.9 515Z" fill="#64a3be" stroke="#11111b"></path><path d="M852.9 957L928 976L843.9 805Z" fill="#445e76" stroke="#11111b"></path><path d="M843.9 805L928 976L991 790Z" fill="#4f748e" stroke="#11111b"></path><path d="M1196.3 263L1062.1 258L1103.1 388Z" fill="#6fbbd4" stroke="#11111b"></path><path d="M670.7 944L852.9 957L843.9 805Z" fill="#2c3546" stroke="#11111b"></path><path d="M1062.1 258L979 246L939 409Z" fill="#2c3546" stroke="#11111b"></path><path d="M846.9 400L675.7 432L854.9 515Z" fill="#11111b" stroke="#11111b"></path><path d="M979 246L835.9 281L939 409Z" fill="#11111b" stroke="#11111b"></path><path d="M835.9 281L675.7 432L846.9 400Z" fill="#4f748e" stroke="#11111b"></path><path d="M1234.3 368L1196.3 263L1103.1 388Z" fill="#5a8ba6" stroke="#11111b"></path><path d="M1062.1 258L977 151L979 246Z" fill="#38495e" stroke="#11111b"></path><path d="M1348.4 296L1196.3 263L1234.3 368Z" fill="#6fbbd4" stroke="#11111b"></path><path d="M1245.3 1080L1264.3 944L1123.1 930Z" fill="#88eeff" stroke="#11111b"></path><path d="M1123.1 930L1264.3 944L1220.3 777Z" fill="#2c3546" stroke="#11111b"></path><path d="M566.6 702L663.7 838L706.7 683Z" fill="#88eeff" stroke="#11111b"></path><path d="M706.7 683L663.7 838L843.9 805Z" fill="#1f2330" stroke="#11111b"></path><path d="M566.6 702L706.7 683L685.7 526Z" fill="#64a3be" stroke="#11111b"></path><path d="M1492.6 556L1391.4 417L1340.4 572Z" fill="#5a8ba6" stroke="#11111b"></path><path d="M1340.4 572L1391.4 417L1234.3 368Z" fill="#6fbbd4" stroke="#11111b"></path><path d="M1375.4 922L1404.4 807L1220.3 777Z" fill="#445e76" stroke="#11111b"></path><path d="M1355.4 666L1492.6 556L1340.4 572Z" fill="#5a8ba6" stroke="#11111b"></path><path d="M523.6 515L566.6 702L685.7 526Z" fill="#38495e" stroke="#11111b"></path><path d="M934 1080L1082.1 1080L928 976Z" fill="#38495e" stroke="#11111b"></path><path d="M928 976L1082.1 1080L1123.1 930Z" fill="#4f748e" stroke="#11111b"></path><path d="M1391.4 417L1348.4 296L1234.3 368Z" fill="#2c3546" stroke="#11111b"></path><path d="M1379.4 1080L1375.4 922L1264.3 944Z" fill="#38495e" stroke="#11111b"></path><path d="M1264.3 944L1375.4 922L1220.3 777Z" fill="#6fbbd4" stroke="#11111b"></path><path d="M826.9 1080L928 976L852.9 957Z" fill="#6fbbd4" stroke="#11111b"></path><path d="M826.9 1080L934 1080L928 976Z" fill="#4f748e" stroke="#11111b"></path><path d="M1081.1 109L977 151L1062.1 258Z" fill="#11111b" stroke="#11111b"></path><path d="M979 246L977 151L835.9 281Z" fill="#11111b" stroke="#11111b"></path><path d="M1081.1 109L1062.1 258L1196.3 263Z" fill="#1f2330" stroke="#11111b"></path><path d="M544.6 970L670.7 944L663.7 838Z" fill="#7bd4ea" stroke="#11111b"></path><path d="M663.7 838L670.7 944L843.9 805Z" fill="#6fbbd4" stroke="#11111b"></path><path d="M1540.6 693L1355.4 666L1404.4 807Z" fill="#6fbbd4" stroke="#11111b"></path><path d="M1540.6 693L1492.6 556L1355.4 666Z" fill="#64a3be" stroke="#11111b"></path><path d="M1391.4 417L1542.6 280L1348.4 296Z" fill="#64a3be" stroke="#11111b"></path><path d="M715.7 1080L826.9 1080L852.9 957Z" fill="#2c3546" stroke="#11111b"></path><path d="M665.7 270L582.6 381L675.7 432Z" fill="#7bd4ea" stroke="#11111b"></path><path d="M675.7 432L523.6 515L685.7 526Z" fill="#64a3be" stroke="#11111b"></path><path d="M665.7 270L675.7 432L835.9 281Z" fill="#6fbbd4" stroke="#11111b"></path><path d="M709.7 155L665.7 270L835.9 281Z" fill="#5a8ba6" stroke="#11111b"></path><path d="M582.6 381L523.6 515L675.7 432Z" fill="#5a8ba6" stroke="#11111b"></path><path d="M1082.1 1080L1245.3 1080L1123.1 930Z" fill="#38495e" stroke="#11111b"></path><path d="M1264.3 101L1081.1 109L1196.3 263Z" fill="#1f2330" stroke="#11111b"></path><path d="M807.9 102L709.7 155L835.9 281Z" fill="#5a8ba6" stroke="#11111b"></path><path d="M437.4 787L533.6 822L566.6 702Z" fill="#4f748e" stroke="#11111b"></path><path d="M566.6 702L533.6 822L663.7 838Z" fill="#1f2330" stroke="#11111b"></path><path d="M1527.6 821L1540.6 693L1404.4 807Z" fill="#7bd4ea" stroke="#11111b"></path><path d="M1506.6 912L1527.6 821L1404.4 807Z" fill="#7bd4ea" stroke="#11111b"></path><path d="M1506.6 912L1404.4 807L1375.4 922Z" fill="#64a3be" stroke="#11111b"></path><path d="M1667.7 513L1531.6 423L1492.6 556Z" fill="#445e76" stroke="#11111b"></path><path d="M1492.6 556L1531.6 423L1391.4 417Z" fill="#445e76" stroke="#11111b"></path><path d="M1348.4 296L1264.3 101L1196.3 263Z" fill="#11111b" stroke="#11111b"></path><path d="M544.6 970L715.7 1080L670.7 944Z" fill="#38495e" stroke="#11111b"></path><path d="M670.7 944L715.7 1080L852.9 957Z" fill="#88eeff" stroke="#11111b"></path><path d="M665.7 270L551.6 287L582.6 381Z" fill="#88eeff" stroke="#11111b"></path><path d="M807.9 102L835.9 281L977 151Z" fill="#6fbbd4" stroke="#11111b"></path><path d="M943 0L807.9 102L977 151Z" fill="#4f748e" stroke="#11111b"></path><path d="M1379.4 1080L1506.6 912L1375.4 922Z" fill="#445e76" stroke="#11111b"></path><path d="M1389.4 148L1264.3 101L1348.4 296Z" fill="#445e76" stroke="#11111b"></path><path d="M1081.1 109L943 0L977 151Z" fill="#1f2330" stroke="#11111b"></path><path d="M548.6 162L551.6 287L665.7 270Z" fill="#6fbbd4" stroke="#11111b"></path><path d="M385.4 396L402.4 527L523.6 515Z" fill="#445e76" stroke="#11111b"></path><path d="M1245.3 1080L1379.4 1080L1264.3 944Z" fill="#7bd4ea" stroke="#11111b"></path><path d="M533.6 822L544.6 970L663.7 838Z" fill="#4f748e" stroke="#11111b"></path><path d="M1542.6 280L1389.4 148L1348.4 296Z" fill="#38495e" stroke="#11111b"></path><path d="M1614.7 789L1619.7 695L1540.6 693Z" fill="#11111b" stroke="#11111b"></path><path d="M1540.6 693L1619.7 695L1492.6 556Z" fill="#1f2330" stroke="#11111b"></path><path d="M1614.7 789L1540.6 693L1527.6 821Z" fill="#7bd4ea" stroke="#11111b"></path><path d="M385.4 649L437.4 787L566.6 702Z" fill="#6fbbd4" stroke="#11111b"></path><path d="M533.6 822L375.4 943L544.6 970Z" fill="#64a3be" stroke="#11111b"></path><path d="M385.4 649L566.6 702L523.6 515Z" fill="#2c3546" stroke="#11111b"></path><path d="M1607.7 945L1614.7 789L1527.6 821Z" fill="#88eeff" stroke="#11111b"></path><path d="M1607.7 945L1527.6 821L1506.6 912Z" fill="#1f2330" stroke="#11111b"></path><path d="M1196.3 0L1081.1 109L1264.3 101Z" fill="#1f2330" stroke="#11111b"></path><path d="M1196.3 0L1068.1 0L1081.1 109Z" fill="#88eeff" stroke="#11111b"></path><path d="M385.4 396L523.6 515L582.6 381Z" fill="#5a8ba6" stroke="#11111b"></path><path d="M1531.6 423L1542.6 280L1391.4 417Z" fill="#64a3be" stroke="#11111b"></path><path d="M1682.7 399L1542.6 280L1531.6 423Z" fill="#4f748e" stroke="#11111b"></path><path d="M1068.1 0L943 0L1081.1 109Z" fill="#6fbbd4" stroke="#11111b"></path><path d="M807.9 102L669.7 0L709.7 155Z" fill="#11111b" stroke="#11111b"></path><path d="M402.4 527L385.4 649L523.6 515Z" fill="#445e76" stroke="#11111b"></path><path d="M1404.4 0L1196.3 0L1264.3 101Z" fill="#5a8ba6" stroke="#11111b"></path><path d="M943 0L808.9 0L807.9 102Z" fill="#5a8ba6" stroke="#11111b"></path><path d="M709.7 155L548.6 162L665.7 270Z" fill="#1f2330" stroke="#11111b"></path><path d="M1788.9 566L1667.7 513L1619.7 695Z" fill="#64a3be" stroke="#11111b"></path><path d="M1619.7 695L1667.7 513L1492.6 556Z" fill="#2c3546" stroke="#11111b"></path><path d="M669.7 0L548.6 162L709.7 155Z" fill="#64a3be" stroke="#11111b"></path><path d="M551.6 287L433.4 306L582.6 381Z" fill="#11111b" stroke="#11111b"></path><path d="M548.6 162L433.4 306L551.6 287Z" fill="#6fbbd4" stroke="#11111b"></path><path d="M1520.6 1080L1607.7 945L1506.6 912Z" fill="#38495e" stroke="#11111b"></path><path d="M1802.9 694L1788.9 566L1619.7 695Z" fill="#2c3546" stroke="#11111b"></path><path d="M433.4 306L385.4 396L582.6 381Z" fill="#38495e" stroke="#11111b"></path><path d="M263.3 558L299.3 662L385.4 649Z" fill="#11111b" stroke="#11111b"></path><path d="M1379.4 1080L1520.6 1080L1506.6 912Z" fill="#4f748e" stroke="#11111b"></path><path d="M445.4 1080L514.6 1080L544.6 970Z" fill="#4f748e" stroke="#11111b"></path><path d="M544.6 970L514.6 1080L715.7 1080Z" fill="#5a8ba6" stroke="#11111b"></path><path d="M375.4 943L533.6 822L437.4 787Z" fill="#38495e" stroke="#11111b"></path><path d="M1542.6 280L1502.6 140L1389.4 148Z" fill="#445e76" stroke="#11111b"></path><path d="M1389.4 148L1404.4 0L1264.3 101Z" fill="#88eeff" stroke="#11111b"></path><path d="M1620.7 144L1502.6 140L1542.6 280Z" fill="#4f748e" stroke="#11111b"></path><path d="M1667.7 513L1682.7 399L1531.6 423Z" fill="#2c3546" stroke="#11111b"></path><path d="M255.3 239L385.4 396L433.4 306Z" fill="#7bd4ea" stroke="#11111b"></path><path d="M808.9 0L669.7 0L807.9 102Z" fill="#445e76" stroke="#11111b"></path><path d="M299.3 802L437.4 787L385.4 649Z" fill="#64a3be" stroke="#11111b"></path><path d="M299.3 802L375.4 943L437.4 787Z" fill="#4f748e" stroke="#11111b"></path><path d="M263.3 558L385.4 649L402.4 527Z" fill="#6fbbd4" stroke="#11111b"></path><path d="M1502.6 140L1404.4 0L1389.4 148Z" fill="#88eeff" stroke="#11111b"></path><path d="M375.4 943L445.4 1080L544.6 970Z" fill="#4f748e" stroke="#11111b"></path><path d="M299.3 662L299.3 802L385.4 649Z" fill="#5a8ba6" stroke="#11111b"></path><path d="M375.4 943L274.3 977L445.4 1080Z" fill="#11111b" stroke="#11111b"></path><path d="M1682.7 399L1665.7 238L1542.6 280Z" fill="#5a8ba6" stroke="#11111b"></path><path d="M1502.6 140L1545.6 0L1404.4 0Z" fill="#64a3be" stroke="#11111b"></path><path d="M268.3 396L402.4 527L385.4 396Z" fill="#2c3546" stroke="#11111b"></path><path d="M268.3 396L263.3 558L402.4 527Z" fill="#2c3546" stroke="#11111b"></path><path d="M299.3 662L166.1 679L299.3 802Z" fill="#6fbbd4" stroke="#11111b"></path><path d="M1520.6 1080L1632.7 1080L1607.7 945Z" fill="#4f748e" stroke="#11111b"></path><path d="M1802.9 694L1619.7 695L1801.9 793Z" fill="#1f2330" stroke="#11111b"></path><path d="M1667.7 513L1776.9 431L1682.7 399Z" fill="#7bd4ea" stroke="#11111b"></path><path d="M1665.7 238L1620.7 144L1542.6 280Z" fill="#88eeff" stroke="#11111b"></path><path d="M1619.7 695L1614.7 789L1801.9 793Z" fill="#7bd4ea" stroke="#11111b"></path><path d="M1682.7 399L1782.9 268L1665.7 238Z" fill="#5a8ba6" stroke="#11111b"></path><path d="M1788.9 566L1776.9 431L1667.7 513Z" fill="#11111b" stroke="#11111b"></path><path d="M1665.7 238L1817.9 128L1620.7 144Z" fill="#4f748e" stroke="#11111b"></path><path d="M255.3 239L268.3 396L385.4 396Z" fill="#64a3be" stroke="#11111b"></path><path d="M407.4 123L433.4 306L548.6 162Z" fill="#1f2330" stroke="#11111b"></path><path d="M1801.9 793L1614.7 789L1807.9 923Z" fill="#88eeff" stroke="#11111b"></path><path d="M1920 400L1782.9 268L1776.9 431Z" fill="#7bd4ea" stroke="#11111b"></path><path d="M512.6 0L407.4 123L548.6 162Z" fill="#1f2330" stroke="#11111b"></path><path d="M1807.9 923L1614.7 789L1607.7 945Z" fill="#445e76" stroke="#11111b"></path><path d="M669.7 0L512.6 0L548.6 162Z" fill="#5a8ba6" stroke="#11111b"></path><path d="M1631.7 0L1545.6 0L1620.7 144Z" fill="#7bd4ea" stroke="#11111b"></path><path d="M1620.7 144L1545.6 0L1502.6 140Z" fill="#5a8ba6" stroke="#11111b"></path><path d="M99.1 811L274.3 977L299.3 802Z" fill="#6fbbd4" stroke="#11111b"></path><path d="M299.3 802L274.3 977L375.4 943Z" fill="#11111b" stroke="#11111b"></path><path d="M1920 570L1776.9 431L1788.9 566Z" fill="#11111b" stroke="#11111b"></path><path d="M1776.9 431L1782.9 268L1682.7 399Z" fill="#88eeff" stroke="#11111b"></path><path d="M1920 791L1920 640L1802.9 694Z" fill="#6fbbd4" stroke="#11111b"></path><path d="M1772.9 1080L1807.9 923L1607.7 945Z" fill="#64a3be" stroke="#11111b"></path><path d="M290.3 162L433.4 306L407.4 123Z" fill="#64a3be" stroke="#11111b"></path><path d="M290.3 162L255.3 239L433.4 306Z" fill="#38495e" stroke="#11111b"></path><path d="M111.1 564L166.1 679L263.3 558Z" fill="#64a3be" stroke="#11111b"></path><path d="M263.3 558L166.1 679L299.3 662Z" fill="#7bd4ea" stroke="#11111b"></path><path d="M111.1 564L263.3 558L268.3 396Z" fill="#2c3546" stroke="#11111b"></path><path d="M295.3 0L290.3 162L407.4 123Z" fill="#6fbbd4" stroke="#11111b"></path><path d="M1770.9 0L1631.7 0L1620.7 144Z" fill="#11111b" stroke="#11111b"></path><path d="M1632.7 1080L1772.9 1080L1607.7 945Z" fill="#6fbbd4" stroke="#11111b"></path><path d="M274.3 977L253.3 1080L445.4 1080Z" fill="#4f748e" stroke="#11111b"></path><path d="M102.1 957L253.3 1080L274.3 977Z" fill="#6fbbd4" stroke="#11111b"></path><path d="M512.6 0L378.4 0L407.4 123Z" fill="#445e76" stroke="#11111b"></path><path d="M1920 791L1801.9 793L1807.9 923Z" fill="#38495e" stroke="#11111b"></path><path d="M1920 791L1802.9 694L1801.9 793Z" fill="#6fbbd4" stroke="#11111b"></path><path d="M1802.9 694L1920 640L1788.9 566Z" fill="#1f2330" stroke="#11111b"></path><path d="M1920 640L1920 570L1788.9 566Z" fill="#6fbbd4" stroke="#11111b"></path><path d="M137.1 368L111.1 564L268.3 396Z" fill="#6fbbd4" stroke="#11111b"></path><path d="M166.1 679L99.1 811L299.3 802Z" fill="#2c3546" stroke="#11111b"></path><path d="M1920 924L1920 791L1807.9 923Z" fill="#7bd4ea" stroke="#11111b"></path><path d="M153.1 277L137.1 368L268.3 396Z" fill="#1f2330" stroke="#11111b"></path><path d="M153.1 277L268.3 396L255.3 239Z" fill="#38495e" stroke="#11111b"></path><path d="M153.1 277L255.3 239L111.1 158Z" fill="#445e76" stroke="#11111b"></path><path d="M1920 570L1920 400L1776.9 431Z" fill="#1f2330" stroke="#11111b"></path><path d="M1782.9 268L1817.9 128L1665.7 238Z" fill="#64a3be" stroke="#11111b"></path><path d="M111.1 158L255.3 239L290.3 162Z" fill="#11111b" stroke="#11111b"></path><path d="M1920 282L1817.9 128L1782.9 268Z" fill="#64a3be" stroke="#11111b"></path><path d="M0 663L99.1 811L166.1 679Z" fill="#1f2330" stroke="#11111b"></path><path d="M1920 1080L1920 924L1807.9 923Z" fill="#445e76" stroke="#11111b"></path><path d="M378.4 0L295.3 0L407.4 123Z" fill="#4f748e" stroke="#11111b"></path><path d="M1920 400L1920 282L1782.9 268Z" fill="#1f2330" stroke="#11111b"></path><path d="M1920 0L1770.9 0L1817.9 128Z" fill="#88eeff" stroke="#11111b"></path><path d="M1817.9 128L1770.9 0L1620.7 144Z" fill="#7bd4ea" stroke="#11111b"></path><path d="M99.1 811L102.1 957L274.3 977Z" fill="#64a3be" stroke="#11111b"></path><path d="M1772.9 1080L1920 1080L1807.9 923Z" fill="#1f2330" stroke="#11111b"></path><path d="M102.1 957L109.1 1080L253.3 1080Z" fill="#6fbbd4" stroke="#11111b"></path><path d="M167.1 0L111.1 158L290.3 162Z" fill="#88eeff" stroke="#11111b"></path><path d="M0 266L0 419L137.1 368Z" fill="#64a3be" stroke="#11111b"></path><path d="M0 555L0 663L111.1 564Z" fill="#64a3be" stroke="#11111b"></path><path d="M111.1 564L0 663L166.1 679Z" fill="#5a8ba6" stroke="#11111b"></path><path d="M99.1 811L0 948L102.1 957Z" fill="#445e76" stroke="#11111b"></path><path d="M102.1 957L0 1080L109.1 1080Z" fill="#5a8ba6" stroke="#11111b"></path><path d="M0 555L111.1 564L0 419Z" fill="#6fbbd4" stroke="#11111b"></path><path d="M0 419L111.1 564L137.1 368Z" fill="#7bd4ea" stroke="#11111b"></path><path d="M1920 282L1920 129L1817.9 128Z" fill="#2c3546" stroke="#11111b"></path><path d="M0 663L0 775L99.1 811Z" fill="#88eeff" stroke="#11111b"></path><path d="M0 266L137.1 368L153.1 277Z" fill="#11111b" stroke="#11111b"></path><path d="M295.3 0L167.1 0L290.3 162Z" fill="#88eeff" stroke="#11111b"></path><path d="M111.1 158L0 266L153.1 277Z" fill="#7bd4ea" stroke="#11111b"></path><path d="M0 775L0 948L99.1 811Z" fill="#6fbbd4" stroke="#11111b"></path><path d="M0 162L0 266L111.1 158Z" fill="#88eeff" stroke="#11111b"></path><path d="M1920 129L1920 0L1817.9 128Z" fill="#6fbbd4" stroke="#11111b"></path><path d="M0 948L0 1080L102.1 957Z" fill="#445e76" stroke="#11111b"></path><path d="M0 0L0 162L111.1 158Z" fill="#445e76" stroke="#11111b"></path><path d="M167.1 0L0 0L111.1 158Z" fill="#4f748e" stroke="#11111b"></path></g></svg>