<svg id="visual" viewBox="0 0 3840 2160" width="3840" height="2160" xmlns="http://www.w3.org/2000/svg" xmlns:xlink="http://www.w3.org/1999/xlink" version="1.1"><g stroke-width="3" stroke-linejoin="bevel"><path d="M1869 1031L1988 935L1821 988Z" fill="#5e2c50" stroke="#11111b"></path><path d="M1767 689L1781 980L1821 988Z" fill="#aa3b53" stroke="#11111b"></path><path d="M1821 988L1781 980L1869 1031Z" fill="#11111b" stroke="#11111b"></path><path d="M2199 1148L2128 865L1988 935Z" fill="#11111b" stroke="#11111b"></path><path d="M1988 935L1767 689L1821 988Z" fill="#923556" stroke="#11111b"></path><path d="M1864 641L1767 689L1988 935Z" fill="#783055" stroke="#11111b"></path><path d="M2128 865L1864 641L1988 935Z" fill="#1e1a2b" stroke="#11111b"></path><path d="M1943 1305L2110 1181L1869 1031Z" fill="#923556" stroke="#11111b"></path><path d="M1869 1031L2110 1181L1988 935Z" fill="#5e2c50" stroke="#11111b"></path><path d="M1505 1024L1664 1218L1781 980Z" fill="#d05441" stroke="#11111b"></path><path d="M1781 980L1664 1218L1869 1031Z" fill="#1e1a2b" stroke="#11111b"></path><path d="M2110 1181L2199 1148L1988 935Z" fill="#1e1a2b" stroke="#11111b"></path><path d="M1664 1218L1943 1305L1869 1031Z" fill="#5e2c50" stroke="#11111b"></path><path d="M2110 1181L2313 1308L2199 1148Z" fill="#923556" stroke="#11111b"></path><path d="M1622 708L1538 935L1781 980Z" fill="#dd6633" stroke="#11111b"></path><path d="M1761 518L1622 708L1767 689Z" fill="#5e2c50" stroke="#11111b"></path><path d="M1767 689L1622 708L1781 980Z" fill="#aa3b53" stroke="#11111b"></path><path d="M1335 998L1505 1024L1538 935Z" fill="#11111b" stroke="#11111b"></path><path d="M1538 935L1505 1024L1781 980Z" fill="#783055" stroke="#11111b"></path><path d="M2199 1148L2305 1031L2128 865Z" fill="#462747" stroke="#11111b"></path><path d="M2309 804L2173 633L2128 865Z" fill="#5e2c50" stroke="#11111b"></path><path d="M2128 865L2173 633L1864 641Z" fill="#11111b" stroke="#11111b"></path><path d="M2305 1031L2309 804L2128 865Z" fill="#dd6633" stroke="#11111b"></path><path d="M1952 464L1761 518L1864 641Z" fill="#aa3b53" stroke="#11111b"></path><path d="M1864 641L1761 518L1767 689Z" fill="#1e1a2b" stroke="#11111b"></path><path d="M1876 1496L2111 1372L1943 1305Z" fill="#aa3b53" stroke="#11111b"></path><path d="M1943 1305L2111 1372L2110 1181Z" fill="#923556" stroke="#11111b"></path><path d="M2199 1148L2313 1308L2305 1031Z" fill="#783055" stroke="#11111b"></path><path d="M2173 633L1952 464L1864 641Z" fill="#dd6633" stroke="#11111b"></path><path d="M1505 1024L1519 1292L1664 1218Z" fill="#11111b" stroke="#11111b"></path><path d="M1742 1491L1876 1496L1943 1305Z" fill="#783055" stroke="#11111b"></path><path d="M2327 518L2117 463L2173 633Z" fill="#30213a" stroke="#11111b"></path><path d="M2173 633L2117 463L1952 464Z" fill="#30213a" stroke="#11111b"></path><path d="M2458 854L2397 746L2309 804Z" fill="#11111b" stroke="#11111b"></path><path d="M2309 804L2397 746L2173 633Z" fill="#aa3b53" stroke="#11111b"></path><path d="M1761 518L1452 635L1622 708Z" fill="#783055" stroke="#11111b"></path><path d="M1622 708L1391 680L1538 935Z" fill="#5e2c50" stroke="#11111b"></path><path d="M1505 1024L1395 1295L1519 1292Z" fill="#1e1a2b" stroke="#11111b"></path><path d="M2111 1372L2313 1308L2110 1181Z" fill="#5e2c50" stroke="#11111b"></path><path d="M2305 1031L2458 854L2309 804Z" fill="#923556" stroke="#11111b"></path><path d="M1742 1491L1943 1305L1664 1218Z" fill="#462747" stroke="#11111b"></path><path d="M2111 1372L2246 1422L2313 1308Z" fill="#923556" stroke="#11111b"></path><path d="M1455 429L1441 620L1452 635Z" fill="#1e1a2b" stroke="#11111b"></path><path d="M1391 680L1335 998L1538 935Z" fill="#dd6633" stroke="#11111b"></path><path d="M2580 1069L2458 854L2305 1031Z" fill="#462747" stroke="#11111b"></path><path d="M1519 1292L1742 1491L1664 1218Z" fill="#1e1a2b" stroke="#11111b"></path><path d="M1391 680L1622 708L1452 635Z" fill="#462747" stroke="#11111b"></path><path d="M2236 375L2114 417L2117 463Z" fill="#aa3b53" stroke="#11111b"></path><path d="M2117 463L2114 417L1952 464Z" fill="#11111b" stroke="#11111b"></path><path d="M1952 464L1706 396L1761 518Z" fill="#bf454b" stroke="#11111b"></path><path d="M1441 620L1391 680L1452 635Z" fill="#d05441" stroke="#11111b"></path><path d="M1980 333L1706 396L1952 464Z" fill="#783055" stroke="#11111b"></path><path d="M1761 518L1455 429L1452 635Z" fill="#aa3b53" stroke="#11111b"></path><path d="M2218 1557L2246 1422L2111 1372Z" fill="#30213a" stroke="#11111b"></path><path d="M2469 557L2327 518L2397 746Z" fill="#1e1a2b" stroke="#11111b"></path><path d="M2397 746L2327 518L2173 633Z" fill="#11111b" stroke="#11111b"></path><path d="M1232 746L1293 1013L1335 998Z" fill="#11111b" stroke="#11111b"></path><path d="M1335 998L1395 1295L1505 1024Z" fill="#dd6633" stroke="#11111b"></path><path d="M1293 1013L1395 1295L1335 998Z" fill="#5e2c50" stroke="#11111b"></path><path d="M1519 1292L1583 1534L1742 1491Z" fill="#783055" stroke="#11111b"></path><path d="M2143 247L1980 333L2114 417Z" fill="#d05441" stroke="#11111b"></path><path d="M2114 417L1980 333L1952 464Z" fill="#923556" stroke="#11111b"></path><path d="M2327 518L2236 375L2117 463Z" fill="#30213a" stroke="#11111b"></path><path d="M1365 1371L1583 1534L1519 1292Z" fill="#462747" stroke="#11111b"></path><path d="M1742 1491L1790 1648L1876 1496Z" fill="#11111b" stroke="#11111b"></path><path d="M1123 1229L1365 1371L1395 1295Z" fill="#1e1a2b" stroke="#11111b"></path><path d="M1395 1295L1365 1371L1519 1292Z" fill="#d05441" stroke="#11111b"></path><path d="M1563 213L1455 429L1706 396Z" fill="#1e1a2b" stroke="#11111b"></path><path d="M1706 396L1455 429L1761 518Z" fill="#11111b" stroke="#11111b"></path><path d="M1441 620L1178 555L1391 680Z" fill="#5e2c50" stroke="#11111b"></path><path d="M1391 680L1232 746L1335 998Z" fill="#30213a" stroke="#11111b"></path><path d="M2189 1594L2111 1372L1876 1496Z" fill="#1e1a2b" stroke="#11111b"></path><path d="M2189 1594L2218 1557L2111 1372Z" fill="#783055" stroke="#11111b"></path><path d="M2528 1522L2589 1216L2313 1308Z" fill="#d05441" stroke="#11111b"></path><path d="M2571 727L2469 557L2397 746Z" fill="#bf454b" stroke="#11111b"></path><path d="M2327 518L2544 329L2236 375Z" fill="#aa3b53" stroke="#11111b"></path><path d="M2589 1216L2305 1031L2313 1308Z" fill="#5e2c50" stroke="#11111b"></path><path d="M2589 1216L2580 1069L2305 1031Z" fill="#11111b" stroke="#11111b"></path><path d="M2458 854L2571 727L2397 746Z" fill="#923556" stroke="#11111b"></path><path d="M1178 555L1232 746L1391 680Z" fill="#bf454b" stroke="#11111b"></path><path d="M1293 1013L1123 1229L1395 1295Z" fill="#923556" stroke="#11111b"></path><path d="M2580 1069L2591 811L2458 854Z" fill="#aa3b53" stroke="#11111b"></path><path d="M2143 247L1911 242L1980 333Z" fill="#783055" stroke="#11111b"></path><path d="M1980 333L1911 242L1706 396Z" fill="#11111b" stroke="#11111b"></path><path d="M2591 811L2571 727L2458 854Z" fill="#bf454b" stroke="#11111b"></path><path d="M2016 1702L2189 1594L1876 1496Z" fill="#bf454b" stroke="#11111b"></path><path d="M1583 1534L1790 1648L1742 1491Z" fill="#aa3b53" stroke="#11111b"></path><path d="M1790 1648L1864 1656L1876 1496Z" fill="#783055" stroke="#11111b"></path><path d="M2528 1522L2313 1308L2246 1422Z" fill="#30213a" stroke="#11111b"></path><path d="M2580 1069L2766 1105L2591 811Z" fill="#bf454b" stroke="#11111b"></path><path d="M2528 1522L2246 1422L2218 1557Z" fill="#783055" stroke="#11111b"></path><path d="M2301 107L2143 247L2236 375Z" fill="#bf454b" stroke="#11111b"></path><path d="M2236 375L2143 247L2114 417Z" fill="#11111b" stroke="#11111b"></path><path d="M1946 1731L2016 1702L1864 1656Z" fill="#923556" stroke="#11111b"></path><path d="M1864 1656L2016 1702L1876 1496Z" fill="#5e2c50" stroke="#11111b"></path><path d="M993 763L1139 819L1012 586Z" fill="#aa3b53" stroke="#11111b"></path><path d="M1232 746L1139 819L1293 1013Z" fill="#783055" stroke="#11111b"></path><path d="M1780 1827L1946 1731L1864 1656Z" fill="#783055" stroke="#11111b"></path><path d="M1365 1371L1458 1604L1583 1534Z" fill="#30213a" stroke="#11111b"></path><path d="M1706 1892L1780 1827L1624 1894Z" fill="#923556" stroke="#11111b"></path><path d="M1790 1648L1780 1827L1864 1656Z" fill="#783055" stroke="#11111b"></path><path d="M1336 1528L1458 1604L1365 1371Z" fill="#aa3b53" stroke="#11111b"></path><path d="M1722 114L1563 213L1706 396Z" fill="#30213a" stroke="#11111b"></path><path d="M1455 429L1178 555L1441 620Z" fill="#11111b" stroke="#11111b"></path><path d="M1722 114L1706 396L1911 242Z" fill="#462747" stroke="#11111b"></path><path d="M1224 1540L1336 1528L1365 1371Z" fill="#1e1a2b" stroke="#11111b"></path><path d="M1563 213L1433 286L1455 429Z" fill="#1e1a2b" stroke="#11111b"></path><path d="M1226 364L1178 555L1455 429Z" fill="#bf454b" stroke="#11111b"></path><path d="M1064 1145L1123 1229L1293 1013Z" fill="#923556" stroke="#11111b"></path><path d="M2016 1702L2239 1711L2189 1594Z" fill="#1e1a2b" stroke="#11111b"></path><path d="M2189 1594L2239 1711L2218 1557Z" fill="#bf454b" stroke="#11111b"></path><path d="M2168 1912L2239 1711L2016 1702Z" fill="#5e2c50" stroke="#11111b"></path><path d="M2543 1640L2528 1522L2218 1557Z" fill="#1e1a2b" stroke="#11111b"></path><path d="M1918 0L1722 114L1911 242Z" fill="#462747" stroke="#11111b"></path><path d="M1563 213L1409 239L1433 286Z" fill="#5e2c50" stroke="#11111b"></path><path d="M1033 1224L1064 1145L983 1087Z" fill="#11111b" stroke="#11111b"></path><path d="M1139 819L1064 1145L1293 1013Z" fill="#11111b" stroke="#11111b"></path><path d="M2613 1525L2699 1265L2589 1216Z" fill="#dd6633" stroke="#11111b"></path><path d="M2589 1216L2766 1105L2580 1069Z" fill="#dd6633" stroke="#11111b"></path><path d="M1436 0L1409 239L1563 213Z" fill="#923556" stroke="#11111b"></path><path d="M1433 286L1226 364L1455 429Z" fill="#aa3b53" stroke="#11111b"></path><path d="M2699 1265L2766 1105L2589 1216Z" fill="#1e1a2b" stroke="#11111b"></path><path d="M2591 811L2765 668L2571 727Z" fill="#783055" stroke="#11111b"></path><path d="M1790 1648L1583 1534L1624 1894Z" fill="#d05441" stroke="#11111b"></path><path d="M1780 1827L1790 1648L1624 1894Z" fill="#dd6633" stroke="#11111b"></path><path d="M1946 1731L2168 1912L2016 1702Z" fill="#11111b" stroke="#11111b"></path><path d="M1409 239L1226 364L1433 286Z" fill="#783055" stroke="#11111b"></path><path d="M2671 445L2544 329L2469 557Z" fill="#1e1a2b" stroke="#11111b"></path><path d="M2469 557L2544 329L2327 518Z" fill="#923556" stroke="#11111b"></path><path d="M2035 0L1918 0L1911 242Z" fill="#11111b" stroke="#11111b"></path><path d="M2671 445L2469 557L2571 727Z" fill="#5e2c50" stroke="#11111b"></path><path d="M1156 1459L1365 1371L1123 1229Z" fill="#783055" stroke="#11111b"></path><path d="M1156 1459L1224 1540L1365 1371Z" fill="#783055" stroke="#11111b"></path><path d="M1336 1528L1329 1869L1458 1604Z" fill="#dd6633" stroke="#11111b"></path><path d="M1033 1224L1156 1459L1123 1229Z" fill="#1e1a2b" stroke="#11111b"></path><path d="M2832 782L2765 668L2591 811Z" fill="#783055" stroke="#11111b"></path><path d="M1064 1145L1033 1224L1123 1229Z" fill="#783055" stroke="#11111b"></path><path d="M983 1087L1064 1145L1139 819Z" fill="#5e2c50" stroke="#11111b"></path><path d="M2544 329L2452 219L2236 375Z" fill="#dd6633" stroke="#11111b"></path><path d="M2615 1559L2613 1525L2528 1522Z" fill="#aa3b53" stroke="#11111b"></path><path d="M2528 1522L2613 1525L2589 1216Z" fill="#bf454b" stroke="#11111b"></path><path d="M2699 1265L2837 1108L2766 1105Z" fill="#5e2c50" stroke="#11111b"></path><path d="M2749 502L2671 445L2571 727Z" fill="#11111b" stroke="#11111b"></path><path d="M2544 329L2607 184L2452 219Z" fill="#bf454b" stroke="#11111b"></path><path d="M1012 586L1232 746L1178 555Z" fill="#bf454b" stroke="#11111b"></path><path d="M1012 586L1139 819L1232 746Z" fill="#923556" stroke="#11111b"></path><path d="M915 846L983 1087L1139 819Z" fill="#bf454b" stroke="#11111b"></path><path d="M2452 219L2301 107L2236 375Z" fill="#d05441" stroke="#11111b"></path><path d="M2543 1640L2615 1559L2528 1522Z" fill="#5e2c50" stroke="#11111b"></path><path d="M2613 1525L2842 1352L2699 1265Z" fill="#30213a" stroke="#11111b"></path><path d="M2239 1711L2543 1640L2218 1557Z" fill="#30213a" stroke="#11111b"></path><path d="M2457 1829L2543 1640L2239 1711Z" fill="#11111b" stroke="#11111b"></path><path d="M2844 842L2832 782L2591 811Z" fill="#bf454b" stroke="#11111b"></path><path d="M2765 668L2749 502L2571 727Z" fill="#d05441" stroke="#11111b"></path><path d="M2035 0L1911 242L2143 247Z" fill="#462747" stroke="#11111b"></path><path d="M1722 114L1652 0L1563 213Z" fill="#30213a" stroke="#11111b"></path><path d="M2766 1105L2844 842L2591 811Z" fill="#783055" stroke="#11111b"></path><path d="M2842 1352L2837 1108L2699 1265Z" fill="#783055" stroke="#11111b"></path><path d="M2766 1105L2837 1108L2844 842Z" fill="#462747" stroke="#11111b"></path><path d="M2832 782L2787 602L2765 668Z" fill="#dd6633" stroke="#11111b"></path><path d="M2301 107L2035 0L2143 247Z" fill="#30213a" stroke="#11111b"></path><path d="M2787 602L2749 502L2765 668Z" fill="#d05441" stroke="#11111b"></path><path d="M2794 307L2607 184L2544 329Z" fill="#5e2c50" stroke="#11111b"></path><path d="M1226 364L1012 586L1178 555Z" fill="#dd6633" stroke="#11111b"></path><path d="M1624 1894L1583 1534L1458 1604Z" fill="#11111b" stroke="#11111b"></path><path d="M1933 2001L2168 1912L1946 1731Z" fill="#bf454b" stroke="#11111b"></path><path d="M1918 0L1652 0L1722 114Z" fill="#1e1a2b" stroke="#11111b"></path><path d="M1409 239L1193 222L1226 364Z" fill="#1e1a2b" stroke="#11111b"></path><path d="M1514 1907L1624 1894L1458 1604Z" fill="#bf454b" stroke="#11111b"></path><path d="M813 662L915 846L993 763Z" fill="#5e2c50" stroke="#11111b"></path><path d="M993 763L915 846L1139 819Z" fill="#5e2c50" stroke="#11111b"></path><path d="M1933 2001L1780 1827L1706 1892Z" fill="#462747" stroke="#11111b"></path><path d="M1933 2001L1946 1731L1780 1827Z" fill="#dd6633" stroke="#11111b"></path><path d="M1336 0L1193 222L1409 239Z" fill="#dd6633" stroke="#11111b"></path><path d="M1226 364L954 276L1012 586Z" fill="#aa3b53" stroke="#11111b"></path><path d="M2494 0L2276 0L2301 107Z" fill="#923556" stroke="#11111b"></path><path d="M2301 107L2276 0L2035 0Z" fill="#d05441" stroke="#11111b"></path><path d="M2494 0L2301 107L2452 219Z" fill="#5e2c50" stroke="#11111b"></path><path d="M2826 1545L2842 1352L2613 1525Z" fill="#bf454b" stroke="#11111b"></path><path d="M2837 1108L3040 832L2844 842Z" fill="#d05441" stroke="#11111b"></path><path d="M2826 1545L2613 1525L2615 1559Z" fill="#dd6633" stroke="#11111b"></path><path d="M1329 1869L1514 1907L1458 1604Z" fill="#5e2c50" stroke="#11111b"></path><path d="M1839 2160L1933 2001L1706 1892Z" fill="#1e1a2b" stroke="#11111b"></path><path d="M1329 1869L1336 1528L1224 1540Z" fill="#5e2c50" stroke="#11111b"></path><path d="M2794 307L2544 329L2671 445Z" fill="#923556" stroke="#11111b"></path><path d="M2408 1923L2457 1829L2239 1711Z" fill="#30213a" stroke="#11111b"></path><path d="M2650 1801L2826 1545L2615 1559Z" fill="#783055" stroke="#11111b"></path><path d="M1839 2160L1706 1892L1660 2160Z" fill="#462747" stroke="#11111b"></path><path d="M2168 1912L2408 1923L2239 1711Z" fill="#462747" stroke="#11111b"></path><path d="M1652 0L1436 0L1563 213Z" fill="#aa3b53" stroke="#11111b"></path><path d="M1036 1719L1224 1540L1156 1459Z" fill="#d05441" stroke="#11111b"></path><path d="M1158 1869L1329 1869L1224 1540Z" fill="#1e1a2b" stroke="#11111b"></path><path d="M1660 2160L1706 1892L1624 1894Z" fill="#30213a" stroke="#11111b"></path><path d="M788 1130L888 1375L1033 1224Z" fill="#11111b" stroke="#11111b"></path><path d="M1033 1224L888 1375L1156 1459Z" fill="#462747" stroke="#11111b"></path><path d="M788 1130L1033 1224L983 1087Z" fill="#5e2c50" stroke="#11111b"></path><path d="M2382 2004L2408 1923L2168 1912Z" fill="#783055" stroke="#11111b"></path><path d="M2650 1801L2615 1559L2543 1640Z" fill="#11111b" stroke="#11111b"></path><path d="M2749 502L2794 307L2671 445Z" fill="#bf454b" stroke="#11111b"></path><path d="M2993 576L2794 307L2749 502Z" fill="#aa3b53" stroke="#11111b"></path><path d="M2993 576L2749 502L2787 602Z" fill="#783055" stroke="#11111b"></path><path d="M2993 576L2787 602L2832 782Z" fill="#1e1a2b" stroke="#11111b"></path><path d="M2650 1801L2543 1640L2457 1829Z" fill="#5e2c50" stroke="#11111b"></path><path d="M1436 0L1336 0L1409 239Z" fill="#11111b" stroke="#11111b"></path><path d="M2961 1355L2984 1170L2842 1352Z" fill="#d05441" stroke="#11111b"></path><path d="M2842 1352L2984 1170L2837 1108Z" fill="#5e2c50" stroke="#11111b"></path><path d="M2844 842L3040 832L2832 782Z" fill="#923556" stroke="#11111b"></path><path d="M2607 184L2494 0L2452 219Z" fill="#dd6633" stroke="#11111b"></path><path d="M2670 0L2494 0L2607 184Z" fill="#bf454b" stroke="#11111b"></path><path d="M1012 586L813 662L993 763Z" fill="#923556" stroke="#11111b"></path><path d="M915 846L788 1130L983 1087Z" fill="#dd6633" stroke="#11111b"></path><path d="M778 357L813 662L1012 586Z" fill="#dd6633" stroke="#11111b"></path><path d="M954 276L1226 364L1193 222Z" fill="#30213a" stroke="#11111b"></path><path d="M721 905L788 1130L915 846Z" fill="#923556" stroke="#11111b"></path><path d="M2622 2027L2650 1801L2457 1829Z" fill="#d05441" stroke="#11111b"></path><path d="M2826 1545L2961 1355L2842 1352Z" fill="#dd6633" stroke="#11111b"></path><path d="M3068 1247L2961 1355L3159 1378Z" fill="#d05441" stroke="#11111b"></path><path d="M3233 1026L3040 832L2984 1170Z" fill="#923556" stroke="#11111b"></path><path d="M2984 1170L3040 832L2837 1108Z" fill="#d05441" stroke="#11111b"></path><path d="M3040 832L2993 576L2832 782Z" fill="#aa3b53" stroke="#11111b"></path><path d="M820 1608L1036 1719L1156 1459Z" fill="#d05441" stroke="#11111b"></path><path d="M870 173L954 276L909 0Z" fill="#5e2c50" stroke="#11111b"></path><path d="M2316 2160L2382 2004L2168 1912Z" fill="#462747" stroke="#11111b"></path><path d="M2408 1923L2622 2027L2457 1829Z" fill="#11111b" stroke="#11111b"></path><path d="M732 1198L842 1426L888 1375Z" fill="#923556" stroke="#11111b"></path><path d="M888 1375L842 1426L1156 1459Z" fill="#5e2c50" stroke="#11111b"></path><path d="M1158 1869L1282 1935L1329 1869Z" fill="#11111b" stroke="#11111b"></path><path d="M1329 1869L1282 1935L1514 1907Z" fill="#5e2c50" stroke="#11111b"></path><path d="M672 625L721 905L813 662Z" fill="#462747" stroke="#11111b"></path><path d="M813 662L721 905L915 846Z" fill="#923556" stroke="#11111b"></path><path d="M788 1130L732 1198L888 1375Z" fill="#30213a" stroke="#11111b"></path><path d="M1036 1719L1158 1869L1224 1540Z" fill="#aa3b53" stroke="#11111b"></path><path d="M1336 0L1192 0L1193 222Z" fill="#bf454b" stroke="#11111b"></path><path d="M632 1174L732 1198L788 1130Z" fill="#30213a" stroke="#11111b"></path><path d="M3015 1577L2961 1355L2826 1545Z" fill="#bf454b" stroke="#11111b"></path><path d="M2961 1355L3068 1247L2984 1170Z" fill="#783055" stroke="#11111b"></path><path d="M820 1608L998 1751L1036 1719Z" fill="#bf454b" stroke="#11111b"></path><path d="M1036 1719L998 1751L1158 1869Z" fill="#462747" stroke="#11111b"></path><path d="M820 1608L1156 1459L842 1426Z" fill="#11111b" stroke="#11111b"></path><path d="M1660 2160L1624 1894L1514 1907Z" fill="#923556" stroke="#11111b"></path><path d="M1933 2001L2080 2160L2168 1912Z" fill="#1e1a2b" stroke="#11111b"></path><path d="M2785 0L2607 184L2794 307Z" fill="#11111b" stroke="#11111b"></path><path d="M2785 0L2670 0L2607 184Z" fill="#5e2c50" stroke="#11111b"></path><path d="M1839 2160L2080 2160L1933 2001Z" fill="#923556" stroke="#11111b"></path><path d="M1447 2160L1514 1907L1282 1935Z" fill="#11111b" stroke="#11111b"></path><path d="M1447 2160L1660 2160L1514 1907Z" fill="#5e2c50" stroke="#11111b"></path><path d="M3040 832L3101 642L2993 576Z" fill="#783055" stroke="#11111b"></path><path d="M2993 576L2968 246L2794 307Z" fill="#923556" stroke="#11111b"></path><path d="M3291 664L3101 642L3040 832Z" fill="#d05441" stroke="#11111b"></path><path d="M480 1451L820 1608L842 1426Z" fill="#783055" stroke="#11111b"></path><path d="M870 173L778 357L954 276Z" fill="#aa3b53" stroke="#11111b"></path><path d="M954 276L778 357L1012 586Z" fill="#30213a" stroke="#11111b"></path><path d="M688 510L672 625L813 662Z" fill="#5e2c50" stroke="#11111b"></path><path d="M566 1058L632 1174L788 1130Z" fill="#5e2c50" stroke="#11111b"></path><path d="M998 1751L1107 1949L1158 1869Z" fill="#923556" stroke="#11111b"></path><path d="M1158 1869L1107 1949L1282 1935Z" fill="#d05441" stroke="#11111b"></path><path d="M862 1983L1107 1949L998 1751Z" fill="#783055" stroke="#11111b"></path><path d="M2996 224L2968 246L3116 316Z" fill="#5e2c50" stroke="#11111b"></path><path d="M2959 1773L2826 1545L2650 1801Z" fill="#bf454b" stroke="#11111b"></path><path d="M2959 1773L3015 1577L2826 1545Z" fill="#5e2c50" stroke="#11111b"></path><path d="M2080 2160L2316 2160L2168 1912Z" fill="#923556" stroke="#11111b"></path><path d="M2382 2004L2622 2027L2408 1923Z" fill="#dd6633" stroke="#11111b"></path><path d="M595 980L788 1130L721 905Z" fill="#30213a" stroke="#11111b"></path><path d="M732 1198L480 1451L842 1426Z" fill="#462747" stroke="#11111b"></path><path d="M778 357L688 510L813 662Z" fill="#1e1a2b" stroke="#11111b"></path><path d="M909 0L954 276L1193 222Z" fill="#d05441" stroke="#11111b"></path><path d="M778 357L661 402L688 510Z" fill="#d05441" stroke="#11111b"></path><path d="M1258 2160L1447 2160L1282 1935Z" fill="#bf454b" stroke="#11111b"></path><path d="M2968 246L2785 0L2794 307Z" fill="#dd6633" stroke="#11111b"></path><path d="M2481 2160L2622 2027L2382 2004Z" fill="#923556" stroke="#11111b"></path><path d="M451 901L595 980L721 905Z" fill="#923556" stroke="#11111b"></path><path d="M566 1058L595 980L451 901Z" fill="#30213a" stroke="#11111b"></path><path d="M3116 316L2968 246L2993 576Z" fill="#aa3b53" stroke="#11111b"></path><path d="M2968 246L2996 224L2785 0Z" fill="#30213a" stroke="#11111b"></path><path d="M3015 1577L3159 1378L2961 1355Z" fill="#d05441" stroke="#11111b"></path><path d="M3068 1247L3233 1026L2984 1170Z" fill="#462747" stroke="#11111b"></path><path d="M3353 1280L3233 1026L3068 1247Z" fill="#5e2c50" stroke="#11111b"></path><path d="M3273 543L3116 316L2993 576Z" fill="#aa3b53" stroke="#11111b"></path><path d="M451 901L721 905L672 625Z" fill="#783055" stroke="#11111b"></path><path d="M595 980L566 1058L788 1130Z" fill="#5e2c50" stroke="#11111b"></path><path d="M542 1678L779 1803L820 1608Z" fill="#11111b" stroke="#11111b"></path><path d="M2795 2047L2959 1773L2650 1801Z" fill="#dd6633" stroke="#11111b"></path><path d="M3015 1577L3285 1463L3159 1378Z" fill="#aa3b53" stroke="#11111b"></path><path d="M2316 2160L2481 2160L2382 2004Z" fill="#dd6633" stroke="#11111b"></path><path d="M3017 1974L2980 1766L2959 1773Z" fill="#462747" stroke="#11111b"></path><path d="M663 209L661 402L778 357Z" fill="#11111b" stroke="#11111b"></path><path d="M688 510L509 544L672 625Z" fill="#dd6633" stroke="#11111b"></path><path d="M2795 2047L2650 1801L2622 2027Z" fill="#462747" stroke="#11111b"></path><path d="M2959 1773L2980 1766L3015 1577Z" fill="#aa3b53" stroke="#11111b"></path><path d="M3273 543L2993 576L3101 642Z" fill="#aa3b53" stroke="#11111b"></path><path d="M2996 224L3162 0L2785 0Z" fill="#d05441" stroke="#11111b"></path><path d="M1192 0L909 0L1193 222Z" fill="#bf454b" stroke="#11111b"></path><path d="M870 173L663 209L778 357Z" fill="#923556" stroke="#11111b"></path><path d="M1200 2160L1282 1935L1107 1949Z" fill="#783055" stroke="#11111b"></path><path d="M1200 2160L1258 2160L1282 1935Z" fill="#783055" stroke="#11111b"></path><path d="M985 2160L1200 2160L1107 1949Z" fill="#923556" stroke="#11111b"></path><path d="M480 1451L732 1198L632 1174Z" fill="#783055" stroke="#11111b"></path><path d="M820 1608L779 1803L998 1751Z" fill="#11111b" stroke="#11111b"></path><path d="M2758 2160L2795 2047L2622 2027Z" fill="#d05441" stroke="#11111b"></path><path d="M3335 987L3291 664L3040 832Z" fill="#11111b" stroke="#11111b"></path><path d="M3291 664L3273 543L3101 642Z" fill="#923556" stroke="#11111b"></path><path d="M784 0L739 107L870 173Z" fill="#462747" stroke="#11111b"></path><path d="M3366 1060L3335 987L3233 1026Z" fill="#aa3b53" stroke="#11111b"></path><path d="M3233 1026L3335 987L3040 832Z" fill="#1e1a2b" stroke="#11111b"></path><path d="M739 107L663 209L870 173Z" fill="#5e2c50" stroke="#11111b"></path><path d="M661 402L509 544L688 510Z" fill="#1e1a2b" stroke="#11111b"></path><path d="M408 292L509 544L661 402Z" fill="#aa3b53" stroke="#11111b"></path><path d="M509 544L451 901L672 625Z" fill="#5e2c50" stroke="#11111b"></path><path d="M303 1318L480 1451L632 1174Z" fill="#462747" stroke="#11111b"></path><path d="M739 107L578 0L663 209Z" fill="#30213a" stroke="#11111b"></path><path d="M909 0L784 0L870 173Z" fill="#923556" stroke="#11111b"></path><path d="M779 1803L862 1983L998 1751Z" fill="#783055" stroke="#11111b"></path><path d="M3353 1280L3366 1060L3233 1026Z" fill="#11111b" stroke="#11111b"></path><path d="M3413 810L3390 714L3291 664Z" fill="#d05441" stroke="#11111b"></path><path d="M3291 664L3390 714L3273 543Z" fill="#dd6633" stroke="#11111b"></path><path d="M3353 1280L3068 1247L3159 1378Z" fill="#1e1a2b" stroke="#11111b"></path><path d="M3301 1625L3015 1577L3299 1771Z" fill="#462747" stroke="#11111b"></path><path d="M3301 1625L3285 1463L3015 1577Z" fill="#d05441" stroke="#11111b"></path><path d="M2481 2160L2758 2160L2622 2027Z" fill="#aa3b53" stroke="#11111b"></path><path d="M2795 2047L3017 1974L2959 1773Z" fill="#11111b" stroke="#11111b"></path><path d="M3285 1463L3353 1280L3159 1378Z" fill="#30213a" stroke="#11111b"></path><path d="M303 1318L632 1174L566 1058Z" fill="#462747" stroke="#11111b"></path><path d="M661 2053L837 2065L862 1983Z" fill="#1e1a2b" stroke="#11111b"></path><path d="M3413 810L3335 987L3366 1060Z" fill="#aa3b53" stroke="#11111b"></path><path d="M3413 810L3291 664L3335 987Z" fill="#5e2c50" stroke="#11111b"></path><path d="M3392 1403L3382 1259L3353 1280Z" fill="#11111b" stroke="#11111b"></path><path d="M3353 1280L3382 1259L3366 1060Z" fill="#462747" stroke="#11111b"></path><path d="M2868 2160L3017 1974L2795 2047Z" fill="#dd6633" stroke="#11111b"></path><path d="M837 2065L985 2160L862 1983Z" fill="#923556" stroke="#11111b"></path><path d="M862 1983L985 2160L1107 1949Z" fill="#1e1a2b" stroke="#11111b"></path><path d="M3540 639L3696 820L3619 644Z" fill="#5e2c50" stroke="#11111b"></path><path d="M3345 282L3116 316L3273 543Z" fill="#783055" stroke="#11111b"></path><path d="M3345 282L3175 96L3116 316Z" fill="#5e2c50" stroke="#11111b"></path><path d="M3116 316L3175 96L2996 224Z" fill="#1e1a2b" stroke="#11111b"></path><path d="M480 1451L542 1678L820 1608Z" fill="#783055" stroke="#11111b"></path><path d="M661 2053L862 1983L779 1803Z" fill="#bf454b" stroke="#11111b"></path><path d="M480 1451L456 1496L542 1678Z" fill="#1e1a2b" stroke="#11111b"></path><path d="M270 1401L456 1496L480 1451Z" fill="#1e1a2b" stroke="#11111b"></path><path d="M2758 2160L2868 2160L2795 2047Z" fill="#30213a" stroke="#11111b"></path><path d="M3285 1463L3392 1403L3353 1280Z" fill="#462747" stroke="#11111b"></path><path d="M3299 1771L3015 1577L2980 1766Z" fill="#462747" stroke="#11111b"></path><path d="M3180 1938L2980 1766L3017 1974Z" fill="#d05441" stroke="#11111b"></path><path d="M309 693L342 987L451 901Z" fill="#d05441" stroke="#11111b"></path><path d="M451 901L342 987L566 1058Z" fill="#1e1a2b" stroke="#11111b"></path><path d="M3493 1527L3392 1403L3285 1463Z" fill="#783055" stroke="#11111b"></path><path d="M3540 639L3413 810L3696 820Z" fill="#11111b" stroke="#11111b"></path><path d="M3540 639L3390 438L3390 714Z" fill="#11111b" stroke="#11111b"></path><path d="M3390 714L3390 438L3273 543Z" fill="#bf454b" stroke="#11111b"></path><path d="M3195 0L3162 0L3175 96Z" fill="#d05441" stroke="#11111b"></path><path d="M3175 96L3162 0L2996 224Z" fill="#923556" stroke="#11111b"></path><path d="M373 1630L525 1744L542 1678Z" fill="#d05441" stroke="#11111b"></path><path d="M542 1678L525 1744L779 1803Z" fill="#462747" stroke="#11111b"></path><path d="M3390 438L3345 282L3273 543Z" fill="#462747" stroke="#11111b"></path><path d="M3512 183L3195 0L3175 96Z" fill="#462747" stroke="#11111b"></path><path d="M325 553L309 693L509 544Z" fill="#dd6633" stroke="#11111b"></path><path d="M509 544L309 693L451 901Z" fill="#1e1a2b" stroke="#11111b"></path><path d="M325 553L509 544L408 292Z" fill="#30213a" stroke="#11111b"></path><path d="M3042 2160L3180 1938L3017 1974Z" fill="#462747" stroke="#11111b"></path><path d="M3301 1625L3493 1527L3285 1463Z" fill="#aa3b53" stroke="#11111b"></path><path d="M3180 1938L3299 1771L2980 1766Z" fill="#11111b" stroke="#11111b"></path><path d="M408 292L661 402L663 209Z" fill="#462747" stroke="#11111b"></path><path d="M784 0L578 0L739 107Z" fill="#1e1a2b" stroke="#11111b"></path><path d="M477 0L408 292L663 209Z" fill="#30213a" stroke="#11111b"></path><path d="M270 1401L303 1318L233 1306Z" fill="#5e2c50" stroke="#11111b"></path><path d="M342 987L303 1318L566 1058Z" fill="#bf454b" stroke="#11111b"></path><path d="M456 1496L373 1630L542 1678Z" fill="#dd6633" stroke="#11111b"></path><path d="M325 553L264 676L309 693Z" fill="#5e2c50" stroke="#11111b"></path><path d="M309 693L168 961L342 987Z" fill="#aa3b53" stroke="#11111b"></path><path d="M163 527L264 676L325 553Z" fill="#d05441" stroke="#11111b"></path><path d="M525 1744L661 2053L779 1803Z" fill="#30213a" stroke="#11111b"></path><path d="M837 2065L735 2160L985 2160Z" fill="#11111b" stroke="#11111b"></path><path d="M458 2053L661 2053L525 1744Z" fill="#d05441" stroke="#11111b"></path><path d="M2868 2160L3042 2160L3017 1974Z" fill="#30213a" stroke="#11111b"></path><path d="M3543 1799L3301 1625L3299 1771Z" fill="#5e2c50" stroke="#11111b"></path><path d="M3390 438L3587 410L3345 282Z" fill="#bf454b" stroke="#11111b"></path><path d="M3345 282L3512 183L3175 96Z" fill="#783055" stroke="#11111b"></path><path d="M3413 810L3540 639L3390 714Z" fill="#11111b" stroke="#11111b"></path><path d="M3696 820L3366 1060L3727 1138Z" fill="#923556" stroke="#11111b"></path><path d="M270 1401L373 1630L456 1496Z" fill="#11111b" stroke="#11111b"></path><path d="M661 2053L735 2160L837 2065Z" fill="#aa3b53" stroke="#11111b"></path><path d="M233 1306L303 1318L342 987Z" fill="#923556" stroke="#11111b"></path><path d="M303 1318L270 1401L480 1451Z" fill="#aa3b53" stroke="#11111b"></path><path d="M3543 1799L3493 1527L3301 1625Z" fill="#1e1a2b" stroke="#11111b"></path><path d="M3392 1403L3552 1486L3382 1259Z" fill="#5e2c50" stroke="#11111b"></path><path d="M3552 1486L3493 1527L3629 1640Z" fill="#11111b" stroke="#11111b"></path><path d="M172 1879L414 1778L373 1630Z" fill="#11111b" stroke="#11111b"></path><path d="M373 1630L414 1778L525 1744Z" fill="#462747" stroke="#11111b"></path><path d="M661 2053L570 2160L735 2160Z" fill="#923556" stroke="#11111b"></path><path d="M118 1060L233 1306L342 987Z" fill="#462747" stroke="#11111b"></path><path d="M202 1974L458 2053L414 1778Z" fill="#bf454b" stroke="#11111b"></path><path d="M578 0L477 0L663 209Z" fill="#d05441" stroke="#11111b"></path><path d="M113 434L163 527L325 553Z" fill="#11111b" stroke="#11111b"></path><path d="M3619 644L3567 512L3540 639Z" fill="#aa3b53" stroke="#11111b"></path><path d="M3540 639L3567 512L3390 438Z" fill="#5e2c50" stroke="#11111b"></path><path d="M264 676L168 961L309 693Z" fill="#462747" stroke="#11111b"></path><path d="M118 1060L168 961L0 906Z" fill="#1e1a2b" stroke="#11111b"></path><path d="M3543 1799L3299 1771L3529 1905Z" fill="#dd6633" stroke="#11111b"></path><path d="M3493 1527L3552 1486L3392 1403Z" fill="#d05441" stroke="#11111b"></path><path d="M3696 820L3413 810L3366 1060Z" fill="#5e2c50" stroke="#11111b"></path><path d="M3840 561L3587 410L3567 512Z" fill="#1e1a2b" stroke="#11111b"></path><path d="M3567 512L3587 410L3390 438Z" fill="#783055" stroke="#11111b"></path><path d="M3587 410L3512 183L3345 282Z" fill="#783055" stroke="#11111b"></path><path d="M0 906L168 961L0 725Z" fill="#d05441" stroke="#11111b"></path><path d="M168 961L118 1060L342 987Z" fill="#462747" stroke="#11111b"></path><path d="M0 1354L176 1570L270 1401Z" fill="#30213a" stroke="#11111b"></path><path d="M113 434L325 553L408 292Z" fill="#783055" stroke="#11111b"></path><path d="M3042 2160L3227 2160L3180 1938Z" fill="#1e1a2b" stroke="#11111b"></path><path d="M458 2053L525 1744L414 1778Z" fill="#30213a" stroke="#11111b"></path><path d="M458 2053L570 2160L661 2053Z" fill="#bf454b" stroke="#11111b"></path><path d="M3721 1188L3366 1060L3382 1259Z" fill="#5e2c50" stroke="#11111b"></path><path d="M3619 644L3840 561L3567 512Z" fill="#d05441" stroke="#11111b"></path><path d="M310 96L272 177L408 292Z" fill="#30213a" stroke="#11111b"></path><path d="M477 0L310 96L408 292Z" fill="#783055" stroke="#11111b"></path><path d="M176 1570L373 1630L270 1401Z" fill="#1e1a2b" stroke="#11111b"></path><path d="M0 1354L270 1401L233 1306Z" fill="#1e1a2b" stroke="#11111b"></path><path d="M3552 1486L3721 1188L3382 1259Z" fill="#30213a" stroke="#11111b"></path><path d="M3840 1210L3721 1188L3840 1367Z" fill="#30213a" stroke="#11111b"></path><path d="M3721 1188L3727 1138L3366 1060Z" fill="#462747" stroke="#11111b"></path><path d="M3529 1905L3299 1771L3180 1938Z" fill="#aa3b53" stroke="#11111b"></path><path d="M272 177L113 434L408 292Z" fill="#462747" stroke="#11111b"></path><path d="M0 725L168 961L264 676Z" fill="#923556" stroke="#11111b"></path><path d="M0 502L113 434L0 327Z" fill="#923556" stroke="#11111b"></path><path d="M3543 1799L3629 1640L3493 1527Z" fill="#11111b" stroke="#11111b"></path><path d="M3458 2160L3529 1905L3180 1938Z" fill="#aa3b53" stroke="#11111b"></path><path d="M3543 1799L3687 1881L3629 1640Z" fill="#5e2c50" stroke="#11111b"></path><path d="M3512 183L3542 0L3195 0Z" fill="#462747" stroke="#11111b"></path><path d="M3571 0L3542 0L3640 95Z" fill="#5e2c50" stroke="#11111b"></path><path d="M3542 0L3512 183L3640 95Z" fill="#dd6633" stroke="#11111b"></path><path d="M0 725L264 676L163 527Z" fill="#bf454b" stroke="#11111b"></path><path d="M118 1060L0 1244L233 1306Z" fill="#dd6633" stroke="#11111b"></path><path d="M0 906L0 1058L118 1060Z" fill="#aa3b53" stroke="#11111b"></path><path d="M202 1974L429 2160L458 2053Z" fill="#1e1a2b" stroke="#11111b"></path><path d="M458 2053L429 2160L570 2160Z" fill="#30213a" stroke="#11111b"></path><path d="M0 502L0 725L163 527Z" fill="#1e1a2b" stroke="#11111b"></path><path d="M3640 95L3512 183L3587 410Z" fill="#923556" stroke="#11111b"></path><path d="M0 1058L0 1244L118 1060Z" fill="#462747" stroke="#11111b"></path><path d="M176 1570L172 1879L373 1630Z" fill="#5e2c50" stroke="#11111b"></path><path d="M3840 803L3619 644L3696 820Z" fill="#1e1a2b" stroke="#11111b"></path><path d="M3840 244L3640 95L3587 410Z" fill="#923556" stroke="#11111b"></path><path d="M3840 1109L3840 924L3727 1138Z" fill="#dd6633" stroke="#11111b"></path><path d="M3727 1138L3840 924L3696 820Z" fill="#783055" stroke="#11111b"></path><path d="M3840 1109L3727 1138L3840 1210Z" fill="#1e1a2b" stroke="#11111b"></path><path d="M0 1244L0 1354L233 1306Z" fill="#dd6633" stroke="#11111b"></path><path d="M3840 924L3840 803L3696 820Z" fill="#d05441" stroke="#11111b"></path><path d="M3840 1210L3727 1138L3721 1188Z" fill="#462747" stroke="#11111b"></path><path d="M3721 1188L3552 1486L3840 1367Z" fill="#5e2c50" stroke="#11111b"></path><path d="M0 327L113 434L0 278Z" fill="#5e2c50" stroke="#11111b"></path><path d="M113 434L0 502L163 527Z" fill="#923556" stroke="#11111b"></path><path d="M3840 1367L3552 1486L3629 1640Z" fill="#783055" stroke="#11111b"></path><path d="M0 1850L172 1879L176 1570Z" fill="#d05441" stroke="#11111b"></path><path d="M477 0L177 0L310 96Z" fill="#5e2c50" stroke="#11111b"></path><path d="M310 96L177 0L272 177Z" fill="#dd6633" stroke="#11111b"></path><path d="M3227 2160L3458 2160L3180 1938Z" fill="#923556" stroke="#11111b"></path><path d="M3840 1663L3840 1367L3629 1640Z" fill="#783055" stroke="#11111b"></path><path d="M3840 803L3840 561L3619 644Z" fill="#30213a" stroke="#11111b"></path><path d="M0 1902L202 1974L172 1879Z" fill="#923556" stroke="#11111b"></path><path d="M172 1879L202 1974L414 1778Z" fill="#462747" stroke="#11111b"></path><path d="M0 1354L0 1520L176 1570Z" fill="#783055" stroke="#11111b"></path><path d="M3687 1881L3543 1799L3529 1905Z" fill="#923556" stroke="#11111b"></path><path d="M0 278L113 434L272 177Z" fill="#923556" stroke="#11111b"></path><path d="M177 0L0 278L272 177Z" fill="#1e1a2b" stroke="#11111b"></path><path d="M3601 2160L3687 1881L3529 1905Z" fill="#783055" stroke="#11111b"></path><path d="M3840 561L3840 301L3587 410Z" fill="#923556" stroke="#11111b"></path><path d="M3640 95L3840 0L3571 0Z" fill="#d05441" stroke="#11111b"></path><path d="M3601 2160L3737 1888L3687 1881Z" fill="#bf454b" stroke="#11111b"></path><path d="M3840 1704L3840 1663L3629 1640Z" fill="#30213a" stroke="#11111b"></path><path d="M3840 301L3840 244L3587 410Z" fill="#923556" stroke="#11111b"></path><path d="M3840 1704L3629 1640L3687 1881Z" fill="#30213a" stroke="#11111b"></path><path d="M3737 1888L3840 1704L3687 1881Z" fill="#5e2c50" stroke="#11111b"></path><path d="M3458 2160L3601 2160L3529 1905Z" fill="#1e1a2b" stroke="#11111b"></path><path d="M3737 1888L3840 1960L3840 1704Z" fill="#462747" stroke="#11111b"></path><path d="M0 1520L0 1850L176 1570Z" fill="#783055" stroke="#11111b"></path><path d="M202 1974L105 2160L429 2160Z" fill="#30213a" stroke="#11111b"></path><path d="M177 0L0 0L0 278Z" fill="#dd6633" stroke="#11111b"></path><path d="M0 1850L0 1902L172 1879Z" fill="#5e2c50" stroke="#11111b"></path><path d="M3840 244L3840 0L3640 95Z" fill="#783055" stroke="#11111b"></path><path d="M0 1902L105 2160L202 1974Z" fill="#1e1a2b" stroke="#11111b"></path><path d="M3601 2160L3840 1960L3737 1888Z" fill="#11111b" stroke="#11111b"></path><path d="M0 1902L0 2160L105 2160Z" fill="#1e1a2b" stroke="#11111b"></path><path d="M3601 2160L3840 2160L3840 1960Z" fill="#5e2c50" stroke="#11111b"></path></g></svg>