<svg id="visual" viewBox="0 0 3840 2160" width="3840" height="2160" xmlns="http://www.w3.org/2000/svg" xmlns:xlink="http://www.w3.org/1999/xlink" version="1.1"><g stroke-width="1" stroke-linejoin="bevel"><path d="M2051.7 1022L2123.7 749L1825.3 793Z" fill="#88eeff" stroke="#88eeff"></path><path d="M1825.3 793L1732.3 1054L2051.7 1022Z" fill="#2c3546" stroke="#2c3546"></path><path d="M2051.7 1022L2345.1 817L2123.7 749Z" fill="#7bd4ea" stroke="#7bd4ea"></path><path d="M2329.1 478L2057.7 479L2123.7 749Z" fill="#6fbbd4" stroke="#6fbbd4"></path><path d="M2123.7 749L2057.7 479L1825.3 793Z" fill="#7bd4ea" stroke="#7bd4ea"></path><path d="M2057.7 479L1811.3 497L1825.3 793Z" fill="#5a8ba6" stroke="#5a8ba6"></path><path d="M1825.3 793L1529.9 839L1732.3 1054Z" fill="#38495e" stroke="#38495e"></path><path d="M1532.9 483L1529.9 839L1825.3 793Z" fill="#5a8ba6" stroke="#5a8ba6"></path><path d="M2415.1 1304L2406.1 1050L2051.7 1022Z" fill="#4f748e" stroke="#4f748e"></path><path d="M2051.7 1022L2406.1 1050L2345.1 817Z" fill="#7bd4ea" stroke="#7bd4ea"></path><path d="M1472.9 1349L1822.3 1321L1732.3 1054Z" fill="#2c3546" stroke="#2c3546"></path><path d="M1732.3 1054L1822.3 1321L2051.7 1022Z" fill="#7bd4ea" stroke="#7bd4ea"></path><path d="M2643.5 522L2329.1 478L2345.1 817Z" fill="#5a8ba6" stroke="#5a8ba6"></path><path d="M2345.1 817L2329.1 478L2123.7 749Z" fill="#6fbbd4" stroke="#6fbbd4"></path><path d="M1822.3 1321L2126.7 1402L2051.7 1022Z" fill="#11111b" stroke="#11111b"></path><path d="M2335.1 286L2025.7 274L2057.7 479Z" fill="#88eeff" stroke="#88eeff"></path><path d="M2057.7 479L2025.7 274L1811.3 497Z" fill="#11111b" stroke="#11111b"></path><path d="M1799.3 285L1532.9 483L1811.3 497Z" fill="#64a3be" stroke="#64a3be"></path><path d="M1811.3 497L1532.9 483L1825.3 793Z" fill="#88eeff" stroke="#88eeff"></path><path d="M1193.5 869L1420.9 1040L1529.9 839Z" fill="#6fbbd4" stroke="#6fbbd4"></path><path d="M1529.9 839L1420.9 1040L1732.3 1054Z" fill="#88eeff" stroke="#88eeff"></path><path d="M2025.7 274L1799.3 285L1811.3 497Z" fill="#445e76" stroke="#445e76"></path><path d="M2126.7 1402L2415.1 1304L2051.7 1022Z" fill="#5a8ba6" stroke="#5a8ba6"></path><path d="M2415.1 1304L2598.5 1099L2406.1 1050Z" fill="#7bd4ea" stroke="#7bd4ea"></path><path d="M2406.1 1050L2714.5 821L2345.1 817Z" fill="#1f2330" stroke="#1f2330"></path><path d="M2643.5 522L2335.1 286L2329.1 478Z" fill="#11111b" stroke="#11111b"></path><path d="M2329.1 478L2335.1 286L2057.7 479Z" fill="#7bd4ea" stroke="#7bd4ea"></path><path d="M1420.9 1040L1472.9 1349L1732.3 1054Z" fill="#64a3be" stroke="#64a3be"></path><path d="M2032.7 1665L2340.1 1575L2126.7 1402Z" fill="#88eeff" stroke="#88eeff"></path><path d="M2598.5 1099L2714.5 821L2406.1 1050Z" fill="#445e76" stroke="#445e76"></path><path d="M2714.5 821L2643.5 522L2345.1 817Z" fill="#1f2330" stroke="#1f2330"></path><path d="M1799.3 285L1525.9 282L1532.9 483Z" fill="#4f748e" stroke="#4f748e"></path><path d="M1233.5 591L1193.5 869L1529.9 839Z" fill="#1f2330" stroke="#1f2330"></path><path d="M1726.3 0L1525.9 282L1799.3 285Z" fill="#4f748e" stroke="#4f748e"></path><path d="M1233.5 591L1529.9 839L1532.9 483Z" fill="#11111b" stroke="#11111b"></path><path d="M1420.9 1040L1224.5 1108L1472.9 1349Z" fill="#1f2330" stroke="#1f2330"></path><path d="M2032.7 1665L2126.7 1402L1822.3 1321Z" fill="#445e76" stroke="#445e76"></path><path d="M2126.7 1402L2340.1 1575L2415.1 1304Z" fill="#5a8ba6" stroke="#5a8ba6"></path><path d="M2415.1 1304L2668.5 1368L2598.5 1099Z" fill="#64a3be" stroke="#64a3be"></path><path d="M1215.5 306L1233.5 591L1532.9 483Z" fill="#38495e" stroke="#38495e"></path><path d="M1193.5 869L1224.5 1108L1420.9 1040Z" fill="#38495e" stroke="#38495e"></path><path d="M1528.9 1603L1792.3 1642L1822.3 1321Z" fill="#7bd4ea" stroke="#7bd4ea"></path><path d="M1792.3 1642L2032.7 1665L1822.3 1321Z" fill="#38495e" stroke="#38495e"></path><path d="M2340.1 1575L2668.5 1368L2415.1 1304Z" fill="#6fbbd4" stroke="#6fbbd4"></path><path d="M2598.5 1099L2892.8 1124L2714.5 821Z" fill="#11111b" stroke="#11111b"></path><path d="M2335.1 286L2025.7 0L2025.7 274Z" fill="#7bd4ea" stroke="#7bd4ea"></path><path d="M2025.7 274L2025.7 0L1799.3 285Z" fill="#4f748e" stroke="#4f748e"></path><path d="M2416.1 0L2025.7 0L2335.1 286Z" fill="#4f748e" stroke="#4f748e"></path><path d="M1206.5 1678L1528.9 1603L1472.9 1349Z" fill="#64a3be" stroke="#64a3be"></path><path d="M1472.9 1349L1528.9 1603L1822.3 1321Z" fill="#2c3546" stroke="#2c3546"></path><path d="M2969.8 518L2700.5 321L2643.5 522Z" fill="#4f748e" stroke="#4f748e"></path><path d="M2643.5 522L2700.5 321L2335.1 286Z" fill="#11111b" stroke="#11111b"></path><path d="M2025.7 0L1726.3 0L1799.3 285Z" fill="#445e76" stroke="#445e76"></path><path d="M1525.9 282L1215.5 306L1532.9 483Z" fill="#38495e" stroke="#38495e"></path><path d="M2668.5 1368L2892.8 1124L2598.5 1099Z" fill="#7bd4ea" stroke="#7bd4ea"></path><path d="M2714.5 821L2969.8 518L2643.5 522Z" fill="#88eeff" stroke="#88eeff"></path><path d="M1464.9 0L1215.5 306L1525.9 282Z" fill="#38495e" stroke="#38495e"></path><path d="M876.2 831L934.2 1044L1193.5 869Z" fill="#7bd4ea" stroke="#7bd4ea"></path><path d="M2603.5 0L2416.1 0L2335.1 286Z" fill="#64a3be" stroke="#64a3be"></path><path d="M1224.5 1108L1131.5 1386L1472.9 1349Z" fill="#64a3be" stroke="#64a3be"></path><path d="M935.2 1336L1131.5 1386L1224.5 1108Z" fill="#1f2330" stroke="#1f2330"></path><path d="M934.2 1044L1224.5 1108L1193.5 869Z" fill="#445e76" stroke="#445e76"></path><path d="M1726.3 0L1464.9 0L1525.9 282Z" fill="#5a8ba6" stroke="#5a8ba6"></path><path d="M2340.1 1575L2655.5 1611L2668.5 1368Z" fill="#2c3546" stroke="#2c3546"></path><path d="M2668.5 1368L2962.8 1369L2892.8 1124Z" fill="#6fbbd4" stroke="#6fbbd4"></path><path d="M2630.5 1835L2655.5 1611L2340.1 1575Z" fill="#7bd4ea" stroke="#7bd4ea"></path><path d="M3289.2 779L3015.8 872L3301.2 1069Z" fill="#2c3546" stroke="#2c3546"></path><path d="M2892.8 1124L3015.8 872L2714.5 821Z" fill="#6fbbd4" stroke="#6fbbd4"></path><path d="M1792.3 1642L2048.7 1894L2032.7 1665Z" fill="#7bd4ea" stroke="#7bd4ea"></path><path d="M2032.7 1665L2346.1 1843L2340.1 1575Z" fill="#6fbbd4" stroke="#6fbbd4"></path><path d="M1779.3 1944L2048.7 1894L1792.3 1642Z" fill="#5a8ba6" stroke="#5a8ba6"></path><path d="M1779.3 1944L1792.3 1642L1501.9 1900Z" fill="#5a8ba6" stroke="#5a8ba6"></path><path d="M3015.8 872L2969.8 518L2714.5 821Z" fill="#445e76" stroke="#445e76"></path><path d="M2700.5 321L2603.5 0L2335.1 286Z" fill="#88eeff" stroke="#88eeff"></path><path d="M2048.7 1894L2346.1 1843L2032.7 1665Z" fill="#7bd4ea" stroke="#7bd4ea"></path><path d="M2931.8 0L2603.5 0L2700.5 321Z" fill="#2c3546" stroke="#2c3546"></path><path d="M937.2 552L1193.5 869L1233.5 591Z" fill="#445e76" stroke="#445e76"></path><path d="M939.2 310L937.2 552L1215.5 306Z" fill="#88eeff" stroke="#88eeff"></path><path d="M1215.5 306L937.2 552L1233.5 591Z" fill="#6fbbd4" stroke="#6fbbd4"></path><path d="M2969.8 518L2926.8 290L2700.5 321Z" fill="#445e76" stroke="#445e76"></path><path d="M2960.8 1618L2962.8 1369L2668.5 1368Z" fill="#64a3be" stroke="#64a3be"></path><path d="M1501.9 1900L1792.3 1642L1528.9 1603Z" fill="#5a8ba6" stroke="#5a8ba6"></path><path d="M2343.1 2160L2630.5 1835L2346.1 1843Z" fill="#4f748e" stroke="#4f748e"></path><path d="M937.2 552L876.2 831L1193.5 869Z" fill="#5a8ba6" stroke="#5a8ba6"></path><path d="M843.2 1660L1206.5 1678L1131.5 1386Z" fill="#88eeff" stroke="#88eeff"></path><path d="M1131.5 1386L1206.5 1678L1472.9 1349Z" fill="#88eeff" stroke="#88eeff"></path><path d="M1206.5 1678L1501.9 1900L1528.9 1603Z" fill="#6fbbd4" stroke="#6fbbd4"></path><path d="M1464.9 0L1223.5 0L1215.5 306Z" fill="#2c3546" stroke="#2c3546"></path><path d="M549.8 1121L935.2 1336L934.2 1044Z" fill="#5a8ba6" stroke="#5a8ba6"></path><path d="M934.2 1044L935.2 1336L1224.5 1108Z" fill="#64a3be" stroke="#64a3be"></path><path d="M2346.1 1843L2630.5 1835L2340.1 1575Z" fill="#64a3be" stroke="#64a3be"></path><path d="M2655.5 1611L2960.8 1618L2668.5 1368Z" fill="#88eeff" stroke="#88eeff"></path><path d="M2103.7 2160L2346.1 1843L2048.7 1894Z" fill="#445e76" stroke="#445e76"></path><path d="M1223.5 0L939.2 310L1215.5 306Z" fill="#1f2330" stroke="#1f2330"></path><path d="M937.2 552L569.8 761L876.2 831Z" fill="#38495e" stroke="#38495e"></path><path d="M2926.8 1835L2960.8 1618L2655.5 1611Z" fill="#445e76" stroke="#445e76"></path><path d="M3289.2 779L2969.8 518L3015.8 872Z" fill="#4f748e" stroke="#4f748e"></path><path d="M3238.2 266L2931.8 0L2926.8 290Z" fill="#88eeff" stroke="#88eeff"></path><path d="M2926.8 290L2931.8 0L2700.5 321Z" fill="#445e76" stroke="#445e76"></path><path d="M3232.2 484L2926.8 290L2969.8 518Z" fill="#2c3546" stroke="#2c3546"></path><path d="M3015.8 872L2892.8 1124L3301.2 1069Z" fill="#38495e" stroke="#38495e"></path><path d="M3289.2 779L3232.2 484L2969.8 518Z" fill="#7bd4ea" stroke="#7bd4ea"></path><path d="M3206.2 1333L2892.8 1124L2962.8 1369Z" fill="#11111b" stroke="#11111b"></path><path d="M1799.3 2160L2048.7 1894L1779.3 1944Z" fill="#6fbbd4" stroke="#6fbbd4"></path><path d="M1799.3 2160L2103.7 2160L2048.7 1894Z" fill="#88eeff" stroke="#88eeff"></path><path d="M2960.8 1618L3206.2 1333L2962.8 1369Z" fill="#5a8ba6" stroke="#5a8ba6"></path><path d="M1510.9 2160L1779.3 1944L1501.9 1900Z" fill="#4f748e" stroke="#4f748e"></path><path d="M1510.9 2160L1799.3 2160L1779.3 1944Z" fill="#445e76" stroke="#445e76"></path><path d="M935.2 1883L1193.5 1912L1206.5 1678Z" fill="#64a3be" stroke="#64a3be"></path><path d="M1206.5 1678L1193.5 1912L1501.9 1900Z" fill="#1f2330" stroke="#1f2330"></path><path d="M3206.2 1333L3301.2 1069L2892.8 1124Z" fill="#4f748e" stroke="#4f748e"></path><path d="M2103.7 2160L2343.1 2160L2346.1 1843Z" fill="#64a3be" stroke="#64a3be"></path><path d="M2630.5 1835L2926.8 1835L2655.5 1611Z" fill="#88eeff" stroke="#88eeff"></path><path d="M2704.5 2160L2926.8 1835L2630.5 1835Z" fill="#1f2330" stroke="#1f2330"></path><path d="M2960.8 1618L3292.2 1564L3206.2 1333Z" fill="#5a8ba6" stroke="#5a8ba6"></path><path d="M3536.6 242L3238.2 266L3232.2 484Z" fill="#4f748e" stroke="#4f748e"></path><path d="M3232.2 484L3238.2 266L2926.8 290Z" fill="#1f2330" stroke="#1f2330"></path><path d="M1193.5 1912L1510.9 2160L1501.9 1900Z" fill="#64a3be" stroke="#64a3be"></path><path d="M1223.5 0L896.2 0L939.2 310Z" fill="#4f748e" stroke="#4f748e"></path><path d="M598.8 507L569.8 761L937.2 552Z" fill="#2c3546" stroke="#2c3546"></path><path d="M935.2 1336L843.2 1660L1131.5 1386Z" fill="#88eeff" stroke="#88eeff"></path><path d="M1193.5 1912L1175.5 2160L1510.9 2160Z" fill="#445e76" stroke="#445e76"></path><path d="M555.8 1301L843.2 1660L935.2 1336Z" fill="#5a8ba6" stroke="#5a8ba6"></path><path d="M549.8 1121L934.2 1044L876.2 831Z" fill="#445e76" stroke="#445e76"></path><path d="M598.8 507L937.2 552L939.2 310Z" fill="#6fbbd4" stroke="#6fbbd4"></path><path d="M625.8 260L598.8 507L939.2 310Z" fill="#445e76" stroke="#445e76"></path><path d="M569.8 761L549.8 1121L876.2 831Z" fill="#445e76" stroke="#445e76"></path><path d="M603.8 1885L935.2 1883L843.2 1660Z" fill="#445e76" stroke="#445e76"></path><path d="M843.2 1660L935.2 1883L1206.5 1678Z" fill="#4f748e" stroke="#4f748e"></path><path d="M3249.2 1863L3292.2 1564L2960.8 1618Z" fill="#38495e" stroke="#38495e"></path><path d="M3546.6 1328L3590.6 1047L3301.2 1069Z" fill="#11111b" stroke="#11111b"></path><path d="M2343.1 2160L2704.5 2160L2630.5 1835Z" fill="#64a3be" stroke="#64a3be"></path><path d="M2926.8 1835L3249.2 1863L2960.8 1618Z" fill="#11111b" stroke="#11111b"></path><path d="M598.8 507L317.4 535L569.8 761Z" fill="#38495e" stroke="#38495e"></path><path d="M896.2 0L625.8 260L939.2 310Z" fill="#11111b" stroke="#11111b"></path><path d="M549.8 1121L555.8 1301L935.2 1336Z" fill="#4f748e" stroke="#4f748e"></path><path d="M3238.2 266L3237.2 0L2931.8 0Z" fill="#7bd4ea" stroke="#7bd4ea"></path><path d="M3484.6 0L3237.2 0L3238.2 266Z" fill="#2c3546" stroke="#2c3546"></path><path d="M945.2 2160L1175.5 2160L1193.5 1912Z" fill="#88eeff" stroke="#88eeff"></path><path d="M3301.2 1069L3577.6 792L3289.2 779Z" fill="#11111b" stroke="#11111b"></path><path d="M3289.2 779L3568.6 517L3232.2 484Z" fill="#6fbbd4" stroke="#6fbbd4"></path><path d="M3590.6 1047L3577.6 792L3301.2 1069Z" fill="#64a3be" stroke="#64a3be"></path><path d="M2993.8 2160L3249.2 1863L2926.8 1835Z" fill="#11111b" stroke="#11111b"></path><path d="M3546.6 1328L3301.2 1069L3206.2 1333Z" fill="#1f2330" stroke="#1f2330"></path><path d="M3546.6 1328L3206.2 1333L3292.2 1564Z" fill="#5a8ba6" stroke="#5a8ba6"></path><path d="M3840 552L3568.6 517L3577.6 792Z" fill="#7bd4ea" stroke="#7bd4ea"></path><path d="M3577.6 792L3568.6 517L3289.2 779Z" fill="#2c3546" stroke="#2c3546"></path><path d="M3529.6 1664L3546.6 1328L3292.2 1564Z" fill="#38495e" stroke="#38495e"></path><path d="M2704.5 2160L2993.8 2160L2926.8 1835Z" fill="#6fbbd4" stroke="#6fbbd4"></path><path d="M555.8 1301L530.8 1633L843.2 1660Z" fill="#4f748e" stroke="#4f748e"></path><path d="M935.2 1883L945.2 2160L1193.5 1912Z" fill="#2c3546" stroke="#2c3546"></path><path d="M330.4 1361L530.8 1633L555.8 1301Z" fill="#88eeff" stroke="#88eeff"></path><path d="M896.2 0L567.8 0L625.8 260Z" fill="#2c3546" stroke="#2c3546"></path><path d="M341.4 329L317.4 535L598.8 507Z" fill="#6fbbd4" stroke="#6fbbd4"></path><path d="M569.8 761L253.4 843L549.8 1121Z" fill="#1f2330" stroke="#1f2330"></path><path d="M549.8 1121L330.4 1361L555.8 1301Z" fill="#2c3546" stroke="#2c3546"></path><path d="M603.8 1885L945.2 2160L935.2 1883Z" fill="#2c3546" stroke="#2c3546"></path><path d="M3568.6 517L3536.6 242L3232.2 484Z" fill="#64a3be" stroke="#64a3be"></path><path d="M341.4 329L598.8 507L625.8 260Z" fill="#445e76" stroke="#445e76"></path><path d="M530.8 1633L603.8 1885L843.2 1660Z" fill="#64a3be" stroke="#64a3be"></path><path d="M3536.6 242L3484.6 0L3238.2 266Z" fill="#64a3be" stroke="#64a3be"></path><path d="M567.8 0L341.4 329L625.8 260Z" fill="#6fbbd4" stroke="#6fbbd4"></path><path d="M233.4 1115L330.4 1361L549.8 1121Z" fill="#5a8ba6" stroke="#5a8ba6"></path><path d="M530.8 1633L302.4 1916L603.8 1885Z" fill="#4f748e" stroke="#4f748e"></path><path d="M0 783L253.4 843L0 589Z" fill="#1f2330" stroke="#1f2330"></path><path d="M317.4 535L253.4 843L569.8 761Z" fill="#88eeff" stroke="#88eeff"></path><path d="M3505.6 1951L3529.6 1664L3249.2 1863Z" fill="#11111b" stroke="#11111b"></path><path d="M3249.2 1863L3529.6 1664L3292.2 1564Z" fill="#64a3be" stroke="#64a3be"></path><path d="M3840 1127L3840 776L3590.6 1047Z" fill="#88eeff" stroke="#88eeff"></path><path d="M253.4 843L233.4 1115L549.8 1121Z" fill="#6fbbd4" stroke="#6fbbd4"></path><path d="M2993.8 2160L3299.2 2160L3249.2 1863Z" fill="#5a8ba6" stroke="#5a8ba6"></path><path d="M3568.6 517L3840 233L3536.6 242Z" fill="#445e76" stroke="#445e76"></path><path d="M3536.6 242L3840 0L3484.6 0Z" fill="#1f2330" stroke="#1f2330"></path><path d="M3590.6 1047L3840 776L3577.6 792Z" fill="#7bd4ea" stroke="#7bd4ea"></path><path d="M3840 1127L3590.6 1047L3546.6 1328Z" fill="#2c3546" stroke="#2c3546"></path><path d="M3299.2 2160L3505.6 1951L3249.2 1863Z" fill="#88eeff" stroke="#88eeff"></path><path d="M3840 1383L3840 1127L3546.6 1328Z" fill="#88eeff" stroke="#88eeff"></path><path d="M3840 1383L3546.6 1328L3529.6 1664Z" fill="#5a8ba6" stroke="#5a8ba6"></path><path d="M0 1649L298.4 1667L330.4 1361Z" fill="#11111b" stroke="#11111b"></path><path d="M330.4 1361L298.4 1667L530.8 1633Z" fill="#38495e" stroke="#38495e"></path><path d="M603.8 1885L580.8 2160L945.2 2160Z" fill="#7bd4ea" stroke="#7bd4ea"></path><path d="M3840 776L3840 552L3577.6 792Z" fill="#2c3546" stroke="#2c3546"></path><path d="M302.4 1916L580.8 2160L603.8 1885Z" fill="#1f2330" stroke="#1f2330"></path><path d="M3840 1661L3840 1383L3529.6 1664Z" fill="#7bd4ea" stroke="#7bd4ea"></path><path d="M0 589L253.4 843L317.4 535Z" fill="#4f748e" stroke="#4f748e"></path><path d="M253.4 843L0 1042L233.4 1115Z" fill="#6fbbd4" stroke="#6fbbd4"></path><path d="M567.8 0L235.4 0L341.4 329Z" fill="#5a8ba6" stroke="#5a8ba6"></path><path d="M3840 552L3840 233L3568.6 517Z" fill="#7bd4ea" stroke="#7bd4ea"></path><path d="M0 589L317.4 535L0 332Z" fill="#1f2330" stroke="#1f2330"></path><path d="M233.4 1115L0 1305L330.4 1361Z" fill="#11111b" stroke="#11111b"></path><path d="M298.4 1667L302.4 1916L530.8 1633Z" fill="#64a3be" stroke="#64a3be"></path><path d="M0 1890L302.4 1916L298.4 1667Z" fill="#1f2330" stroke="#1f2330"></path><path d="M0 783L0 1042L253.4 843Z" fill="#6fbbd4" stroke="#6fbbd4"></path><path d="M0 332L317.4 535L341.4 329Z" fill="#38495e" stroke="#38495e"></path><path d="M3840 1914L3840 1661L3529.6 1664Z" fill="#445e76" stroke="#445e76"></path><path d="M3840 1914L3529.6 1664L3505.6 1951Z" fill="#4f748e" stroke="#4f748e"></path><path d="M3299.2 2160L3552.6 2160L3505.6 1951Z" fill="#7bd4ea" stroke="#7bd4ea"></path><path d="M0 1042L0 1305L233.4 1115Z" fill="#5a8ba6" stroke="#5a8ba6"></path><path d="M3840 233L3840 0L3536.6 242Z" fill="#2c3546" stroke="#2c3546"></path><path d="M235.4 0L0 332L341.4 329Z" fill="#7bd4ea" stroke="#7bd4ea"></path><path d="M0 2160L309.4 2160L302.4 1916Z" fill="#4f748e" stroke="#4f748e"></path><path d="M302.4 1916L309.4 2160L580.8 2160Z" fill="#5a8ba6" stroke="#5a8ba6"></path><path d="M3552.6 2160L3840 1914L3505.6 1951Z" fill="#6fbbd4" stroke="#6fbbd4"></path><path d="M0 1305L0 1649L330.4 1361Z" fill="#11111b" stroke="#11111b"></path><path d="M235.4 0L0 0L0 332Z" fill="#445e76" stroke="#445e76"></path><path d="M0 1649L0 1890L298.4 1667Z" fill="#6fbbd4" stroke="#6fbbd4"></path><path d="M3552.6 2160L3840 2160L3840 1914Z" fill="#5a8ba6" stroke="#5a8ba6"></path><path d="M0 1890L0 2160L302.4 1916Z" fill="#7bd4ea" stroke="#7bd4ea"></path></g></svg>