<svg id="visual" viewBox="0 0 1920 1080" width="1920" height="1080" xmlns="http://www.w3.org/2000/svg" xmlns:xlink="http://www.w3.org/1999/xlink" version="1.1"><g stroke-width="1" stroke-linejoin="bevel"><path d="M936 532L809.9 417L802.9 544Z" fill="#181822" stroke="#181822"></path><path d="M809.9 417L715.7 533L802.9 544Z" fill="#1b1b25" stroke="#1b1b25"></path><path d="M936 532L990 382L809.9 417Z" fill="#1b1b25" stroke="#1b1b25"></path><path d="M713.7 293L674.7 414L809.9 417Z" fill="#30303b" stroke="#30303b"></path><path d="M809.9 417L674.7 414L715.7 533Z" fill="#15151e" stroke="#15151e"></path><path d="M974 678L1070.1 529L936 532Z" fill="#292933" stroke="#292933"></path><path d="M936 532L1070.1 529L990 382Z" fill="#33333f" stroke="#33333f"></path><path d="M990 382L832.9 272L809.9 417Z" fill="#252530" stroke="#252530"></path><path d="M715.7 533L716.7 645L802.9 544Z" fill="#22222c" stroke="#22222c"></path><path d="M811.9 711L974 678L936 532Z" fill="#30303b" stroke="#30303b"></path><path d="M530.6 657L716.7 645L715.7 533Z" fill="#30303b" stroke="#30303b"></path><path d="M811.9 711L936 532L802.9 544Z" fill="#30303b" stroke="#30303b"></path><path d="M1104.1 418L987 286L990 382Z" fill="#33333f" stroke="#33333f"></path><path d="M990 382L987 286L832.9 272Z" fill="#33333f" stroke="#33333f"></path><path d="M716.7 645L811.9 711L802.9 544Z" fill="#292933" stroke="#292933"></path><path d="M832.9 272L713.7 293L809.9 417Z" fill="#15151e" stroke="#15151e"></path><path d="M1070.1 529L1104.1 418L990 382Z" fill="#33333f" stroke="#33333f"></path><path d="M1095.1 812L1116.1 686L974 678Z" fill="#11111b" stroke="#11111b"></path><path d="M974 678L1116.1 686L1070.1 529Z" fill="#1f1f28" stroke="#1f1f28"></path><path d="M1070.1 529L1208.3 428L1104.1 418Z" fill="#292933" stroke="#292933"></path><path d="M712.7 803L808.9 804L811.9 711Z" fill="#1b1b25" stroke="#1b1b25"></path><path d="M811.9 711L965 813L974 678Z" fill="#292933" stroke="#292933"></path><path d="M583.6 272L536.6 381L674.7 414Z" fill="#1f1f28" stroke="#1f1f28"></path><path d="M674.7 414L514.6 529L715.7 533Z" fill="#15151e" stroke="#15151e"></path><path d="M716.7 645L712.7 803L811.9 711Z" fill="#2c2c37" stroke="#2c2c37"></path><path d="M808.9 804L965 813L811.9 711Z" fill="#2c2c37" stroke="#2c2c37"></path><path d="M1116.1 159L967 154L987 286Z" fill="#15151e" stroke="#15151e"></path><path d="M987 286L967 154L832.9 272Z" fill="#1f1f28" stroke="#1f1f28"></path><path d="M832.9 272L823.9 118L713.7 293Z" fill="#292933" stroke="#292933"></path><path d="M713.7 293L583.6 272L674.7 414Z" fill="#1f1f28" stroke="#1f1f28"></path><path d="M1267.3 562L1208.3 428L1070.1 529Z" fill="#252530" stroke="#252530"></path><path d="M1104.1 418L1128.1 253L987 286Z" fill="#181822" stroke="#181822"></path><path d="M1208.3 428L1128.1 253L1104.1 418Z" fill="#30303b" stroke="#30303b"></path><path d="M666.7 136L583.6 272L713.7 293Z" fill="#2c2c37" stroke="#2c2c37"></path><path d="M536.6 381L514.6 529L674.7 414Z" fill="#15151e" stroke="#15151e"></path><path d="M549.6 807L712.7 803L716.7 645Z" fill="#30303b" stroke="#30303b"></path><path d="M808.9 804L837.9 945L965 813Z" fill="#33333f" stroke="#33333f"></path><path d="M967 154L823.9 118L832.9 272Z" fill="#181822" stroke="#181822"></path><path d="M514.6 529L530.6 657L715.7 533Z" fill="#1b1b25" stroke="#1b1b25"></path><path d="M823.9 118L666.7 136L713.7 293Z" fill="#1f1f28" stroke="#1f1f28"></path><path d="M965 813L1095.1 812L974 678Z" fill="#33333f" stroke="#33333f"></path><path d="M1116.1 686L1267.3 562L1070.1 529Z" fill="#33333f" stroke="#33333f"></path><path d="M1238.3 700L1267.3 562L1116.1 686Z" fill="#292933" stroke="#292933"></path><path d="M1260.3 266L1116.1 159L1128.1 253Z" fill="#181822" stroke="#181822"></path><path d="M1128.1 253L1116.1 159L987 286Z" fill="#252530" stroke="#252530"></path><path d="M967 0L804.9 0L823.9 118Z" fill="#33333f" stroke="#33333f"></path><path d="M1260.3 266L1128.1 253L1208.3 428Z" fill="#33333f" stroke="#33333f"></path><path d="M1221.3 789L1238.3 700L1116.1 686Z" fill="#252530" stroke="#252530"></path><path d="M530.6 657L549.6 807L716.7 645Z" fill="#181822" stroke="#181822"></path><path d="M712.7 803L694.7 912L808.9 804Z" fill="#1f1f28" stroke="#1f1f28"></path><path d="M1385.4 399L1260.3 266L1208.3 428Z" fill="#1b1b25" stroke="#1b1b25"></path><path d="M549.6 807L694.7 912L712.7 803Z" fill="#292933" stroke="#292933"></path><path d="M965 813L1078.1 923L1095.1 812Z" fill="#33333f" stroke="#33333f"></path><path d="M694.7 912L837.9 945L808.9 804Z" fill="#181822" stroke="#181822"></path><path d="M1201.3 925L1221.3 789L1095.1 812Z" fill="#2c2c37" stroke="#2c2c37"></path><path d="M1095.1 812L1221.3 789L1116.1 686Z" fill="#292933" stroke="#292933"></path><path d="M1396.4 575L1385.4 399L1267.3 562Z" fill="#1f1f28" stroke="#1f1f28"></path><path d="M392.4 526L431.4 672L514.6 529Z" fill="#292933" stroke="#292933"></path><path d="M514.6 529L431.4 672L530.6 657Z" fill="#292933" stroke="#292933"></path><path d="M530.6 657L431.4 672L549.6 807Z" fill="#2c2c37" stroke="#2c2c37"></path><path d="M536.6 381L392.4 526L514.6 529Z" fill="#30303b" stroke="#30303b"></path><path d="M387.4 367L392.4 526L536.6 381Z" fill="#292933" stroke="#292933"></path><path d="M387.4 367L536.6 381L403.4 299Z" fill="#1b1b25" stroke="#1b1b25"></path><path d="M967 0L823.9 118L967 154Z" fill="#11111b" stroke="#11111b"></path><path d="M823.9 118L804.9 0L666.7 136Z" fill="#22222c" stroke="#22222c"></path><path d="M958 969L1078.1 923L965 813Z" fill="#1b1b25" stroke="#1b1b25"></path><path d="M403.4 299L583.6 272L383.4 171Z" fill="#252530" stroke="#252530"></path><path d="M403.4 299L536.6 381L583.6 272Z" fill="#292933" stroke="#292933"></path><path d="M837.9 945L958 969L965 813Z" fill="#292933" stroke="#292933"></path><path d="M1121.1 0L967 154L1116.1 159Z" fill="#292933" stroke="#292933"></path><path d="M1121.1 0L967 0L967 154Z" fill="#22222c" stroke="#22222c"></path><path d="M520.6 109L583.6 272L666.7 136Z" fill="#30303b" stroke="#30303b"></path><path d="M663.7 0L520.6 109L666.7 136Z" fill="#33333f" stroke="#33333f"></path><path d="M804.9 0L663.7 0L666.7 136Z" fill="#2c2c37" stroke="#2c2c37"></path><path d="M1396.4 575L1267.3 562L1383.4 688Z" fill="#33333f" stroke="#33333f"></path><path d="M1267.3 562L1385.4 399L1208.3 428Z" fill="#292933" stroke="#292933"></path><path d="M1357.4 172L1242.3 106L1260.3 266Z" fill="#33333f" stroke="#33333f"></path><path d="M1260.3 266L1242.3 106L1116.1 159Z" fill="#292933" stroke="#292933"></path><path d="M1383.4 688L1267.3 562L1238.3 700Z" fill="#15151e" stroke="#15151e"></path><path d="M1242.3 106L1121.1 0L1116.1 159Z" fill="#2c2c37" stroke="#2c2c37"></path><path d="M1078.1 923L1201.3 925L1095.1 812Z" fill="#252530" stroke="#252530"></path><path d="M1389.4 802L1383.4 688L1238.3 700Z" fill="#2c2c37" stroke="#2c2c37"></path><path d="M1075.1 1080L1201.3 925L1078.1 923Z" fill="#252530" stroke="#252530"></path><path d="M1389.4 802L1238.3 700L1221.3 789Z" fill="#1b1b25" stroke="#1b1b25"></path><path d="M386.4 808L525.6 942L549.6 807Z" fill="#181822" stroke="#181822"></path><path d="M549.6 807L525.6 942L694.7 912Z" fill="#15151e" stroke="#15151e"></path><path d="M694.7 912L808.9 1080L837.9 945Z" fill="#2c2c37" stroke="#2c2c37"></path><path d="M837.9 945L808.9 1080L958 969Z" fill="#1f1f28" stroke="#1f1f28"></path><path d="M443.4 0L383.4 171L520.6 109Z" fill="#11111b" stroke="#11111b"></path><path d="M520.6 109L383.4 171L583.6 272Z" fill="#30303b" stroke="#30303b"></path><path d="M271.3 245L276.3 422L387.4 367Z" fill="#33333f" stroke="#33333f"></path><path d="M431.4 672L386.4 808L549.6 807Z" fill="#2c2c37" stroke="#2c2c37"></path><path d="M257.3 678L386.4 808L431.4 672Z" fill="#1f1f28" stroke="#1f1f28"></path><path d="M257.3 678L431.4 672L392.4 526Z" fill="#33333f" stroke="#33333f"></path><path d="M277.3 502L392.4 526L276.3 422Z" fill="#2c2c37" stroke="#2c2c37"></path><path d="M1491.6 281L1394.4 248L1385.4 399Z" fill="#30303b" stroke="#30303b"></path><path d="M1385.4 399L1394.4 248L1260.3 266Z" fill="#2c2c37" stroke="#2c2c37"></path><path d="M1394.4 248L1357.4 172L1260.3 266Z" fill="#30303b" stroke="#30303b"></path><path d="M1242.3 106L1234.3 0L1121.1 0Z" fill="#33333f" stroke="#33333f"></path><path d="M663.7 0L536.6 0L520.6 109Z" fill="#1b1b25" stroke="#1b1b25"></path><path d="M276.3 422L392.4 526L387.4 367Z" fill="#15151e" stroke="#15151e"></path><path d="M271.3 245L387.4 367L403.4 299Z" fill="#15151e" stroke="#15151e"></path><path d="M683.7 1080L808.9 1080L694.7 912Z" fill="#1b1b25" stroke="#1b1b25"></path><path d="M958 969L1075.1 1080L1078.1 923Z" fill="#1b1b25" stroke="#1b1b25"></path><path d="M1381.4 0L1234.3 0L1242.3 106Z" fill="#30303b" stroke="#30303b"></path><path d="M808.9 1080L990 1080L958 969Z" fill="#252530" stroke="#252530"></path><path d="M1395.4 914L1221.3 789L1201.3 925Z" fill="#181822" stroke="#181822"></path><path d="M1395.4 914L1389.4 802L1221.3 789Z" fill="#22222c" stroke="#22222c"></path><path d="M1515.6 550L1496.6 407L1396.4 575Z" fill="#33333f" stroke="#33333f"></path><path d="M566.6 1080L683.7 1080L694.7 912Z" fill="#1f1f28" stroke="#1f1f28"></path><path d="M990 1080L1075.1 1080L958 969Z" fill="#292933" stroke="#292933"></path><path d="M1396.4 575L1496.6 407L1385.4 399Z" fill="#30303b" stroke="#30303b"></path><path d="M1394.4 248L1477.6 120L1357.4 172Z" fill="#30303b" stroke="#30303b"></path><path d="M1479.6 692L1396.4 575L1383.4 688Z" fill="#22222c" stroke="#22222c"></path><path d="M147.1 525L257.3 678L277.3 502Z" fill="#252530" stroke="#252530"></path><path d="M277.3 502L257.3 678L392.4 526Z" fill="#252530" stroke="#252530"></path><path d="M383.4 171L271.3 245L403.4 299Z" fill="#2c2c37" stroke="#2c2c37"></path><path d="M276.3 422L147.1 525L277.3 502Z" fill="#1b1b25" stroke="#1b1b25"></path><path d="M285.3 161L271.3 245L383.4 171Z" fill="#33333f" stroke="#33333f"></path><path d="M536.6 0L443.4 0L520.6 109Z" fill="#22222c" stroke="#22222c"></path><path d="M1389.4 802L1479.6 692L1383.4 688Z" fill="#11111b" stroke="#11111b"></path><path d="M1479.6 692L1515.6 550L1396.4 575Z" fill="#252530" stroke="#252530"></path><path d="M386.4 808L383.4 933L525.6 942Z" fill="#22222c" stroke="#22222c"></path><path d="M525.6 942L566.6 1080L694.7 912Z" fill="#1b1b25" stroke="#1b1b25"></path><path d="M284.3 815L383.4 933L386.4 808Z" fill="#30303b" stroke="#30303b"></path><path d="M1642.7 304L1491.6 281L1496.6 407Z" fill="#1b1b25" stroke="#1b1b25"></path><path d="M1496.6 407L1491.6 281L1385.4 399Z" fill="#1f1f28" stroke="#1f1f28"></path><path d="M1357.4 172L1381.4 0L1242.3 106Z" fill="#252530" stroke="#252530"></path><path d="M250.3 0L285.3 161L383.4 171Z" fill="#15151e" stroke="#15151e"></path><path d="M388.4 1080L566.6 1080L525.6 942Z" fill="#1f1f28" stroke="#1f1f28"></path><path d="M257.3 678L284.3 815L386.4 808Z" fill="#2c2c37" stroke="#2c2c37"></path><path d="M1342.4 1080L1395.4 914L1201.3 925Z" fill="#1b1b25" stroke="#1b1b25"></path><path d="M1389.4 802L1484.6 811L1479.6 692Z" fill="#30303b" stroke="#30303b"></path><path d="M1075.1 1080L1211.3 1080L1201.3 925Z" fill="#1b1b25" stroke="#1b1b25"></path><path d="M1395.4 914L1484.6 811L1389.4 802Z" fill="#33333f" stroke="#33333f"></path><path d="M1621.7 698L1627.7 514L1515.6 550Z" fill="#30303b" stroke="#30303b"></path><path d="M1477.6 120L1381.4 0L1357.4 172Z" fill="#252530" stroke="#252530"></path><path d="M1491.6 281L1477.6 120L1394.4 248Z" fill="#2c2c37" stroke="#2c2c37"></path><path d="M1680.7 124L1477.6 120L1491.6 281Z" fill="#11111b" stroke="#11111b"></path><path d="M109.1 436L147.1 525L276.3 422Z" fill="#1b1b25" stroke="#1b1b25"></path><path d="M257.3 678L158.1 710L284.3 815Z" fill="#252530" stroke="#252530"></path><path d="M109.1 436L276.3 422L271.3 245Z" fill="#1b1b25" stroke="#1b1b25"></path><path d="M147.1 525L158.1 710L257.3 678Z" fill="#11111b" stroke="#11111b"></path><path d="M283.3 982L388.4 1080L383.4 933Z" fill="#11111b" stroke="#11111b"></path><path d="M103.1 234L109.1 436L271.3 245Z" fill="#15151e" stroke="#15151e"></path><path d="M0 656L114.1 811L158.1 710Z" fill="#1b1b25" stroke="#1b1b25"></path><path d="M283.3 982L383.4 933L284.3 815Z" fill="#252530" stroke="#252530"></path><path d="M383.4 933L388.4 1080L525.6 942Z" fill="#1f1f28" stroke="#1f1f28"></path><path d="M1621.7 698L1515.6 550L1479.6 692Z" fill="#292933" stroke="#292933"></path><path d="M1515.6 550L1627.7 514L1496.6 407Z" fill="#252530" stroke="#252530"></path><path d="M1395.4 914L1508.6 925L1484.6 811Z" fill="#22222c" stroke="#22222c"></path><path d="M1211.3 1080L1342.4 1080L1201.3 925Z" fill="#181822" stroke="#181822"></path><path d="M166.1 976L283.3 982L284.3 815Z" fill="#11111b" stroke="#11111b"></path><path d="M1627.7 514L1641.7 433L1496.6 407Z" fill="#181822" stroke="#181822"></path><path d="M1519.6 1080L1508.6 925L1395.4 914Z" fill="#1f1f28" stroke="#1f1f28"></path><path d="M1484.6 811L1621.7 698L1479.6 692Z" fill="#292933" stroke="#292933"></path><path d="M443.4 0L250.3 0L383.4 171Z" fill="#1f1f28" stroke="#1f1f28"></path><path d="M141.1 114L103.1 234L271.3 245Z" fill="#292933" stroke="#292933"></path><path d="M1679.7 781L1621.7 698L1484.6 811Z" fill="#292933" stroke="#292933"></path><path d="M1627.7 514L1768.9 416L1641.7 433Z" fill="#252530" stroke="#252530"></path><path d="M1641.7 433L1642.7 304L1496.6 407Z" fill="#15151e" stroke="#15151e"></path><path d="M1477.6 120L1539.6 0L1381.4 0Z" fill="#11111b" stroke="#11111b"></path><path d="M141.1 114L271.3 245L285.3 161Z" fill="#11111b" stroke="#11111b"></path><path d="M250.3 0L141.1 114L285.3 161Z" fill="#2c2c37" stroke="#2c2c37"></path><path d="M0 656L158.1 710L147.1 525Z" fill="#22222c" stroke="#22222c"></path><path d="M158.1 710L114.1 811L284.3 815Z" fill="#252530" stroke="#252530"></path><path d="M0 575L147.1 525L109.1 436Z" fill="#15151e" stroke="#15151e"></path><path d="M166.1 976L291.3 1080L283.3 982Z" fill="#30303b" stroke="#30303b"></path><path d="M283.3 982L291.3 1080L388.4 1080Z" fill="#1b1b25" stroke="#1b1b25"></path><path d="M1680.7 124L1539.6 0L1477.6 120Z" fill="#1f1f28" stroke="#1f1f28"></path><path d="M114.1 811L166.1 976L284.3 815Z" fill="#1b1b25" stroke="#1b1b25"></path><path d="M1614.7 953L1679.7 781L1484.6 811Z" fill="#2c2c37" stroke="#2c2c37"></path><path d="M1786.9 555L1768.9 416L1627.7 514Z" fill="#181822" stroke="#181822"></path><path d="M1783.9 280L1680.7 124L1642.7 304Z" fill="#1b1b25" stroke="#1b1b25"></path><path d="M1614.7 953L1484.6 811L1508.6 925Z" fill="#252530" stroke="#252530"></path><path d="M0 380L0 575L109.1 436Z" fill="#181822" stroke="#181822"></path><path d="M114.1 811L0 960L166.1 976Z" fill="#33333f" stroke="#33333f"></path><path d="M0 304L109.1 436L103.1 234Z" fill="#22222c" stroke="#22222c"></path><path d="M0 304L0 380L109.1 436Z" fill="#15151e" stroke="#15151e"></path><path d="M0 575L0 656L147.1 525Z" fill="#30303b" stroke="#30303b"></path><path d="M0 114L0 304L103.1 234Z" fill="#15151e" stroke="#15151e"></path><path d="M1519.6 1080L1614.7 953L1508.6 925Z" fill="#181822" stroke="#181822"></path><path d="M1342.4 1080L1519.6 1080L1395.4 914Z" fill="#22222c" stroke="#22222c"></path><path d="M250.3 0L117.1 0L141.1 114Z" fill="#22222c" stroke="#22222c"></path><path d="M141.1 114L0 114L103.1 234Z" fill="#15151e" stroke="#15151e"></path><path d="M1768.9 416L1642.7 304L1641.7 433Z" fill="#22222c" stroke="#22222c"></path><path d="M1642.7 304L1680.7 124L1491.6 281Z" fill="#15151e" stroke="#15151e"></path><path d="M1786.9 555L1627.7 514L1621.7 698Z" fill="#252530" stroke="#252530"></path><path d="M1784.9 699L1621.7 698L1679.7 781Z" fill="#33333f" stroke="#33333f"></path><path d="M1784.9 699L1786.9 555L1621.7 698Z" fill="#30303b" stroke="#30303b"></path><path d="M1680.7 124L1657.7 0L1539.6 0Z" fill="#30303b" stroke="#30303b"></path><path d="M1760.9 0L1657.7 0L1680.7 124Z" fill="#33333f" stroke="#33333f"></path><path d="M0 656L0 841L114.1 811Z" fill="#252530" stroke="#252530"></path><path d="M166.1 976L132.1 1080L291.3 1080Z" fill="#2c2c37" stroke="#2c2c37"></path><path d="M117.1 0L0 114L141.1 114Z" fill="#15151e" stroke="#15151e"></path><path d="M1920 382L1783.9 280L1768.9 416Z" fill="#2c2c37" stroke="#2c2c37"></path><path d="M1768.9 416L1783.9 280L1642.7 304Z" fill="#2c2c37" stroke="#2c2c37"></path><path d="M0 960L132.1 1080L166.1 976Z" fill="#22222c" stroke="#22222c"></path><path d="M1783.9 776L1784.9 699L1679.7 781Z" fill="#181822" stroke="#181822"></path><path d="M1770.9 949L1783.9 776L1679.7 781Z" fill="#33333f" stroke="#33333f"></path><path d="M1920 694L1920 510L1786.9 555Z" fill="#30303b" stroke="#30303b"></path><path d="M1770.9 949L1679.7 781L1614.7 953Z" fill="#22222c" stroke="#22222c"></path><path d="M1783.9 280L1773.9 119L1680.7 124Z" fill="#292933" stroke="#292933"></path><path d="M0 841L0 960L114.1 811Z" fill="#30303b" stroke="#30303b"></path><path d="M1519.6 1080L1653.7 1080L1614.7 953Z" fill="#252530" stroke="#252530"></path><path d="M117.1 0L0 0L0 114Z" fill="#252530" stroke="#252530"></path><path d="M1773.9 119L1760.9 0L1680.7 124Z" fill="#1b1b25" stroke="#1b1b25"></path><path d="M1653.7 1080L1770.9 949L1614.7 953Z" fill="#2c2c37" stroke="#2c2c37"></path><path d="M0 960L0 1080L132.1 1080Z" fill="#30303b" stroke="#30303b"></path><path d="M1920 694L1784.9 699L1783.9 776Z" fill="#252530" stroke="#252530"></path><path d="M1920 694L1786.9 555L1784.9 699Z" fill="#1f1f28" stroke="#1f1f28"></path><path d="M1786.9 555L1920 510L1768.9 416Z" fill="#22222c" stroke="#22222c"></path><path d="M1783.9 280L1920 243L1773.9 119Z" fill="#33333f" stroke="#33333f"></path><path d="M1773.9 119L1920 0L1760.9 0Z" fill="#2c2c37" stroke="#2c2c37"></path><path d="M1920 510L1920 382L1768.9 416Z" fill="#33333f" stroke="#33333f"></path><path d="M1920 842L1920 694L1783.9 776Z" fill="#33333f" stroke="#33333f"></path><path d="M1920 382L1920 243L1783.9 280Z" fill="#1b1b25" stroke="#1b1b25"></path><path d="M1653.7 1080L1799.9 1080L1770.9 949Z" fill="#252530" stroke="#252530"></path><path d="M1770.9 949L1920 842L1783.9 776Z" fill="#1f1f28" stroke="#1f1f28"></path><path d="M1920 243L1920 141L1773.9 119Z" fill="#15151e" stroke="#15151e"></path><path d="M1920 950L1920 842L1770.9 949Z" fill="#1f1f28" stroke="#1f1f28"></path><path d="M1799.9 1080L1920 950L1770.9 949Z" fill="#22222c" stroke="#22222c"></path><path d="M1920 141L1920 0L1773.9 119Z" fill="#2c2c37" stroke="#2c2c37"></path><path d="M1799.9 1080L1920 1080L1920 950Z" fill="#15151e" stroke="#15151e"></path></g></svg>